<?xml version="1.0" standalone="no"?>
<!DOCTYPE svg PUBLIC "-//W3C//DTD SVG 1.1//EN" "http://www.w3.org/Graphics/SVG/1.1/DTD/svg11.dtd" >
<svg xmlns="http://www.w3.org/2000/svg">
<metadata>Generated by IcoMoon</metadata>
<defs>
<font id="icomoon" horiz-adv-x="1024">
<font-face units-per-em="1024" ascent="960" descent="-64" />
<missing-glyph horiz-adv-x="1024" />
<glyph unicode="&#x20;" horiz-adv-x="512" d="" />
<glyph unicode="&#xe900;" glyph-name="d_rotation" d="M484.058 958.72l28.16 1.28c268.373 0 488.107-206.507 509.44-468.907h-64c-14.933 160.427-114.773 295.68-254.293 361.813l-56.747-56.747-162.56 162.56zM359.042 321.707c-8.107 0-15.787 1.28-22.187 3.413-6.827 2.56-12.373 5.547-17.067 10.24-4.693 4.267-8.533 9.387-11.093 15.787-2.56 5.973-3.84 12.8-3.84 20.053h-55.467c0-15.36 2.987-29.013 8.96-40.533s14.080-21.333 23.893-29.44c10.24-7.68 21.76-13.653 34.987-17.493 12.8-4.267 26.453-6.4 40.96-6.4 15.787 0 30.72 2.133 43.947 6.4 13.653 4.267 25.602 10.667 35.415 18.773s17.92 18.347 23.467 30.72c5.547 12.373 8.533 26.027 8.533 41.387 0 8.107-0.853 16.213-2.987 23.893s-5.12 14.933-9.813 21.76c-4.267 6.827-10.24 12.8-17.067 18.347-7.253 5.547-15.789 9.813-26.029 13.227 8.533 3.84 15.789 8.533 22.189 14.080s11.52 11.52 15.787 17.92c4.267 6.4 7.253 12.8 9.387 19.627s2.987 13.653 2.987 20.48c0 15.36-2.56 29.013-7.68 40.96s-12.373 21.76-21.76 29.44c-8.535 8.107-20.055 14.080-32.855 18.347-13.227 3.84-27.733 5.973-43.52 5.973-15.36 0-29.44-2.133-42.667-6.827-12.8-4.693-24.32-11.093-33.707-19.2-8.96-8.107-16.213-17.493-21.76-28.587-5.12-11.093-7.68-23.040-7.68-36.267h55.467c0 7.253 1.28 13.653 3.84 19.2s5.973 10.667 10.667 14.507c4.693 3.84 9.813 7.253 16.213 9.387s12.8 3.413 20.48 3.413c17.067 0 29.867-4.267 37.973-13.227 8.107-8.533 12.373-20.907 12.373-36.693 0-7.68-1.28-14.507-3.413-20.907s-5.973-11.52-10.667-15.787c-4.693-4.267-10.667-7.68-17.493-10.24s-15.36-3.84-24.747-3.84h-32.853v-43.947h32.853c9.387 0 17.92-0.853 25.6-2.987s14.080-5.547 19.2-9.813c5.12-4.693 9.387-10.24 12.373-17.067s4.267-14.933 4.267-24.32c0-17.493-5.12-30.72-14.933-39.68-9.813-9.813-23.467-14.080-40.533-14.080zM321.069 43.52c-139.52 65.707-239.36 201.387-254.72 361.813h-64c21.76-262.827 241.493-469.333 509.869-469.333l28.16 1.28-162.562 162.56-56.747-56.32zM675.204 607.147c18.773-7.68 34.987-18.773 48.64-32.853s24.32-31.147 31.573-51.2c7.253-20.053 11.093-42.24 11.093-66.987v-17.067c0-24.747-3.84-46.933-11.093-66.987-7.253-19.627-17.92-36.693-31.573-50.773s-30.293-24.747-49.493-32.427c-19.2-7.68-40.96-11.52-64.427-11.52h-98.133v341.333h100.693c23.040 0 43.947-3.84 62.72-11.52zM707.204 439.467c0-17.92-2.133-33.707-5.973-48.213-4.267-14.080-10.24-26.453-18.347-36.267s-18.347-17.493-30.293-22.613c-12.373-5.12-26.453-7.68-42.24-7.68h-38.827v246.187h41.387c30.72 0 54.187-9.813 69.973-29.44 16.213-19.627 24.32-47.787 24.32-84.907v-17.067z" />
<glyph unicode="&#xe901;" glyph-name="k" d="M810.667 832h-597.333c-46.933 0-85.333-38.4-85.333-85.333v-597.333c0-46.933 37.973-85.333 85.333-85.333h597.333c46.933 0 85.333 38.4 85.333 85.333v597.333c0 46.933-37.973 85.333-85.333 85.333zM810.667 746.667v-597.333h-597.333v597.333h597.333zM469.333 320h-64v64h-128v192h64v-128h64v128h64v-128h42.667v-64.427h-42.667v-63.573zM691.2 448l85.333 128h-72.533l-85.333-128v128h-64v-256h64v128l85.333-128h72.533l-85.333 128z" />
<glyph unicode="&#xe902;" glyph-name="px" d="M512 874.667c235.52 0 426.667-191.147 426.667-426.667s-191.147-426.667-426.667-426.667c-235.52 0-426.667 191.147-426.667 426.667s191.147 426.667 426.667 426.667zM170.667 448c0-173.653 130.56-317.013 298.24-338.347v82.347c-46.933 0-85.333 38.4-85.333 85.333v42.667l-203.947 203.947c-5.547-24.32-8.96-49.92-8.96-75.947zM682.24 277.333c38.4 0 69.973-25.173 81.067-59.733 55.467 60.587 90.027 141.653 90.027 230.4 0 142.933-88.747 265.813-213.76 316.16v-17.493c0-46.933-38.4-85.333-85.333-85.333h-85.333v-85.333c0-23.467-19.2-42.667-42.667-42.667h-85.333v-85.333h256c23.467 0 42.667-19.2 42.667-42.667v-128h42.667z" />
<glyph unicode="&#xe903;" glyph-name="360" d="M512 725.333c-235.52 0-426.667-95.573-426.667-213.333 0-95.573 125.44-176.213 298.667-203.52v-137.813l170.667 170.667-170.667 170.667v-116.48c-134.4 23.893-213.333 81.067-213.333 116.48 0 45.227 129.707 128 341.333 128s341.333-82.773 341.333-128c0-31.147-62.293-80.64-170.667-107.947v-87.467c150.613 32.853 256 107.947 256 195.413 0 117.76-191.147 213.333-426.667 213.333z" />
<glyph unicode="&#xe904;" glyph-name="ac_unit" d="M938.667 490.667h-177.92l138.24 138.24-60.16 60.587-198.827-198.827h-85.333v85.333l198.827 198.827-60.587 60.16-138.24-138.24v177.92h-85.333v-177.92l-138.24 138.24-60.587-60.16 198.827-198.827v-85.333h-85.333l-198.827 198.827-60.16-60.587 138.24-138.24h-177.92v-85.333h177.92l-138.24-138.24 60.16-60.587 198.827 198.827h85.333v-85.333l-198.827-198.827 60.587-60.16 138.24 138.24v-177.92h85.333v177.92l138.24-138.24 60.587 60.16-198.827 198.827v85.333h85.333l198.827-198.827 60.16 60.587-138.24 138.24h177.92v85.333z" />
<glyph unicode="&#xe905;" glyph-name="access_alarm" d="M336.213 812.374l-195.84-164.267-55.040 65.28 196.267 164.267 54.613-65.28zM938.667 712.96l-55.040-65.28-196.267 164.693 55.040 65.28 196.267-164.693zM469.333 615.68v-256l202.667-121.6 32 52.48-170.667 101.12v224h-64zM512 786.347c212.053 0 384-171.947 384-384s-171.947-384-384-384c-212.48 0-384 171.947-384 384s171.947 384 384 384zM213.333 402.347c0-165.12 133.547-298.667 298.667-298.667s298.667 133.547 298.667 298.667c0 165.12-133.547 298.667-298.667 298.667s-298.667-133.547-298.667-298.667z" />
<glyph unicode="&#xe906;" glyph-name="access_alarms" d="M938.667 712.534l-55.467-64-196.267 166.4 55.467 64 196.267-166.4zM337.067 810.667l-196.267-162.133-55.467 64 196.267 162.133 55.467-64zM469.333 614.4v-256l200.533-123.733 34.133 51.2-170.667 102.4v226.134h-64zM512 785.067c213.333 0 384-170.667 384-384s-170.667-384-384-384c-213.333 0-384 170.667-384 384s170.667 384 384 384zM213.333 401.067c0-166.4 132.267-298.667 298.667-298.667s298.667 132.267 298.667 298.667c0 166.4-132.267 298.667-298.667 298.667s-298.667-132.267-298.667-298.667z" />
<glyph unicode="&#xe907;" glyph-name="access_time" d="M511.573 874.667c-235.52 0-426.24-191.147-426.24-426.667s190.72-426.667 426.24-426.667c235.947 0 427.093 191.147 427.093 426.667s-191.147 426.667-427.093 426.667zM512 106.667c-188.587 0-341.333 152.747-341.333 341.333s152.747 341.333 341.333 341.333c188.587 0 341.333-152.747 341.333-341.333s-152.747-341.333-341.333-341.333zM469.333 661.333h64v-224l192-113.92-32-52.48-224 134.4v256z" />
<glyph unicode="&#xe908;" glyph-name="accessibility_new" d="M597.333 789.333c0-46.933-38.4-85.333-85.333-85.333s-85.333 38.4-85.333 85.333c0 46.933 38.4 85.333 85.333 85.333s85.333-38.4 85.333-85.333zM512 661.333c120.747 0 251.307 12.8 362.667 42.667l21.333-85.333c-79.36-21.333-170.667-35.413-256-42.667v-554.667h-85.333v256h-85.333v-256h-85.333v554.667c-85.333 7.253-176.64 21.333-256 42.667l21.333 85.333c111.36-29.867 241.92-42.667 362.667-42.667z" />
<glyph unicode="&#xe909;" glyph-name="accessibility" d="M597.333 789.333c0 46.933-38.4 85.333-85.333 85.333s-85.333-38.4-85.333-85.333c0-46.933 38.4-85.333 85.333-85.333s85.333 38.4 85.333 85.333zM640 576h256v85.333h-768v-85.333h256v-554.667h85.333v256h85.333v-256h85.333v554.667z" />
<glyph unicode="&#xe90a;" glyph-name="accessible_forward" d="M746.667 863.146c-47.13 0-85.333-38.205-85.333-85.333s38.204-85.333 85.333-85.333c47.13 0 85.333 38.205 85.333 85.333s-38.204 85.333-85.333 85.333zM618.667 246.187h-85.333c0-70.4-57.6-128-128-128s-128 57.6-128 128c0 70.4 57.6 128 128 128v85.333c-117.76 0-213.333-95.573-213.333-213.333s95.573-213.333 213.333-213.333c117.76 0 213.333 95.573 213.333 213.333zM667.307 395.52h79.36c46.933 0 85.333-38.4 85.333-85.333v-234.667h-85.333v213.333h-212.48c-62.293 0-104.533 66.987-78.933 123.733l78.080 174.932h-94.293l-27.733-65.279-81.92 22.612 28.587 76.8c14.080 31.147 45.227 51.2 79.787 51.2h221.867c63.147 0 104.96-64 78.933-120.747l-71.253-156.586z" />
<glyph unicode="&#xe90b;" glyph-name="accessible" d="M512 874.667c-47.13 0-85.333-38.205-85.333-85.333s38.204-85.333 85.333-85.333c47.13 0 85.333 38.205 85.333 85.333s-38.204 85.333-85.333 85.333zM810.667 405.333v85.333c-65.707-0.853-131.84 32-173.653 78.080l-55.040 61.013c-7.253 8.107-16.213 14.507-26.027 19.2-0.213 0-0.32 0.107-0.427 0.213s-0.213 0.213-0.427 0.213h-0.427c-14.933 8.533-32 12.8-50.773 11.093-44.8-3.84-77.227-43.52-77.227-88.32v-252.16c0-46.933 38.4-85.333 85.333-85.333h213.333v-213.333h85.333v234.667c0 46.933-38.4 85.333-85.333 85.333h-128v147.2c55.040-45.653 138.667-82.773 213.333-83.2zM298.667 234.667c0-70.827 57.173-128 128-128 55.893 0 103.253 35.84 120.747 85.333h88.32c-19.627-97.28-105.813-170.667-209.067-170.667-117.76 0-213.333 95.573-213.333 213.333 0 103.253 73.387 189.44 170.667 209.067v-88.32c-49.493-17.92-85.333-64.853-85.333-120.747z" />
<glyph unicode="&#xe90c;" glyph-name="account_balance_wallet" d="M874.667 746.667c0 46.933-38.4 85.333-85.333 85.333h-597.333c-47.36 0-85.333-38.4-85.333-85.333v-597.333c0-46.933 37.973-85.333 85.333-85.333h597.333c46.933 0 85.333 38.4 85.333 85.333v97.28c25.173 14.933 42.667 41.813 42.667 73.387v256c0 31.573-17.493 58.453-42.667 73.387v97.28zM533.333 320v256h298.667v-256h-298.667zM192 149.333v597.333h597.333v-85.333h-256c-46.933 0-85.333-38.4-85.333-85.333v-256c0-46.933 38.4-85.333 85.333-85.333h256v-85.333h-597.333zM597.333 448c0-35.345 28.655-64 64-64s64 28.655 64 64c0 35.345-28.655 64-64 64s-64-28.655-64-64z" />
<glyph unicode="&#xe90d;" glyph-name="account_balance" d="M106.667 661.333l405.333 213.333 405.333-213.333v-85.333h-810.667v85.333zM512 778.24l222.293-116.907h-444.587l222.293 116.907zM213.333 490.667h85.333v-298.667h-85.333v298.667zM554.667 490.667v-298.667h-85.333v298.667h85.333zM106.667 106.667v-85.333h810.667v85.333h-810.667zM725.333 490.667h85.333v-298.667h-85.333v298.667z" />
<glyph unicode="&#xe90e;" glyph-name="account_box" d="M213.333 832h597.333c46.933 0 85.333-38.4 85.333-85.333v-597.333c0-46.933-38.4-85.333-85.333-85.333h-597.333c-47.36 0-85.333 38.4-85.333 85.333v597.333c0 46.933 37.973 85.333 85.333 85.333zM810.667 746.667h-597.333v-597.333h597.333v597.333zM512 448c-70.4 0-128 57.6-128 128s57.6 128 128 128c70.4 0 128-57.6 128-128s-57.6-128-128-128zM469.333 576c0 23.467 19.2 42.667 42.667 42.667s42.667-19.2 42.667-42.667c0-23.467-19.2-42.667-42.667-42.667s-42.667 19.2-42.667 42.667zM256 192v65.28c0 106.667 169.387 152.747 256 152.747s256-46.080 256-152.747v-65.28h-512zM512 325.12c55.893 0 128-23.893 157.44-47.787h-314.88c29.013 23.893 101.547 47.787 157.44 47.787z" />
<glyph unicode="&#xe90f;" glyph-name="account_circle" d="M512 874.667c235.52 0 426.667-191.147 426.667-426.667s-191.147-426.667-426.667-426.667c-235.52 0-426.667 191.147-426.667 426.667s191.147 426.667 426.667 426.667zM301.653 180.053c58.027-46.080 130.987-73.387 210.347-73.387s152.32 27.307 210.347 73.387c-17.92 38.4-130.133 75.947-210.347 75.947s-192-37.547-210.347-75.947zM512 341.333c62.293 0 210.347-25.173 271.36-99.413 43.52 57.173 69.973 128.427 69.973 206.080 0 188.16-153.173 341.333-341.333 341.333s-341.333-153.173-341.333-341.333c0-77.653 26.453-148.907 69.973-206.080 61.013 74.24 209.067 99.413 271.36 99.413zM512 704c82.773 0 149.333-66.56 149.333-149.333s-66.56-149.333-149.333-149.333c-82.773 0-149.333 66.56-149.333 149.333s66.56 149.333 149.333 149.333zM448 554.667c0-35.413 28.587-64 64-64s64 28.587 64 64c0 35.413-28.587 64-64 64s-64-28.587-64-64z" />
<glyph unicode="&#xe910;" glyph-name="Active" d="M512 704.001c-141.44 0-256-114.56-256-256.001s114.56-256 256-256 256 114.56 256 256c0 141.441-114.56 256.001-256 256.001z" />
<glyph unicode="&#xe911;" glyph-name="adb" d="M777.387 872.533l-89.6-89.6c74.24-54.187 122.88-141.227 122.88-240.213v-42.667h-597.333v42.667c0 98.987 48.64 186.027 122.88 240.213l-89.6 89.6 34.987 35.413 98.56-98.56c39.68 20.053 84.053 32 131.84 32s92.16-11.947 132.267-32l98.133 98.56 34.987-35.413zM512-11.947c-165.12 0-298.667 133.547-298.667 298.667v170.667h597.333v-170.667c0-165.12-133.547-298.667-298.667-298.667zM384 585.387c-23.467 0-42.667 19.2-42.667 42.667s19.2 42.667 42.667 42.667c23.467 0 42.667-19.2 42.667-42.667s-19.2-42.667-42.667-42.667zM597.333 628.053c0-23.467 19.2-42.667 42.667-42.667s42.667 19.2 42.667 42.667c0 23.467-19.2 42.667-42.667 42.667s-42.667-19.2-42.667-42.667z" />
<glyph unicode="&#xe912;" glyph-name="add_a_photo" d="M362.667 682.667h-128v-128h-85.333v128h-128v85.333h128v128h85.333v-128h128v-85.333zM782.080 682.667h135.253c46.933 0 85.333-38.4 85.333-85.333v-512c0-46.933-38.4-85.333-85.333-85.333h-682.667c-46.933 0-85.333 38.4-85.333 85.333v384h85.333v-384h682.667v512h-172.8l-78.080 85.333h-218.453v85.333h256l78.080-85.333zM576 128c-117.76 0-213.333 95.573-213.333 213.333s95.573 213.333 213.333 213.333c117.76 0 213.333-95.573 213.333-213.333s-95.573-213.333-213.333-213.333zM576 469.333c70.4 0 128-57.6 128-128s-57.6-128-128-128c-70.4 0-128 57.6-128 128s57.6 128 128 128z" />
<glyph unicode="&#xe913;" glyph-name="add_alarm" d="M336.213 812.374l-195.84-164.267-55.040 65.28 196.267 164.267 54.613-65.28zM938.667 712.96l-55.040-65.28-196.267 164.693 55.040 65.28 196.267-164.693zM128 402.347c0-212.053 171.52-384 384-384 212.053 0 384 171.947 384 384s-171.947 384-384 384c-212.053 0-384-171.947-384-384zM512 103.68c-165.12 0-298.667 133.547-298.667 298.667s133.547 298.667 298.667 298.667c165.12 0 298.667-133.547 298.667-298.667s-133.547-298.667-298.667-298.667zM469.333 445.013h-128v-85.333h128v-128h85.333v128h128v85.333h-128v128h-85.333v-128z" />
<glyph unicode="&#xe914;" glyph-name="add_box" d="M810.667 832h-597.333c-47.36 0-85.333-38.4-85.333-85.333v-597.333c0-46.933 37.973-85.333 85.333-85.333h597.333c46.933 0 85.333 38.4 85.333 85.333v597.333c0 46.933-38.4 85.333-85.333 85.333zM810.667 149.333h-597.333v597.333h597.333v-597.333zM554.667 234.667h-85.333v170.667h-170.667v85.333h170.667v170.667h85.333v-170.667h170.667v-85.333h-170.667v-170.667z" />
<glyph unicode="&#xe915;" glyph-name="add_call" d="M701.013 322.987c47.787-15.787 98.987-24.32 152.32-24.32 23.467 0 42.667-19.2 42.667-42.667v-149.333c0-23.467-19.2-42.667-42.667-42.667-400.64 0-725.333 324.693-725.333 725.333 0 23.467 19.2 42.667 42.667 42.667h149.333c23.467 0 42.667-19.2 42.667-42.667 0-53.333 8.533-104.533 24.32-152.32 4.693-14.933 1.28-31.573-10.667-42.667l-93.867-94.293c61.44-121.173 160.427-219.733 281.173-281.173l93.867 93.867c8.533 8.107 19.2 12.373 30.293 12.373 4.267 0 8.96-0.853 13.227-2.133zM297.813 636.587c-9.813 35.413-16.213 72.533-19.2 110.080h-64c3.84-56.32 14.933-110.080 32-161.707l51.2 51.627zM810.667 150.613c-56.32 3.84-110.933 14.933-162.133 32.427l51.2 51.2c36.267-10.24 73.387-16.64 110.933-19.2v-64.427zM768 832v-128h128v-85.333h-128v-128h-85.333v128h-128v85.333h128v128h85.333z" />
<glyph unicode="&#xe916;" glyph-name="add_circle_outline" d="M512 874.667c235.52 0 426.667-191.147 426.667-426.667s-191.147-426.667-426.667-426.667c-235.52 0-426.667 191.147-426.667 426.667s191.147 426.667 426.667 426.667zM469.333 661.333h85.333v-170.667h170.667v-85.333h-170.667v-170.667h-85.333v170.667h-170.667v85.333h170.667v170.667zM170.667 448c0-188.16 153.173-341.333 341.333-341.333s341.333 153.173 341.333 341.333c0 188.16-153.173 341.333-341.333 341.333s-341.333-153.173-341.333-341.333z" />
<glyph unicode="&#xe917;" glyph-name="add_circle" d="M85.333 448c0 235.52 191.147 426.667 426.667 426.667s426.667-191.147 426.667-426.667c0-235.52-191.147-426.667-426.667-426.667s-426.667 191.147-426.667 426.667zM554.667 405.333h170.667v85.333h-170.667v170.667h-85.333v-170.667h-170.667v-85.333h170.667v-170.667h85.333v170.667z" />
<glyph unicode="&#xe918;" glyph-name="add_comment" d="M938.667 789.333c0 46.933-38.4 85.333-85.333 85.333h-682.667c-46.933 0-85.333-38.4-85.333-85.333v-512c0-46.933 38.4-85.333 85.333-85.333h597.333l170.667-170.667v768zM853.333 227.413l-49.92 49.92h-632.747v512h682.667v-561.92zM469.333 746.667h85.333v-170.667h170.667v-85.333h-170.667v-170.667h-85.333v170.667h-170.667v85.333h170.667v170.667z" />
<glyph unicode="&#xe919;" glyph-name="add_location" d="M512 874.667c-164.693 0-298.667-133.973-298.667-298.667 0-224 298.667-554.667 298.667-554.667s298.667 330.667 298.667 554.667c0 164.693-133.973 298.667-298.667 298.667zM298.667 576c0 117.76 95.573 213.333 213.333 213.333s213.333-95.573 213.333-213.333c0-122.88-122.88-306.773-213.333-421.547-88.747 113.92-213.333 299.947-213.333 421.547zM469.333 618.667v85.333h85.333v-85.333h85.333v-85.333h-85.333v-85.333h-85.333v85.333h-85.333v85.333h85.333z" />
<glyph unicode="&#xe91a;" glyph-name="add_photo_alternate" d="M832 896v-128h128v-85.333h-128v-127.573c0 0-84.907-0.427-85.333 0v127.573h-128c0 0 0.427 84.907 0 85.333h128v128h85.333zM746.667 85.333h-597.333v597.333h384v85.333h-384c-46.933 0-85.333-38.4-85.333-85.333v-597.333c0-46.933 38.4-85.333 85.333-85.333h597.333c46.933 0 85.333 38.4 85.333 85.333v384h-85.333v-384zM414.293 220.587l-83.627 100.693-117.333-150.613h469.333l-151.040 200.96-117.333-151.040z" />
<glyph unicode="&#xe91b;" glyph-name="add_shopping_cart" d="M593.92 554.667h-85.333v128h-127.998v85.333h127.998v128h85.333v-128h128v-85.333h-128v-128zM253.015 85.333c0 46.933 37.973 85.333 84.907 85.333s85.333-38.4 85.333-85.333c0-46.933-38.4-85.333-85.333-85.333s-84.907 38.4-84.907 85.333zM764.587 170.667c-46.933 0-84.907-38.4-84.907-85.333s37.973-85.333 84.907-85.333c46.933 0 85.333 38.4 85.333 85.333s-38.4 85.333-85.333 85.333zM702.72 384h-317.865l-46.933-85.333h511.998v-85.333h-511.998c-64.853 0-105.813 69.547-74.667 126.72l57.6 104.107-153.6 323.84h-85.333v85.333h139.52l181.76-384h299.518l165.12 298.667 74.24-40.96-164.693-299.093c-14.507-26.453-42.667-43.947-74.667-43.947z" />
<glyph unicode="&#xe91c;" glyph-name="add_to_home_screen" d="M362.667 917.333l426.667-0.427c46.933 0 85.333-37.973 85.333-84.907v-768c0-46.933-38.4-85.333-85.333-85.333h-426.667c-46.933 0-85.333 38.4-85.333 85.333v128h85.333v-42.667h426.667v597.333h-426.667v-42.667h-85.333v128c0 46.933 38.4 85.333 85.333 85.333zM533.333 320h-85.333v153.173l-238.507-238.507-60.16 60.16 238.507 238.507h-153.173v85.333h298.667v-298.667z" />
<glyph unicode="&#xe91d;" glyph-name="add_to_photos" d="M341.333 874.667c-46.933 0-85.333-38.4-85.333-85.333v-512c0-46.933 38.4-85.333 85.333-85.333h512c46.933 0 85.333 38.4 85.333 85.333v512c0 46.933-38.4 85.333-85.333 85.333h-512zM85.333 704v-597.333c0-46.933 38.4-85.333 85.333-85.333h597.333v85.333h-597.333v597.333h-85.333zM853.333 277.333h-512v512h512v-512zM640 320v170.667h170.667v85.333h-170.667v170.667h-85.333v-170.667h-170.667v-85.333h170.667v-170.667h85.333z" />
<glyph unicode="&#xe91e;" glyph-name="add_to_queue" d="M896 832c46.933 0 85.333-37.973 85.333-85.333v-512c0-46.933-38.4-85.333-85.333-85.333h-213.333v-85.333h-341.333v85.333h-213.333c-47.36 0-85.333 38.4-85.333 85.333v512c0 47.36 37.973 85.333 85.333 85.333h768zM469.333 320v128h-128v85.333h128v128h85.333v-128h128v-85.333h-128v-128h-85.333zM128 234.667h768v512h-768v-512z" />
<glyph unicode="&#xe91f;" glyph-name="add" d="M512 906.667c35.413 0 64-28.587 64-64v-49.92c133.973-29.013 234.667-148.48 234.667-291.413v-256l85.333-85.333v-42.667h-768v42.667l85.333 85.333v256c0 142.933 100.693 262.4 234.667 291.413v49.92c0 35.413 28.587 64 64 64zM725.333 501.333c0 117.76-95.573 213.333-213.333 213.333s-213.333-95.573-213.333-213.333v-298.667h426.667v298.667zM512-10.667c46.933 0 84.907 37.973 84.907 84.907h-169.813c0-46.933 37.973-84.907 84.907-84.907zM469.333 629.333v-128h-128v-85.333h128v-128h85.333v128h128v85.333h-128v128h-85.333z" />
<glyph unicode="&#xe920;" glyph-name="adjust" d="M512 874.667c-235.093 0-426.667-191.573-426.667-426.667s191.573-426.667 426.667-426.667c235.093 0 426.667 191.573 426.667 426.667s-191.573 426.667-426.667 426.667zM512 106.667c-188.16 0-341.333 153.173-341.333 341.333s153.173 341.333 341.333 341.333c188.16 0 341.333-153.173 341.333-341.333s-153.173-341.333-341.333-341.333zM512 320c70.827 0 128 57.173 128 128s-57.173 128-128 128c-70.827 0-128-57.173-128-128s57.173-128 128-128z" />
<glyph unicode="&#xe921;" glyph-name="airline_seat_flat_angled" d="M200.564 744.533c17.92 8.533 36.693 12.8 55.467 12.8 47.787 0 93.44-26.88 115.627-72.533 30.293-63.573 3.413-139.947-60.16-170.667-17.92-8.533-36.693-12.8-55.467-12.8-47.787 0-93.44 26.88-115.2 72.533-30.72 64-3.84 140.373 59.733 170.667zM294.431 648.107c-8.533 17.493-25.173 23.893-38.4 23.893-6.4 0-12.373-1.707-18.347-4.267-14.080-6.827-19.627-17.92-21.76-23.893-2.133-6.4-5.12-18.773 2.133-33.28 8.107-17.493 25.173-23.893 37.973-23.893 6.4 0 12.373 1.707 18.347 4.267 20.907 10.24 30.293 35.84 20.053 57.173zM817.523 479.147l-285.44 102.827-29.867-81.067 366.507-132.693 0.427 0.853c8.107 21.333 6.827 44.8-2.56 65.28-9.387 20.907-26.88 36.693-49.067 44.8zM426.697 301.227l170.667-61.44v-15.787h-170.667v77.227zM481.31 691.2l-88.745-241.493 527.359-190.72 29.44 80.64c32.853 89.173-13.227 187.307-102.827 219.733l-365.227 131.84zM64.031 431.36l29.44 80.64 811.519-292.693-29.44-80.64-192.853 69.547v-69.547h-341.332v192.853l-277.333 99.84z" />
<glyph unicode="&#xe922;" glyph-name="airline_seat_flat" d="M213.333 426.667c33.28 0 66.133 12.8 91.307 38.4 49.493 50.773 48.64 131.413-1.707 180.907-25.173 24.32-57.6 36.693-89.6 36.693-33.28 0-66.133-12.8-91.307-38.4-49.493-50.773-48.64-131.413 1.707-180.907 25.173-24.32 57.6-36.693 89.6-36.693zM183.040 584.533c8.107 8.107 18.773 12.8 30.293 12.8 11.093 0 21.76-4.267 29.867-11.947 17.067-16.64 17.067-43.093 0.853-60.16-8.533-8.533-19.2-13.227-30.72-13.227-11.093 0-21.76 4.267-29.867 11.947-17.067 17.067-17.067 43.52-0.427 60.587zM384 682.667v-256h554.667v85.333c0 94.293-76.373 170.667-170.667 170.667h-384zM469.333 512v85.333h298.667c46.933 0 85.333-38.4 85.333-85.333h-384zM341.333 213.333h341.333v85.333h256v85.333h-853.333v-85.333h256v-85.333z" />
<glyph unicode="&#xe923;" glyph-name="airline_seat_individual_suite" d="M810.667 661.333c94.293 0 170.667-76.373 170.667-170.667v-256h-938.667v426.667h85.333v-341.333h341.333v341.333h341.333zM426.667 490.667c0-70.827-57.173-128-128-128s-128 57.173-128 128c0 70.827 57.173 128 128 128s128-57.173 128-128zM341.333 490.667c0 23.467-19.2 42.667-42.667 42.667s-42.667-19.2-42.667-42.667c0-23.467 19.2-42.667 42.667-42.667s42.667 19.2 42.667 42.667zM554.667 320h341.333v170.667c0 46.933-38.4 85.333-85.333 85.333h-256v-256z" />
<glyph unicode="&#xe924;" glyph-name="airline_seat_legroom_extra" d="M149.312 832v-384c0-70.827 57.173-128 128-128h256v-85.333h-256c-117.76 0-213.333 95.573-213.333 213.333v384h85.333zM866.112 251.307c31.573 14.507 70.4 3.84 86.613-26.88 17.067-32.427 2.987-72.533-29.867-87.893l-158.72-72.533-145.493 298.667h-298.666c-70.827 0-128 57.173-128 128v341.333h256v-256h149.76c32.427 0 61.867-19.2 76.373-48.213l145.493-297.813 46.507 21.333z" />
<glyph unicode="&#xe925;" glyph-name="airline_seat_legroom_normal" d="M192 832v-384c0-70.827 57.173-128 128-128h256v-85.333h-256c-117.76 0-213.333 95.573-213.333 213.333v384h85.333zM789.333 192h64c35.413 0 64-28.587 64-64s-28.587-64-64-64h-192v298.667h-298.667c-70.4 0-128 57.6-128 128v341.333h256v-256h213.333c46.933 0 85.333-38.4 85.333-85.333v-298.667z" />
<glyph unicode="&#xe926;" glyph-name="airline_seat_legroom_reduced" d="M234.719 832v-384c0-70.827 57.173-128 128-128h170.666v-85.333h-170.666c-117.76 0-213.333 95.573-213.333 213.333v384h85.333zM810.718 64c39.253 0 70.4 35.84 62.72 76.8-5.973 30.293-34.133 51.2-65.28 51.2h-61.44l85.333 298.667c0 46.933-38.4 85.333-85.333 85.333h-213.333v256h-255.999v-341.333c0-70.4 57.6-128 128-128h255.999l-42.667-170.667v-128h192z" />
<glyph unicode="&#xe927;" glyph-name="airline_seat_recline_extra" d="M228.267 698.040c-38.4 27.307-47.787 80.213-20.907 119.040 26.88 38.4 80.213 47.787 119.040 20.907 38.4-27.307 47.787-80.213 20.907-119.040-27.307-38.4-80.213-47.787-119.040-20.907zM682.667 128.013h-301.653c-63.147 0-116.907 46.080-126.293 108.373l-84.053 403.628h-85.333l84.907-416.428c16.213-104.107 105.813-180.907 211.2-180.907h301.227v85.333zM484.267 298.679h208.213l246.187-192-64-64-162.987 128h-292.267c-61.44 0-113.92 43.52-125.867 104.107l-57.6 252.587c-8.96 52.054 26.027 101.974 78.507 111.361h0.853c14.080 2.56 28.587 1.28 42.24-2.56 11.52-3.413 22.613-8.533 32.427-16.213l69.973-54.187c53.333-41.814 130.56-66.561 200.107-53.334v-90.88c-79.787-13.653-152.32 14.080-219.733 52.053l43.947-174.933z" />
<glyph unicode="&#xe928;" glyph-name="airline_seat_recline_normal" d="M323.84 718.4c-33.28 33.28-33.28 87.467 0 120.747s87.467 33.28 120.747 0c33.28-33.28 33.28-87.467 0-120.747-33.707-33.707-87.467-33.707-120.747 0zM256 266.56v384h-85.333v-384c0-117.76 95.573-213.333 213.333-213.333h256v85.333h-256c-70.827 0-128 57.173-128 128zM637.013 309.227l216.32-216.32-61.013-61.013-149.333 149.333h-216.32c-70.827 0-128 57.173-128 128v245.333c0 52.907 43.093 96 96 96h1.28c14.507 0 28.587-3.84 40.96-9.813 11.093-5.12 21.333-12.373 29.44-21.333l59.733-66.133c45.227-49.92 128.427-87.893 199.253-87.040v-92.16c-81.067 0-174.933 43.093-234.667 92.16v-157.013h146.347z" />
<glyph unicode="&#xe929;" glyph-name="airplanemode_active" d="M917.333 277.333v85.333l-341.333 213.333v234.667c0 35.413-28.587 64-64 64s-64-28.587-64-64v-234.667l-341.333-213.333v-85.333l341.333 106.667v-234.667l-85.333-64v-64l149.333 42.667 149.333-42.667v64l-85.333 64v234.667l341.333-106.667z" />
<glyph unicode="&#xe92a;" glyph-name="airplanemode_inactive" d="M917.333 362.667v-85.333l-100.267 31.573-369.067 369.067v132.693c0 35.413 28.587 64 64 64s64-28.587 64-64v-234.667l341.333-213.333zM880.64 124.16l-60.16-60.16-244.48 244.48v-159.147l85.333-64v-64l-149.333 42.667-149.333-42.667v64l85.333 64v234.667l-341.333-106.667v85.333l255.573 159.573-212.907 212.907 60.16 60.16 671.147-671.147z" />
<glyph unicode="&#xe92b;" glyph-name="airplay" d="M128 853.333h768c46.933 0 85.333-38.4 85.333-85.333v-512c0-46.933-38.4-85.333-85.333-85.333h-170.667v85.333h170.667v512h-768v-512h170.667v-85.333h-170.667c-46.933 0-85.333 38.4-85.333 85.333v512c0 46.933 38.4 85.333 85.333 85.333zM512 298.667l256-256h-512l256 256z" />
<glyph unicode="&#xe92c;" glyph-name="airport_shuttle" d="M725.333 746.667l256-256v-213.333h-85.333c0-70.827-57.173-128-128-128s-128 57.173-128 128h-256c0-70.827-57.173-128-128-128s-128 57.173-128 128h-85.333v384c0 47.36 38.4 85.333 85.333 85.333h597.333zM640 661.333v-128h170.667l-128 128h-42.667zM554.667 661.333h-170.667v-128h170.667v128zM128 661.333v-128h170.667v128h-170.667zM202.667 277.333c0-29.44 23.893-53.333 53.333-53.333s53.333 23.893 53.333 53.333c0 29.44-23.893 53.333-53.333 53.333s-53.333-23.893-53.333-53.333zM768 224c29.44 0 53.333 23.893 53.333 53.333s-23.893 53.333-53.333 53.333c-29.44 0-53.333-23.893-53.333-53.333s23.893-53.333 53.333-53.333zM862.72 362.667h33.28v85.333h-768v-85.333h33.28c23.467 26.027 56.747 42.667 94.72 42.667s71.253-16.64 94.72-42.667h322.56c23.467 26.027 57.173 42.667 94.72 42.667s71.253-16.64 94.72-42.667z" />
<glyph unicode="&#xe92d;" glyph-name="alarm_add" d="M284.302 878.711l-196.578-163.994 54.66-65.527 196.582 163.994-54.665 65.527zM739.691 878.685l-54.665-65.527 196.582-163.994 54.665 65.527-196.582 163.994zM128.001 401.289c0-212.053 171.947-384 383.999-384s384 171.947 384 384-171.947 384-384 384c-212.052 0-383.999-171.947-383.999-384zM512 102.622c-164.692 0-298.665 133.973-298.665 298.667s133.973 298.666 298.665 298.666c164.693 0 298.667-133.973 298.667-298.666s-133.973-298.667-298.667-298.667zM469.333 443.955h-127.999v-85.333h127.999v-128h85.333v128h128v85.333h-128v128h-85.333v-128z" />
<glyph unicode="&#xe92e;" glyph-name="alarm_off" d="M348.288 813.012l-19.627-16.213-60.587 60.587 25.6 21.333 54.613-65.707zM749.205 878.676l196.582-163.994-54.665-65.527-196.582 163.994 54.665 65.527zM437.888 687.572c26.453 7.68 54.613 12.373 83.627 12.373 164.693 0 298.667-133.973 298.667-298.665 0-29.013-4.693-57.173-12.373-83.627l66.56-66.56c20.053 46.080 31.147 96.853 31.147 150.187 0 212.052-171.947 383.999-384 383.999-53.333 0-104.106-11.093-150.613-30.72l66.986-66.987zM78.208 806.185l60.16 60.16 784.213-784.639-60.16-60.16-89.6 89.6c-67.413-58.453-155.307-93.867-251.307-93.867-212.053 0-384 171.947-384 384 0 96 35.413 183.892 93.867 251.305l-34.133 34.133-45.227-37.547-54.613 65.707 39.253 32.853-58.453 58.453zM521.515 102.613c-164.693 0-298.666 133.973-298.666 298.667 0 72.533 26.027 139.092 69.12 190.719l420.266-420.265c-51.627-43.093-118.187-69.12-190.72-69.12z" />
<glyph unicode="&#xe92f;" glyph-name="alarm_on" d="M338.967 813.184l-196.582-163.994-54.66 65.527 196.578 163.994 54.665-65.527zM739.691 878.685l-54.665-65.527 196.582-163.994 54.665 65.527-196.582 163.994zM449.707 336.009l210.347 211.2 45.227-45.226-256-256-135.679 135.68 45.227 45.227 90.879-90.88zM512 785.288c212.053 0 384-171.947 384-384s-171.947-384-384-384c-212.052 0-383.999 171.947-383.999 384s171.947 384 383.999 384zM213.335 401.289c0-164.693 133.973-298.667 298.665-298.667s298.667 133.973 298.667 298.667-133.973 298.666-298.667 298.666c-164.692 0-298.665-133.973-298.665-298.666z" />
<glyph unicode="&#xe930;" glyph-name="alarm" d="M338.967 813.184l-196.582-163.994-54.66 65.527 196.578 163.994 54.665-65.527zM739.691 878.685l-54.665-65.527 196.582-163.994 54.665 65.527-196.582 163.994zM533.333 614.621v-224l170.667-101.12-32-52.48-202.667 121.6v256h64zM512 785.288c212.053 0 384-171.947 384-384s-171.947-384-384-384c-212.052 0-383.999 171.947-383.999 384s171.947 384 383.999 384zM213.335 401.289c0-164.693 133.973-298.667 298.665-298.667s298.667 133.973 298.667 298.667-133.973 298.666-298.667 298.666c-164.692 0-298.665-133.973-298.665-298.666z" />
<glyph unicode="&#xe931;" glyph-name="album" d="M85.333 448c0 235.52 191.147 426.667 426.667 426.667s426.667-191.147 426.667-426.667c0-235.52-191.147-426.667-426.667-426.667s-426.667 191.147-426.667 426.667zM170.667 448c0-188.16 153.173-341.333 341.333-341.333s341.333 153.173 341.333 341.333c0 188.16-153.173 341.333-341.333 341.333s-341.333-153.173-341.333-341.333zM512 640c-106.24 0-192-85.76-192-192s85.76-192 192-192c106.24 0 192 85.76 192 192s-85.76 192-192 192zM469.333 448c0-23.467 19.2-42.667 42.667-42.667s42.667 19.2 42.667 42.667c0 23.467-19.2 42.667-42.667 42.667s-42.667-19.2-42.667-42.667z" />
<glyph unicode="&#xe932;" glyph-name="all_inbox" d="M810.667 832h-597.333c-46.933 0-85.333-38.4-85.333-85.333v-298.667c0-46.933 38.4-85.333 85.333-85.333h597.333c46.933 0 85.333 38.4 85.333 85.333v298.667c0 46.933-38.4 85.333-85.333 85.333zM213.333 533.333h133.547c8.96-33.28 28.587-62.72 54.187-85.333h-187.733v85.333zM622.933 448h187.733v85.333h-133.547c-8.96-33.28-28.587-62.72-54.187-85.333zM810.667 618.667h-213.333v-42.667c0-45.653-39.68-85.333-85.333-85.333s-85.333 39.68-85.333 85.333v42.667h-213.333v128h597.333v-128zM597.333 320h298.667v-170.667c0-46.933-38.4-85.333-85.333-85.333h-597.333c-46.933 0-85.333 38.4-85.333 85.333v170.667h298.667v-42.667c0-20.053 8.107-38.4 20.48-53.333 15.787-19.2 39.253-32 64.853-32s49.067 12.8 64.853 32c12.373 14.933 20.48 33.28 20.48 53.333v42.667zM213.333 234.667h133.547c0.603-2.714 1.633-5.214 2.637-7.654 0.416-1.011 0.828-2.014 1.203-3.012 10.24-29.013 27.733-54.613 50.347-74.667h-187.733v85.333zM622.933 149.333h187.733v85.333h-133.547c-0.602-2.714-1.634-5.214-2.637-7.654-0.418-1.011-0.828-2.014-1.203-3.012-9.813-29.013-27.307-54.613-50.347-74.667z" />
<glyph unicode="&#xe933;" glyph-name="all_inclusive" d="M793.6 677.547c-61.44 0-119.467-23.893-160.853-65.28l-299.947-266.24c-27.307-27.307-63.573-42.24-102.4-42.24-79.787 0-144.64 64.427-144.64 144.213s64.853 144.213 144.64 144.213c38.827 0 75.093-14.933 104.107-43.947l48.213-42.667 64.427 57.173-53.76 47.36c-43.52 43.52-101.547 67.413-162.987 67.413-127.147 0-230.4-103.253-230.4-229.547s103.253-229.547 230.4-229.547c61.44 0 119.467 23.893 160.853 65.28l299.947 266.24c27.307 27.307 63.573 42.24 102.4 42.24 79.787 0 144.64-64.427 144.64-144.213s-64.853-144.213-144.64-144.213c-38.4 0-75.093 14.933-104.107 43.947l-48.64 43.093-64.427-57.173 54.187-47.787c43.52-43.093 101.12-66.987 162.987-66.987 127.147 0 230.4 102.827 230.4 229.547s-103.253 229.12-230.4 229.12v0z" />
<glyph unicode="&#xe934;" glyph-name="all_out" d="M170.667 618.667l170.667 170.667h-170.667v-170.667zM853.333 618.667v170.667h-170.667l170.667-170.667zM853.333 106.667h-170.667l170.667 170.667v-170.667zM341.333 106.667l-170.667 170.667v-170.667h170.667zM810.667 448c0-165.12-133.547-298.667-298.667-298.667s-298.667 133.547-298.667 298.667c0 165.12 133.547 298.667 298.667 298.667s298.667-133.547 298.667-298.667zM298.667 448c0-117.76 95.573-213.333 213.333-213.333s213.333 95.573 213.333 213.333c0 117.76-95.573 213.333-213.333 213.333s-213.333-95.573-213.333-213.333z" />
<glyph unicode="&#xe935;" glyph-name="alternate_email" d="M85.333 448c0 235.52 191.147 426.667 426.667 426.667s426.667-191.147 426.667-426.667v-61.013c0-84.053-65.28-152.32-149.333-152.32-50.773 0-98.56 24.747-126.293 62.72-38.4-38.827-92.16-62.72-151.040-62.72-117.76 0-213.333 95.573-213.333 213.333s95.573 213.333 213.333 213.333c117.76 0 213.333-95.573 213.333-213.333v-61.013c0-33.707 30.293-66.987 64-66.987s64 33.28 64 66.987v61.013c0 185.173-156.16 341.333-341.333 341.333s-341.333-156.16-341.333-341.333c0-185.173 156.16-341.333 341.333-341.333h213.333v-85.333h-213.333c-235.52 0-426.667 191.147-426.667 426.667zM384 448c0-70.827 57.173-128 128-128s128 57.173 128 128c0 70.827-57.173 128-128 128s-128-57.173-128-128z" />
<glyph unicode="&#xe936;" glyph-name="android-1" d="M750.933 555.52l78.507 135.68c6.827 13.227 1.707 29.44-11.093 36.267-12.373 6.4-27.733 2.56-35.413-9.387l-80.213-138.24c-122.027 51.627-259.413 51.627-381.44 0l-80.213 138.24c-8.107 12.373-24.747 16.213-37.12 8.533-11.947-7.68-15.787-23.040-9.387-35.413l78.507-135.68c-132.267-75.52-218.453-211.627-230.4-363.52h938.667c-11.947 151.893-98.133 288-230.4 363.52zM298.667 309.333c-29.44 0-53.333 23.893-53.333 53.333s23.893 53.333 53.333 53.333c29.44 0 53.333-23.893 53.333-53.333s-23.893-53.333-53.333-53.333zM725.333 309.333c-29.44 0-53.333 23.893-53.333 53.333s23.893 53.333 53.333 53.333c29.44 0 53.333-23.893 53.333-53.333s-23.893-53.333-53.333-53.333z" />
<glyph unicode="&#xe937;" glyph-name="android" d="M718.080 923.307l-55.467-55.467c64-46.507 105.387-121.6 105.387-206.507h-512c0 84.907 41.387 159.573 104.533 206.080l-55.893 55.893c-8.533 8.533-8.533 21.76 0 30.293s21.76 8.533 30.293 0l63.573-63.147c34.133 17.067 72.533 26.88 113.493 26.88 40.533 0 78.933-9.813 112.64-26.88l63.147 63.147c8.533 8.533 21.76 8.533 30.293 0s8.533-21.76 0-30.293zM85.333 554.667c0 35.413 28.587 64 64 64s64-28.587 64-64v-298.667c0-35.413-28.587-64-64-64s-64 28.587-64 64v298.667zM298.667 149.333c-23.467 0-42.667 19.2-42.667 42.667v426.667h512v-426.667c0-23.467-19.2-42.667-42.667-42.667h-42.667v-149.333c0-35.413-28.587-64-64-64s-64 28.587-64 64v149.333h-85.333v-149.333c0-35.413-28.587-64-64-64s-64 28.587-64 64v149.333h-42.667zM874.667 618.667c-35.413 0-64-28.587-64-64v-298.667c0-35.413 28.587-64 64-64s64 28.587 64 64v298.667c0 35.413-28.587 64-64 64zM426.667 746.667h-42.667v42.667h42.667v-42.667zM597.333 746.667h42.667v42.667h-42.667v-42.667z" />
<glyph unicode="&#xe938;" glyph-name="announcement" d="M170.667 874.667h682.667c46.933 0 85.333-38.4 85.333-85.333v-512c0-46.933-38.4-85.333-85.333-85.333h-597.333l-170.667-170.667v768c0 46.933 38.4 85.333 85.333 85.333zM220.587 277.333h632.747v512h-682.667v-561.92l49.92 49.92zM469.333 746.667h85.333v-256h-85.333v256zM554.667 405.333h-85.333v-85.333h85.333v85.333z" />
<glyph unicode="&#xe939;" glyph-name="apps" d="M170.667 618.667h170.667v170.667h-170.667v-170.667zM426.667 106.667h170.667v170.667h-170.667v-170.667zM341.333 106.667h-170.667v170.667h170.667v-170.667zM170.667 362.667h170.667v170.667h-170.667v-170.667zM597.333 362.667h-170.667v170.667h170.667v-170.667zM682.667 789.333v-170.667h170.667v170.667h-170.667zM597.333 618.667h-170.667v170.667h170.667v-170.667zM682.667 362.667h170.667v170.667h-170.667v-170.667zM853.333 106.667h-170.667v170.667h170.667v-170.667z" />
<glyph unicode="&#xe93a;" d="M1024 448c0-282.77-229.23-512-512-512s-512 229.23-512 512c0 282.77 229.23 512 512 512s512-229.23 512-512z" />
<glyph unicode="&#xe93b;" d="M153.599 806.401h716.8v-702.097h-716.8v702.097z" />
<glyph unicode="&#xe93c;" glyph-name="archive" d="M817.067 808.533c-11.52 14.507-29.013 23.467-49.067 23.467h-512c-20.053 0-37.547-8.96-49.493-23.467l-58.88-71.68c-12.373-14.507-19.627-33.707-19.627-54.187v-533.333c0-46.933 38.4-85.333 85.333-85.333h597.333c46.933 0 85.333 38.4 85.333 85.333v533.333c0 20.48-7.253 39.68-19.627 54.187l-59.307 71.68zM757.76 746.667l34.56-41.387h-560.213l34.133 41.387h491.52zM213.333 149.333v469.333h597.333v-469.333h-597.333zM450.133 533.333v-128h-108.8l170.667-170.667 170.667 170.667h-108.8v128h-123.733z" />
<glyph unicode="&#xe93d;" glyph-name="arrow_back_ios" d="M760.96 794.881l-75.947 75.52-421.972-422.401 422.398-422.4 75.52 75.52-346.878 346.88 346.878 346.881z" />
<glyph unicode="&#xe93e;" glyph-name="arrow_back" d="M853.333 490.667h-519.253l238.507 238.507-60.587 60.16-341.333-341.333 341.333-341.333 60.16 60.16-238.080 238.507h519.253v85.333z" />
<glyph unicode="&#xe93f;" glyph-name="arrow_downward" d="M853.333 448l-60.16 60.16-238.507-238.080v519.253h-85.333v-519.253l-238.080 238.507-60.587-60.587 341.333-341.333 341.333 341.333z" />
<glyph unicode="&#xe940;" glyph-name="arrow_drop_down_circle" d="M512 874.667c-235.52 0-426.667-191.147-426.667-426.667s191.147-426.667 426.667-426.667c235.52 0 426.667 191.147 426.667 426.667s-191.147 426.667-426.667 426.667zM512 789.333c188.16 0 341.333-153.173 341.333-341.333s-153.173-341.333-341.333-341.333c-188.16 0-341.333 153.173-341.333 341.333s153.173 341.333 341.333 341.333zM341.333 490.667l170.667-170.667 170.667 170.667h-341.333z" />
<glyph unicode="&#xe941;" glyph-name="arrow_drop_down" d="M298.667 554.667l213.333-213.333 213.333 213.333h-426.667z" />
<glyph unicode="&#xe942;" glyph-name="arrow_drop_up" d="M298.667 341.333l213.333 213.333 213.333-213.333h-426.667z" />
<glyph unicode="&#xe943;" glyph-name="arrow_forward_ios" d="M263.042 101.12l75.52-75.52 422.398 422.4-422.398 422.401-75.52-75.52 346.878-346.881-346.878-346.88z" />
<glyph unicode="&#xe944;" glyph-name="arrow_forward" d="M512 789.333l-60.16-60.16 238.080-238.507h-519.253v-85.333h519.253l-238.080-238.507 60.16-60.16 341.333 341.333-341.333 341.333z" />
<glyph unicode="&#xe945;" glyph-name="arrow_left" d="M618.667 661.333l-213.333-213.333 213.333-213.333v426.667z" />
<glyph unicode="&#xe946;" glyph-name="arrow_right_alt" d="M683.093 490.667h-512.427v-85.333h512.427v-128l170.24 170.667-170.24 170.667v-128z" />
<glyph unicode="&#xe947;" glyph-name="arrow_right" d="M405.333 234.667l213.333 213.333-213.333 213.333v-426.667z" />
<glyph unicode="&#xe948;" glyph-name="arrow_upward" d="M170.667 448l60.16-60.16 238.507 238.080v-519.253h85.333v519.253l238.080-238.507 60.587 60.587-341.333 341.333-341.333-341.333z" />
<glyph unicode="&#xe949;" glyph-name="art_track" d="M426.667 661.333h-256c-46.933 0-85.333-38.4-85.333-85.333v-256c0-46.933 38.4-85.333 85.333-85.333h256c46.933 0 85.333 38.4 85.333 85.333v256c0 46.933-38.4 85.333-85.333 85.333zM938.667 661.333v-85.333h-341.333v85.333h341.333zM938.667 405.333v85.333h-341.333v-85.333h341.333zM938.667 234.667v85.333h-341.333v-85.333h341.333zM352 448l96-128h-298.667l74.667 96 53.333-64.427 74.667 96.427z" />
<glyph unicode="&#xe94a;" glyph-name="aspect_ratio" d="M896 832c46.933 0 85.333-38.4 85.333-85.333v-597.333c0-46.933-38.4-85.333-85.333-85.333h-768c-46.933 0-85.333 38.4-85.333 85.333v597.333c0 46.933 38.4 85.333 85.333 85.333h768zM426.667 576v85.333h-213.333v-213.333h85.333v128h128zM725.333 448v-128h-128v-85.333h213.333v213.333h-85.333zM128 148.907h768v598.187h-768v-598.187z" />
<glyph unicode="&#xe94b;" glyph-name="assessment" d="M810.667 832h-597.333c-46.933 0-85.333-38.4-85.333-85.333v-597.333c0-46.933 38.4-85.333 85.333-85.333h597.333c46.933 0 85.333 38.4 85.333 85.333v597.333c0 46.933-38.4 85.333-85.333 85.333zM810.667 149.333h-597.333v597.333h597.333v-597.333zM384 533.333h-85.333v-298.667h85.333v298.667zM469.333 661.333h85.333v-426.667h-85.333v426.667zM725.333 405.333h-85.333v-170.667h85.333v170.667z" />
<glyph unicode="&#xe94c;" glyph-name="assignment_ind" d="M810.667 789.333c46.933 0 85.333-38.4 85.333-85.333v-597.333c0-46.933-38.4-85.333-85.333-85.333h-597.333c-46.933 0-85.333 38.4-85.333 85.333v597.333c0 46.933 38.4 85.333 85.333 85.333h178.347c17.92 49.493 64.853 85.333 120.32 85.333s102.4-35.84 120.32-85.333h178.347zM512 800c-9.387 0-17.493-4.267-23.467-10.667-5.12-5.547-8.533-13.227-8.533-21.333 0-17.493 14.507-32 32-32s32 14.507 32 32c0 8.107-3.413 15.787-8.533 21.333-5.973 6.4-14.080 10.667-23.467 10.667zM213.333 704v-597.333h597.333v597.333h-597.333zM512 661.333c70.4 0 128-57.6 128-128s-57.6-128-128-128c-70.4 0-128 57.6-128 128s57.6 128 128 128zM469.333 533.333c0-23.467 19.2-42.667 42.667-42.667s42.667 19.2 42.667 42.667c0 23.467-19.2 42.667-42.667 42.667s-42.667-19.2-42.667-42.667zM256 214.613c0 107.093 169.387 152.747 256 152.747s256-46.080 256-152.747v-65.28h-512v65.28zM512 282.453c-55.893 0-128-23.893-157.44-47.787h314.88c-29.013 23.893-101.547 47.787-157.44 47.787z" />
<glyph unicode="&#xe94d;" glyph-name="assignment_late" d="M632.32 789.333h178.347c46.933 0 85.333-38.4 85.333-85.333v-597.333c0-46.933-38.4-85.333-85.333-85.333h-597.333c-5.973 0-11.52 0.427-17.067 1.28-16.64 3.413-31.573 11.947-43.093 23.467-7.68 8.107-14.080 17.067-18.347 27.307s-6.827 21.76-6.827 33.28v597.333c0 11.947 2.56 23.040 6.827 32.853 4.267 10.24 10.667 19.627 18.347 27.307 11.52 11.52 26.453 20.053 43.093 23.467 5.547 1.28 11.093 1.707 17.067 1.707h178.347c17.92 49.493 64.853 85.333 120.32 85.333s102.4-35.84 120.32-85.333zM469.333 362.667v256h85.333v-256h-85.333zM469.333 192v85.333h85.333v-85.333h-85.333zM512 800c17.493 0 32-14.507 32-32s-14.507-32-32-32c-17.493 0-32 14.507-32 32s14.507 32 32 32zM213.333 106.667h597.333v597.333h-597.333v-597.333z" />
<glyph unicode="&#xe94e;" glyph-name="assignment_return" d="M632.32 789.333h178.347c46.933 0 85.333-38.4 85.333-85.333v-597.333c0-46.933-38.4-85.333-85.333-85.333h-597.333c-5.973 0-11.52 0.427-17.067 1.28-16.64 3.413-31.573 11.947-43.093 23.467-7.68 8.107-14.080 17.067-18.347 27.307s-6.827 21.76-6.827 33.28v597.333c0 11.947 2.56 23.040 6.827 32.853 4.267 10.24 10.667 19.627 18.347 27.307 11.52 11.52 26.453 20.053 43.093 23.467 5.547 1.28 11.093 1.707 17.067 1.707h178.347c17.92 49.493 64.853 85.333 120.32 85.333s102.4-35.84 120.32-85.333zM682.667 320h-170.667v-128l-213.333 213.333 213.333 213.333v-128h170.667v-170.667zM512 800c17.493 0 32-14.507 32-32s-14.507-32-32-32c-17.493 0-32 14.507-32 32s14.507 32 32 32zM213.333 106.667h597.333v597.333h-597.333v-597.333z" />
<glyph unicode="&#xe94f;" glyph-name="assignment_returned" d="M632.32 789.333h178.347c46.933 0 85.333-38.4 85.333-85.333v-597.333c0-46.933-38.4-85.333-85.333-85.333h-597.333c-5.973 0-11.52 0.427-17.067 1.28-16.64 3.413-31.573 11.947-43.093 23.467-7.68 8.107-14.080 17.067-18.347 27.307s-6.827 21.76-6.827 33.28v597.333c0 11.947 2.56 23.040 6.827 32.853 4.267 10.24 10.667 19.627 18.347 27.307 11.52 11.52 26.453 20.053 43.093 23.467 5.547 1.28 11.093 1.707 17.067 1.707h178.347c17.92 49.493 64.853 85.333 120.32 85.333s102.4-35.84 120.32-85.333zM597.333 405.333h128l-213.333-213.333-213.333 213.333h128v170.667h170.667v-170.667zM512 800c17.493 0 32-14.507 32-32s-14.507-32-32-32c-17.493 0-32 14.507-32 32s14.507 32 32 32zM213.333 106.667h597.333v597.333h-597.333v-597.333z" />
<glyph unicode="&#xe950;" glyph-name="assignment_turned_in" d="M632.32 789.333h178.347c46.933 0 85.333-38.4 85.333-85.333v-597.333c0-46.933-38.4-85.333-85.333-85.333h-597.333c-5.973 0-11.52 0.427-17.067 1.28-16.64 3.413-31.573 11.947-43.093 23.467-7.68 8.107-14.080 17.067-18.347 27.307s-6.827 21.76-6.827 33.28v597.333c0 11.947 2.56 23.040 6.827 32.853 4.267 10.24 10.667 19.627 18.347 27.307 11.52 11.52 26.453 20.053 43.093 23.467 5.547 1.28 11.093 1.707 17.067 1.707h178.347c17.92 49.493 64.853 85.333 120.32 85.333s102.4-35.84 120.32-85.333zM707.84 593.92l60.16-60.587-341.333-341.333-170.667 170.667 60.16 60.16 110.507-110.080 281.173 281.173zM512 800c17.493 0 32-14.507 32-32s-14.507-32-32-32c-17.493 0-32 14.507-32 32s14.507 32 32 32zM213.333 106.667h597.333v597.333h-597.333v-597.333z" />
<glyph unicode="&#xe951;" glyph-name="assignment" d="M632.32 789.333h178.347c46.933 0 85.333-38.4 85.333-85.333v-597.333c0-46.933-38.4-85.333-85.333-85.333h-597.333c-5.973 0-11.52 0.427-17.067 1.28-16.64 3.413-31.573 11.947-43.093 23.467-7.68 8.107-14.080 17.067-18.347 27.307s-6.827 21.76-6.827 33.28v597.333c0 11.947 2.56 23.040 6.827 32.853 4.267 10.24 10.667 19.627 18.347 27.307 11.52 11.52 26.453 20.053 43.093 23.467 5.547 1.28 11.093 1.707 17.067 1.707h178.347c17.92 49.493 64.853 85.333 120.32 85.333s102.4-35.84 120.32-85.333zM298.667 533.333v85.333h426.667v-85.333h-426.667zM725.333 362.667v85.333h-426.667v-85.333h426.667zM597.333 277.333h-298.667v-85.333h298.667v85.333zM512 800c17.493 0 32-14.507 32-32s-14.507-32-32-32c-17.493 0-32 14.507-32 32s14.507 32 32 32zM213.333 106.667h597.333v597.333h-597.333v-597.333z" />
<glyph unicode="&#xe952;" glyph-name="assistant_photo" d="M192 810.667h384l17.067-85.333h238.933v-426.667h-298.667l-17.067 85.333h-238.933v-298.667h-85.333v725.333zM509.44 708.693l-3.413 16.64h-228.693v-256h308.907l13.653-68.693 3.413-16.64h143.36v256h-223.573l-13.653 68.693z" />
<glyph unicode="&#xe953;" glyph-name="assistant" d="M810.667 896h-597.333c-46.933 0-85.333-38.4-85.333-85.333v-597.333c0-46.933 38.4-85.333 85.333-85.333h170.667l128-128 128 128h170.667c46.933 0 85.333 38.4 85.333 85.333v597.333c0 46.933-38.4 85.333-85.333 85.333zM810.667 213.333h-206.080l-92.587-92.587-92.587 92.587h-206.080v597.333h597.333v-597.333zM592.213 431.787l-80.213-175.787-80.213 175.787-175.787 80.213 175.787 80.213 80.213 175.787 80.213-175.787 175.787-80.213-175.787-80.213z" />
<glyph unicode="&#xe954;" glyph-name="atm" d="M128 576h128c23.467 0 42.667-19.2 42.667-42.667v-213.333h-64v64h-85.333v-64h-64v213.333c0 23.467 19.2 42.667 42.667 42.667zM341.333 512v64h256v-64h-96v-192h-64v192h-96zM234.667 448h-85.333v64h85.333v-64zM704 576h192c23.467 0 42.667-19.2 42.667-42.667v-213.333h-64v192.427h-42.667v-149.76h-64v149.333h-42.667v-192h-64v213.333c0 23.467 19.2 42.667 42.667 42.667z" />
<glyph unicode="&#xe955;" glyph-name="attach_file" d="M682.667 704v-490.667c0-94.293-76.373-170.667-170.667-170.667s-170.667 76.373-170.667 170.667v533.333c0 58.88 47.787 106.667 106.667 106.667s106.667-47.787 106.667-106.667v-448c0-23.467-19.2-42.667-42.667-42.667s-42.667 19.2-42.667 42.667v405.333h-64v-405.333c0-58.88 47.787-106.667 106.667-106.667s106.667 47.787 106.667 106.667v448c0 94.293-76.373 170.667-170.667 170.667s-170.667-76.373-170.667-170.667v-533.333c0-129.707 104.96-234.667 234.667-234.667s234.667 104.96 234.667 234.667v490.667h-64z" />
<glyph unicode="&#xe956;" glyph-name="attach_money" d="M528.64 494.933c-96.853 25.173-128 51.2-128 91.733 0 46.507 43.093 78.933 115.2 78.933 75.947 0 104.107-36.267 106.667-89.6h94.293c-2.987 73.387-47.787 140.8-136.96 162.56v93.44h-128v-92.16c-82.773-17.92-149.333-71.68-149.333-154.027 0-98.56 81.493-147.627 200.533-176.213 106.667-25.6 128-63.147 128-102.827 0-29.44-20.907-76.373-115.2-76.373-87.893 0-122.453 39.253-127.147 89.6h-93.867c5.12-93.44 75.093-145.92 157.013-163.413v-92.587h128v91.733c83.2 15.787 149.333 64 149.333 151.467 0 121.173-103.68 162.56-200.533 187.733z" />
<glyph unicode="&#xe957;" glyph-name="attachment" d="M768 277.333h-490.667c-94.293 0-170.667 76.373-170.667 170.667s76.373 170.667 170.667 170.667h533.333c58.88 0 106.667-47.787 106.667-106.667s-47.787-106.667-106.667-106.667h-448c-23.467 0-42.667 19.2-42.667 42.667s19.2 42.667 42.667 42.667h405.333v64h-405.333c-58.88 0-106.667-47.787-106.667-106.667s47.787-106.667 106.667-106.667h448c94.293 0 170.667 76.373 170.667 170.667s-76.373 170.667-170.667 170.667h-533.333c-129.707 0-234.667-104.96-234.667-234.667s104.96-234.667 234.667-234.667h490.667v64z" />
<glyph unicode="&#xe958;" glyph-name="attribution" d="M85.333 448c0-235.947 190.72-426.667 426.667-426.667s426.667 191.147 426.667 426.667c0 235.52-191.147 426.667-426.667 426.667-235.947 0-426.667-190.72-426.667-426.667zM394.667 538.453v-197.12h64v-192h106.667v192h64v197.12c0 38.827-78.507 58.88-117.333 58.88s-117.333-19.627-117.333-58.88zM512 106.667c-188.587 0-341.333 152.747-341.333 341.333s152.747 341.333 341.333 341.333c188.587 0 341.333-152.747 341.333-341.333s-152.747-341.333-341.333-341.333zM448 682.667c0-35.346 28.655-64 64-64s64 28.654 64 64c0 35.346-28.655 64-64 64s-64-28.654-64-64z" />
<glyph unicode="&#xe959;" glyph-name="audiotrack" d="M512 381.867v450.133h256v-170.667h-170.667v-426.667c0-94.293-76.373-170.667-170.667-170.667s-170.667 76.373-170.667 170.667c0 94.293 76.373 170.667 170.667 170.667 31.147 0 60.16-8.96 85.333-23.467zM341.333 234.667c0-46.933 38.4-85.333 85.333-85.333s85.333 38.4 85.333 85.333c0 46.933-38.4 85.333-85.333 85.333s-85.333-38.4-85.333-85.333z" />
<glyph unicode="&#xe95a;" glyph-name="autorenew" d="M512 576v128c-141.227 0-256-114.773-256-256 0-43.093 10.667-84.053 29.867-119.467l-62.293-62.293c-33.28 52.48-52.907 114.773-52.907 181.76 0 188.587 152.747 341.333 341.333 341.333v128l170.667-170.667-170.667-170.667zM738.133 567.467l62.293 62.293c33.28-52.48 52.907-114.773 52.907-181.76 0-188.587-152.747-341.333-341.333-341.333v-128l-170.667 170.667 170.667 170.667v-128c141.227 0 256 114.773 256 256 0 43.093-11.093 83.627-29.867 119.467z" />
<glyph unicode="&#xe95b;" glyph-name="backspace" d="M938.667 832h-640c-29.44 0-52.48-14.933-67.84-37.547l-230.827-346.453 230.827-346.027c15.36-22.613 38.4-37.973 67.84-37.973h640c46.933 0 85.333 38.4 85.333 85.333v597.333c0 46.933-38.4 85.333-85.333 85.333zM938.667 149.333h-637.013l-199.253 298.667 198.827 298.667h637.44v-597.333zM597.333 387.84l-153.173-153.173-60.16 60.16 153.173 153.173-153.173 153.173 60.16 60.16 153.173-153.173 153.173 153.173 60.16-60.16-153.173-153.173 153.173-153.173-60.16-60.16-153.173 153.173z" />
<glyph unicode="&#xe95c;" glyph-name="backup" d="M825.6 531.627c-29.013 147.2-158.293 257.707-313.6 257.707-123.307 0-230.4-69.973-283.733-172.373-128.427-13.653-228.267-122.453-228.267-254.293 0-141.227 114.773-256 256-256h554.667c117.76 0 213.333 95.573 213.333 213.333 0 112.64-87.467 203.947-198.4 211.627zM810.667 192h-554.667c-94.293 0-170.667 76.373-170.667 170.667 0 87.467 65.28 160.427 151.893 169.387l45.653 4.693 21.333 40.533c40.533 78.080 119.893 126.72 207.787 126.72 111.787 0 208.213-79.36 229.973-189.013l12.8-64 65.28-4.693c66.56-4.267 118.613-60.16 118.613-126.293 0-70.4-57.6-128-128-128zM450.133 405.333h-108.8l170.667 170.667 170.667-170.667h-108.8v-128h-123.733v128z" />
<glyph unicode="&#xe95d;" glyph-name="ballot" d="M810.667 832c46.933 0 85.333-38.4 85.333-85.333v-597.333c0-46.933-38.4-85.333-85.333-85.333h-597.333c-46.933 0-85.333 38.4-85.333 85.333v597.333c0 46.933 38.4 85.333 85.333 85.333h597.333zM768 640v-85.333h-213.333v85.333h213.333zM768 341.333v-85.333h-213.333v85.333h213.333zM213.333 149.333h597.333v597.333h-597.333v-597.333zM469.333 704v-213.333h-213.333v213.333h213.333zM298.667 533.333h128v128h-128v-128zM469.333 405.333v-213.333h-213.333v213.333h213.333zM298.667 234.667h128v128h-128v-128z" />
<glyph unicode="&#xe95e;" glyph-name="bar_chart" d="M452.267 746.667h119.467v-597.333h-119.467v597.333zM213.333 567.467h128v-418.133h-128v418.133zM810.667 405.333h-119.467v-256h119.467v256z" />
<glyph unicode="&#xe95f;" glyph-name="baseball" d="M259.553 791.721c5.504-9.947 11.022-20.605 16.342-31.973 7.296-15.106 14.407-31.092 21.162-47.96l-26.837-80.644c-3.030-9.237 1.948-19.369 11.378-22.382 1.778-0.54 3.726-0.895 5.504-0.895 7.466 0 14.393 4.803 16.896 12.263l12.445 37.302c6.386-20.434 12.444-41.565 17.422-63.066l-49.962-74.96c-5.518-8.171-3.2-19.184 4.978-24.513 3.015-2.131 6.4-3.013 9.785-3.013 5.675 0 11.378 2.657 14.749 7.816l30.222 45.288c4.807-29.486 7.822-59.143 8.178-88.274l-72.178-54.541c-7.993-5.852-9.415-17.050-3.556-24.868 5.86-7.813 17.067-9.405 24.889-3.369l49.607 37.304c-1.962-31.974-6.94-63.775-13.526-94.684l-79.459-42.803c-8.534-4.618-11.734-15.457-7.111-23.987 4.622-8.694 15.46-11.894 24.007-7.276l50.845 27.525c-14.052-49.551-32.185-95.022-50.674-132.68-5.504-11.366-11.022-22.026-16.711-31.805-108.445 80.118-172.615 206.945-172.615 342.472 0 136.249 64.882 263.603 174.222 343.72zM719.811 116.726c5.693-11.366 11.382-21.852 16.712-31.616-67.369-41.748-144.712-63.775-224.524-63.775-79.83 0-157.17 22.026-224.541 63.775 5.334 9.764 11.022 20.25 16.711 31.616 19.911 40.315 39.822 89.528 54.941 143.345l27.548-50.975c3.2-6.042 9.43-9.421 15.645-9.421 2.845 0 5.859 0.712 8.534 2.13 8.533 4.618 11.733 15.462 7.111 24.156l-46.052 85.094c6.585 30.013 11.378 60.749 13.696 91.827l33.066-37.658c3.556-3.907 8.534-6.042 13.341-6.042 4.266 0 8.348 1.423 11.719 4.449 7.481 6.395 8.178 17.577 1.778 25.042l-58.126 66.076c-0.17 31.263-3.37 63.421-8.533 95.039l50.489-34.461c8.178-5.513 19.2-3.382 24.718 4.619 5.505 8.171 3.556 19.184-4.622 24.684l-80.37 55.065c-6.926 30.197-15.63 59.683-25.060 87.579l67.726-20.25c9.43-2.842 19.385 2.487 22.058 11.894 2.83 9.237-2.503 19.184-11.733 22.026l-93.881 28.25c-7.282 17.933-14.748 34.986-22.57 50.973-5.504 11.198-11.022 21.671-16.54 31.618 67.029 41.21 143.829 62.881 222.947 62.881 79.106 0 155.906-21.67 222.932-62.881-5.519-9.947-11.023-20.42-16.538-31.618-7.823-15.987-15.288-33.039-22.574-50.973l-93.88-28.25c-9.231-2.842-14.561-12.789-11.72-22.026 2.662-9.407 12.616-14.736 22.047-11.894l67.727 20.25c-9.416-27.895-18.135-57.381-25.062-87.579l-80.369-55.065c-8.177-5.499-10.127-16.513-4.623-24.684 5.519-8.001 16.543-10.132 24.719-4.619l50.488 34.461c-5.146-31.619-8.361-63.776-8.535-95.039l-58.122-66.076c-6.4-7.465-5.688-18.647 1.777-25.042 3.369-3.026 7.45-4.449 11.735-4.449 4.792 0 9.769 2.135 13.322 6.042l33.070 37.658c2.314-31.078 7.112-61.814 13.696-91.827l-46.054-85.094c-4.623-8.694-1.423-19.538 7.112-24.156 2.673-1.418 5.688-2.13 8.535-2.13 6.216 0 12.442 3.379 15.642 9.421l27.566 50.975c15.104-53.816 35.016-103.030 54.922-143.345zM748.088 759.748c5.33 11.368 10.834 22.026 16.353 31.973 109.327-80.118 174.223-207.471 174.223-343.72 0-135.527-64.184-262.354-172.631-342.472-5.688 9.779-11.208 20.439-16.712 31.805-18.488 37.658-36.618 83.128-50.657 132.68l50.831-27.525c8.545-4.618 19.384-1.418 24.008 7.276 4.618 8.53 1.418 19.369-7.112 23.987l-79.462 42.803c-6.584 30.909-11.561 62.71-13.512 94.684l49.592-37.304c7.823-6.036 19.031-4.444 24.893 3.369 5.873 7.818 4.434 19.016-3.558 24.868l-72.177 54.541c0.353 29.131 3.384 58.788 8.177 88.274l30.223-45.288c3.369-5.158 9.057-7.816 14.761-7.816 3.374 0 6.758 0.881 9.774 3.013 8.177 5.329 10.496 16.342 4.977 24.513l-49.966 74.96c4.992 21.5 11.039 42.631 17.439 63.066l12.447-37.302c2.488-7.46 9.411-12.263 16.881-12.263 1.777 0 3.727 0.355 5.504 0.895 9.426 3.013 14.408 13.145 11.392 22.382l-26.854 80.644c6.758 16.867 13.87 32.854 21.166 47.96z" />
<glyph unicode="&#xe960;" glyph-name="battery_alert" d="M668.587 789.333h-71.253v85.333h-170.667v-85.333h-71.253c-31.147 0-56.747-25.6-56.747-56.747v-654.080c0-31.573 25.6-57.173 56.747-57.173h312.747c31.573 0 57.173 25.6 57.173 56.747v654.507c0 31.147-25.6 56.747-56.747 56.747zM554.667 192h-85.333v85.333h85.333v-85.333zM469.333 362.667h85.333v213.333h-85.333v-213.333z" />
<glyph unicode="&#xe961;" glyph-name="battery_charging_full" d="M597.333 789.333h71.253c31.147 0 56.747-25.6 56.747-56.747v-654.507c0-31.147-25.6-56.747-57.173-56.747h-312.747c-31.147 0-56.747 25.6-56.747 57.173v654.080c0 31.147 25.6 56.747 56.747 56.747h71.253v85.333h170.667v-85.333zM469.333 341.333v-234.667l170.667 320h-85.333v234.667l-170.667-320h85.333z" />
<glyph unicode="&#xe962;" glyph-name="battery_full" d="M668.587 789.333h-71.253v85.333h-170.667v-85.333h-71.253c-31.147 0-56.747-25.6-56.747-56.747v-654.080c0-31.573 25.6-57.173 56.747-57.173h312.747c31.573 0 57.173 25.6 57.173 56.747v654.507c0 31.147-25.6 56.747-56.747 56.747z" />
<glyph unicode="&#xe963;" glyph-name="battery_std" d="M668.587 789.333h-71.253v85.333h-170.667v-85.333h-71.253c-31.147 0-56.747-25.6-56.747-56.747v-654.080c0-31.573 25.6-57.173 56.747-57.173h312.747c31.573 0 57.173 25.6 57.173 56.747v654.507c0 31.147-25.6 56.747-56.747 56.747z" />
<glyph unicode="&#xe964;" glyph-name="battery_unknown" d="M668.587 789.333h-71.253v85.333h-170.667v-85.333h-71.253c-31.147 0-56.747-25.6-56.747-56.747v-654.080c0-31.573 25.6-57.173 56.747-57.173h312.747c31.573 0 57.173 25.6 57.173 56.747v654.507c0 31.147-25.6 56.747-56.747 56.747zM554.667 277.333v-85.333h-85.333v85.333h85.333zM581.547 388.267c12.373 12.373 28.587 30.293 28.587 30.293 18.347 18.347 29.867 43.947 29.867 72.107 0 70.827-57.173 128-128 128s-128-57.173-128-128h64c0 35.413 28.587 64 64 64s64-28.587 64-64c0-17.493-7.253-33.707-18.773-45.227l-39.68-40.107c-20.053-20.48-39.68-49.92-39.68-85.333h68.267c0 19.2 14.933 47.787 35.413 68.267z" />
<glyph unicode="&#xe965;" glyph-name="beach_access" d="M559.603 831.949c-110.080 0-220.161-41.813-304.641-125.867l-0.427-0.427c-168.533-168.533-168.533-442.027 0-610.56l610.135 610.56c-84.053 84.053-194.56 126.293-305.067 126.293zM895.868 124.996l-60.941-60.945-274.846 274.846 60.941 60.941 274.846-274.842zM213.149 400.162c0-63.573 17.067-124.16 48.64-177.067l59.307 58.88c-50.347 70.4-80.213 150.613-88.32 232.107-12.8-36.267-19.627-74.24-19.627-113.92zM382.962 344.269c-57.6 87.467-79.36 192-58.88 291.413 24.747 5.12 49.493 7.68 74.667 7.68 76.801 0 151.468-23.467 216.748-66.56l-232.535-232.533zM559.603 746.615c-39.68 0-77.653-6.827-113.92-19.627 81.493-8.107 161.28-37.973 231.68-88.32l59.307 59.307c-52.907 31.573-113.493 48.64-177.067 48.64z" />
<glyph unicode="&#xe966;" glyph-name="beenhere" d="M810.667 917.333h-597.333c-46.933 0-84.907-38.4-84.907-85.333l-0.427-551.68c0-29.44 14.933-55.467 37.547-70.827l346.453-230.827 346.027 230.827c22.613 15.36 37.547 41.387 37.547 70.827l0.427 551.68c0 46.933-38.4 85.333-85.333 85.333zM512 81.067l-298.667 198.827v552.107h597.333v-551.68l-298.667-199.253zM316.16 508.16l110.080-110.507 281.173 281.6 60.587-60.587-341.333-341.333-170.667 170.667 60.16 60.16z" />
<glyph unicode="&#xe967;" glyph-name="block" d="M512 874.667c-235.52 0-426.667-191.147-426.667-426.667s191.147-426.667 426.667-426.667c235.52 0 426.667 191.147 426.667 426.667s-191.147 426.667-426.667 426.667zM170.667 448c0 188.587 152.747 341.333 341.333 341.333 78.933 0 151.467-26.88 209.067-72.107l-478.293-478.293c-45.227 57.6-72.107 130.133-72.107 209.067zM302.933 178.773l478.293 478.293c45.227-57.6 72.107-130.133 72.107-209.067 0-188.587-152.747-341.333-341.333-341.333-78.933 0-151.467 26.88-209.067 72.107z" />
<glyph unicode="&#xe968;" glyph-name="bluetooth_audio" d="M426.453 874.667l243.627-243.627-183.467-183.040 183.467-183.040-243.627-243.627h-42.667v323.84l-195.84-195.84-60.16 60.16 238.507 238.507-238.507 238.507 60.16 60.16 195.84-195.84v323.84h42.667zM833.067 673.707l-53.76-53.76c26.88-51.627 41.813-109.653 41.813-171.52s-15.36-120.32-41.813-171.52l51.2-51.2c41.387 65.707 65.707 143.36 65.707 226.56-0.427 80.64-23.467 156.587-63.147 221.44zM607.36 447.573l98.987-98.987c11.947 30.72 18.773 64.427 18.773 99.413s-6.827 67.84-18.347 98.56l-99.413-98.987zM469.12 711.253l80.213-80.213-80.213-80.213v160.427zM469.12 184.747l80.213 80.213-80.213 80.213v-160.427z" />
<glyph unicode="&#xe969;" glyph-name="bluetooth_connected" d="M755.627 631.040l-243.627 243.627h-42.667v-323.84l-195.84 195.84-60.16-60.16 238.507-238.507-238.507-238.507 60.16-60.16 195.84 195.84v-323.84h42.667l243.627 243.627-183.467 183.040 183.467 183.040zM298.667 448l-85.333 85.333-85.333-85.333 85.333-85.333 85.333 85.333zM634.88 631.040l-80.213 80.213v-160.427l80.213 80.213zM634.88 264.96l-80.213-80.213v160.427l80.213-80.213zM725.333 448l85.333 85.333 85.333-85.333-85.333-85.333-85.333 85.333z" />
<glyph unicode="&#xe96a;" glyph-name="bluetooth_disabled" d="M554.667 711.253l80.213-80.213-68.267-68.267 60.16-60.16 128.853 128.853-243.627 243.2h-42.667v-214.613l85.333-85.333v136.533zM230.827 789.333l-60.16-60.16 281.173-281.173-238.507-238.507 60.16-60.16 195.84 195.84v-323.84h42.667l183.040 183.040 98.133-97.707 60.16 60.16-622.507 622.507zM634.88 264.96l-80.213 80.213v-160.427l80.213 80.213z" />
<glyph unicode="&#xe96b;" glyph-name="bluetooth_searching" d="M426.453 874.667l243.627-243.627-183.467-183.040 183.467-183.040-243.627-243.627h-42.667v323.84l-195.84-195.84-60.16 60.16 238.507 238.507-238.507 238.507 60.16 60.16 195.84-195.84v323.84h42.667zM833.067 673.707l-53.76-53.76c26.88-51.627 41.813-109.653 41.813-171.52s-15.36-120.32-41.813-171.52l51.2-51.2c41.387 65.707 65.707 143.36 65.707 226.56-0.427 80.64-23.467 156.587-63.147 221.44zM607.36 447.573l98.987-98.987c11.947 30.72 18.773 64.427 18.773 99.413s-6.827 67.84-18.347 98.56l-99.413-98.987zM469.12 711.253l80.213-80.213-80.213-80.213v160.427zM469.12 184.747l80.213 80.213-80.213 80.213v-160.427z" />
<glyph unicode="&#xe96c;" glyph-name="bluetooth" d="M783.147 631.040l-243.627 243.627h-42.667v-323.84l-195.84 195.84-60.16-60.16 238.507-238.507-238.507-238.507 60.16-60.16 195.84 195.84v-323.84h42.667l243.627 243.627-183.467 183.040 183.467 183.040zM582.187 711.253l80.213-80.213-80.213-80.213v160.427zM582.187 184.747l80.213 80.213-80.213 80.213v-160.427z" />
<glyph unicode="&#xe96d;" glyph-name="blur_circular" d="M512 874.667c235.52 0 426.667-191.147 426.667-426.667s-191.147-426.667-426.667-426.667c-235.52 0-426.667 191.147-426.667 426.667s191.147 426.667 426.667 426.667zM448 661.333c0 11.947-9.387 21.333-21.333 21.333s-21.333-9.387-21.333-21.333c0-11.947 9.387-21.333 21.333-21.333s21.333 9.387 21.333 21.333zM384 533.333c0-23.467 19.2-42.667 42.667-42.667s42.667 19.2 42.667 42.667c0 23.467-19.2 42.667-42.667 42.667s-42.667-19.2-42.667-42.667zM384 362.667c0-23.467 19.2-42.667 42.667-42.667s42.667 19.2 42.667 42.667c0 23.467-19.2 42.667-42.667 42.667s-42.667-19.2-42.667-42.667zM298.667 554.667c11.947 0 21.333-9.387 21.333-21.333s-9.387-21.333-21.333-21.333c-11.947 0-21.333 9.387-21.333 21.333s9.387 21.333 21.333 21.333zM405.333 234.667c0-11.947 9.387-21.333 21.333-21.333s21.333 9.387 21.333 21.333c0 11.947-9.387 21.333-21.333 21.333s-21.333-9.387-21.333-21.333zM298.667 384c11.947 0 21.333-9.387 21.333-21.333s-9.387-21.333-21.333-21.333c-11.947 0-21.333 9.387-21.333 21.333s9.387 21.333 21.333 21.333zM597.333 576c23.467 0 42.667-19.2 42.667-42.667s-19.2-42.667-42.667-42.667c-23.467 0-42.667 19.2-42.667 42.667s19.2 42.667 42.667 42.667zM618.667 661.333c0 11.947-9.387 21.333-21.333 21.333s-21.333-9.387-21.333-21.333c0-11.947 9.387-21.333 21.333-21.333s21.333 9.387 21.333 21.333zM725.333 384c11.947 0 21.333-9.387 21.333-21.333s-9.387-21.333-21.333-21.333c-11.947 0-21.333 9.387-21.333 21.333s9.387 21.333 21.333 21.333zM704 533.333c0-11.947 9.387-21.333 21.333-21.333s21.333 9.387 21.333 21.333c0 11.947-9.387 21.333-21.333 21.333s-21.333-9.387-21.333-21.333zM170.667 448c0-188.587 152.747-341.333 341.333-341.333s341.333 152.747 341.333 341.333c0 188.587-152.747 341.333-341.333 341.333s-341.333-152.747-341.333-341.333zM597.333 256c11.947 0 21.333-9.387 21.333-21.333s-9.387-21.333-21.333-21.333c-11.947 0-21.333 9.387-21.333 21.333s9.387 21.333 21.333 21.333zM554.667 362.667c0-23.467 19.2-42.667 42.667-42.667s42.667 19.2 42.667 42.667c0 23.467-19.2 42.667-42.667 42.667s-42.667-19.2-42.667-42.667z" />
<glyph unicode="&#xe96e;" glyph-name="blur_linear" d="M128 832v-85.333h768v85.333h-768zM213.333 554.667c35.413 0 64 28.587 64 64s-28.587 64-64 64c-35.413 0-64-28.587-64-64s28.587-64 64-64zM384 576c23.467 0 42.667 19.2 42.667 42.667s-19.2 42.667-42.667 42.667c-23.467 0-42.667-19.2-42.667-42.667s19.2-42.667 42.667-42.667zM426.667 448c0-23.467-19.2-42.667-42.667-42.667s-42.667 19.2-42.667 42.667c0 23.467 19.2 42.667 42.667 42.667s42.667-19.2 42.667-42.667zM277.333 277.333c0-35.413-28.587-64-64-64s-64 28.587-64 64c0 35.413 28.587 64 64 64s64-28.587 64-64zM896 149.333v-85.333h-768v85.333h768zM277.333 448c0-35.413-28.587-64-64-64s-64 28.587-64 64c0 35.413 28.587 64 64 64s64-28.587 64-64zM384 234.667c23.467 0 42.667 19.2 42.667 42.667s-19.2 42.667-42.667 42.667c-23.467 0-42.667-19.2-42.667-42.667s19.2-42.667 42.667-42.667zM746.667 277.333c0-11.947-9.387-21.333-21.333-21.333s-21.333 9.387-21.333 21.333c0 11.947 9.387 21.333 21.333 21.333s21.333-9.387 21.333-21.333zM746.667 618.667c0-11.947-9.387-21.333-21.333-21.333s-21.333 9.387-21.333 21.333c0 11.947 9.387 21.333 21.333 21.333s21.333-9.387 21.333-21.333zM725.333 426.667c11.947 0 21.333 9.387 21.333 21.333s-9.387 21.333-21.333 21.333c-11.947 0-21.333-9.387-21.333-21.333s9.387-21.333 21.333-21.333zM597.333 618.667c0-23.467-19.2-42.667-42.667-42.667s-42.667 19.2-42.667 42.667c0 23.467 19.2 42.667 42.667 42.667s42.667-19.2 42.667-42.667zM554.667 405.333c23.467 0 42.667 19.2 42.667 42.667s-19.2 42.667-42.667 42.667c-23.467 0-42.667-19.2-42.667-42.667s19.2-42.667 42.667-42.667zM597.333 277.333c0-23.467-19.2-42.667-42.667-42.667s-42.667 19.2-42.667 42.667c0 23.467 19.2 42.667 42.667 42.667s42.667-19.2 42.667-42.667z" />
<glyph unicode="&#xe96f;" glyph-name="blur_off" d="M448 832c0-11.947-9.387-21.333-21.333-21.333s-21.333 9.387-21.333 21.333c0 11.947 9.387 21.333 21.333 21.333s21.333-9.387 21.333-21.333zM597.333 810.667c11.947 0 21.333 9.387 21.333 21.333s-9.387 21.333-21.333 21.333c-11.947 0-21.333-9.387-21.333-21.333s9.387-21.333 21.333-21.333zM554.667 704c0 23.564 19.102 42.667 42.667 42.667s42.667-19.103 42.667-42.667c0-23.564-19.102-42.667-42.667-42.667s-42.667 19.103-42.667 42.667zM597.333 469.333l-8.533 0.853c-28.587 3.84-50.773 26.027-54.613 54.613l-0.853 8.533c0 35.413 28.587 64 64 64s64-28.587 64-64c0-35.413-28.587-64-64-64zM768 576c-23.565 0-42.667-19.103-42.667-42.667s19.102-42.667 42.667-42.667c23.565 0 42.667 19.102 42.667 42.667s-19.102 42.667-42.667 42.667zM725.333 704c0 23.564 19.102 42.667 42.667 42.667s42.667-19.103 42.667-42.667c0-23.564-19.102-42.667-42.667-42.667s-42.667 19.103-42.667 42.667zM896 512c11.947 0 21.333 9.387 21.333 21.333s-9.387 21.333-21.333 21.333c-11.947 0-21.333-9.387-21.333-21.333s9.387-21.333 21.333-21.333zM384 704c0 23.564 19.103 42.667 42.667 42.667s42.667-19.103 42.667-42.667c0-23.564-19.102-42.667-42.667-42.667s-42.667 19.103-42.667 42.667zM768 405.333c-23.565 0-42.667-19.102-42.667-42.667s19.102-42.667 42.667-42.667c23.565 0 42.667 19.102 42.667 42.667s-19.102 42.667-42.667 42.667zM213.333 192c0 23.565 19.103 42.667 42.667 42.667s42.667-19.102 42.667-42.667c0-23.565-19.103-42.667-42.667-42.667s-42.667 19.102-42.667 42.667zM597.333 85.333c-11.947 0-21.333-9.387-21.333-21.333s9.387-21.333 21.333-21.333c11.947 0 21.333 9.387 21.333 21.333s-9.387 21.333-21.333 21.333zM874.667 362.667c0 11.947 9.387 21.333 21.333 21.333s21.333-9.387 21.333-21.333c0-11.947-9.387-21.333-21.333-21.333s-21.333 9.387-21.333 21.333zM128 384c-11.947 0-21.333-9.387-21.333-21.333s9.387-21.333 21.333-21.333c11.947 0 21.333 9.387 21.333 21.333s-9.387 21.333-21.333 21.333zM384 192c0 23.565 19.103 42.667 42.667 42.667s42.667-19.102 42.667-42.667c0-23.565-19.102-42.667-42.667-42.667s-42.667 19.102-42.667 42.667zM128 554.667c-11.947 0-21.333-9.387-21.333-21.333s9.387-21.333 21.333-21.333c11.947 0 21.333 9.387 21.333 21.333s-9.387 21.333-21.333 21.333zM405.333 64c0 11.947 9.387 21.333 21.333 21.333s21.333-9.387 21.333-21.333c0-11.947-9.387-21.333-21.333-21.333s-21.333 9.387-21.333 21.333zM256 405.333c-23.564 0-42.667-19.102-42.667-42.667s19.103-42.667 42.667-42.667c23.564 0 42.667 19.102 42.667 42.667s-19.103 42.667-42.667 42.667zM256 585.813l-149.333 149.333 60.16 60.16 692.48-692.48-60.16-60.16h-0.427l-161.28 161.28c1.28-3.84 2.56-7.68 2.56-11.947 0-23.467-19.2-42.667-42.667-42.667s-42.667 19.2-42.667 42.667c0 23.467 19.2 42.667 42.667 42.667 4.267 0 8.107-1.28 11.947-2.56l-119.893 119.893c-4.693-30.293-31.147-53.333-62.72-53.333-35.413 0-64 28.587-64 64 0 31.573 23.040 58.027 53.333 62.72l-119.893 119.893c1.28-3.84 2.56-7.68 2.56-11.947 0-23.467-19.2-42.667-42.667-42.667s-42.667 19.2-42.667 42.667c0 23.467 19.2 42.667 42.667 42.667l11.947-2.133-11.947 11.947z" />
<glyph unicode="&#xe970;" glyph-name="blur_on" d="M618.667 832c0-11.947-9.387-21.333-21.333-21.333s-21.333 9.387-21.333 21.333c0 11.947 9.387 21.333 21.333 21.333s21.333-9.387 21.333-21.333zM256 746.667c-23.467 0-42.667-19.2-42.667-42.667s19.2-42.667 42.667-42.667c23.467 0 42.667 19.2 42.667 42.667s-19.2 42.667-42.667 42.667zM256 576c-23.467 0-42.667-19.2-42.667-42.667s19.2-42.667 42.667-42.667c23.467 0 42.667 19.2 42.667 42.667s-19.2 42.667-42.667 42.667zM213.333 362.667c0 23.467 19.2 42.667 42.667 42.667s42.667-19.2 42.667-42.667c0-23.467-19.2-42.667-42.667-42.667s-42.667 19.2-42.667 42.667zM213.333 192c0 23.467 19.2 42.667 42.667 42.667s42.667-19.2 42.667-42.667c0-23.467-19.2-42.667-42.667-42.667s-42.667 19.2-42.667 42.667zM106.667 533.333c0 11.947 9.387 21.333 21.333 21.333s21.333-9.387 21.333-21.333c0-11.947-9.387-21.333-21.333-21.333s-21.333 9.387-21.333 21.333zM917.333 533.333c0-11.947-9.387-21.333-21.333-21.333s-21.333 9.387-21.333 21.333c0 11.947 9.387 21.333 21.333 21.333s21.333-9.387 21.333-21.333zM597.333 661.333c23.467 0 42.667 19.2 42.667 42.667s-19.2 42.667-42.667 42.667c-23.467 0-42.667-19.2-42.667-42.667s19.2-42.667 42.667-42.667zM128 384c-11.947 0-21.333-9.387-21.333-21.333s9.387-21.333 21.333-21.333c11.947 0 21.333 9.387 21.333 21.333s-9.387 21.333-21.333 21.333zM405.333 64c0 11.947 9.387 21.333 21.333 21.333s21.333-9.387 21.333-21.333c0-11.947-9.387-21.333-21.333-21.333s-21.333 9.387-21.333 21.333zM426.667 810.667c11.947 0 21.333 9.387 21.333 21.333s-9.387 21.333-21.333 21.333c-11.947 0-21.333-9.387-21.333-21.333s9.387-21.333 21.333-21.333zM469.333 704c0-23.467-19.2-42.667-42.667-42.667s-42.667 19.2-42.667 42.667c0 23.467 19.2 42.667 42.667 42.667s42.667-19.2 42.667-42.667zM426.667 426.667c-35.413 0-64-28.587-64-64s28.587-64 64-64c35.413 0 64 28.587 64 64s-28.587 64-64 64zM725.333 362.667c0 23.467 19.2 42.667 42.667 42.667s42.667-19.2 42.667-42.667c0-23.467-19.2-42.667-42.667-42.667s-42.667 19.2-42.667 42.667zM768 234.667c-23.467 0-42.667-19.2-42.667-42.667s19.2-42.667 42.667-42.667c23.467 0 42.667 19.2 42.667 42.667s-19.2 42.667-42.667 42.667zM725.333 533.333c0 23.467 19.2 42.667 42.667 42.667s42.667-19.2 42.667-42.667c0-23.467-19.2-42.667-42.667-42.667s-42.667 19.2-42.667 42.667zM768 746.667c-23.467 0-42.667-19.2-42.667-42.667s19.2-42.667 42.667-42.667c23.467 0 42.667 19.2 42.667 42.667s-19.2 42.667-42.667 42.667zM874.667 362.667c0 11.947 9.387 21.333 21.333 21.333s21.333-9.387 21.333-21.333c0-11.947-9.387-21.333-21.333-21.333s-21.333 9.387-21.333 21.333zM597.333 234.667c-23.467 0-42.667-19.2-42.667-42.667s19.2-42.667 42.667-42.667c23.467 0 42.667 19.2 42.667 42.667s-19.2 42.667-42.667 42.667zM576 64c0 11.947 9.387 21.333 21.333 21.333s21.333-9.387 21.333-21.333c0-11.947-9.387-21.333-21.333-21.333s-21.333 9.387-21.333 21.333zM426.667 597.333c-35.413 0-64-28.587-64-64s28.587-64 64-64c35.413 0 64 28.587 64 64s-28.587 64-64 64zM384 192c0 23.467 19.2 42.667 42.667 42.667s42.667-19.2 42.667-42.667c0-23.467-19.2-42.667-42.667-42.667s-42.667 19.2-42.667 42.667zM597.333 426.667c-35.413 0-64-28.587-64-64s28.587-64 64-64c35.413 0 64 28.587 64 64s-28.587 64-64 64zM533.333 533.333c0 35.413 28.587 64 64 64s64-28.587 64-64c0-35.413-28.587-64-64-64s-64 28.587-64 64z" />
<glyph unicode="&#xe971;" glyph-name="book" d="M768 874.667c46.933 0 85.333-38.4 85.333-85.333v-682.667c0-46.933-38.4-85.333-85.333-85.333h-512c-46.933 0-85.333 38.4-85.333 85.333v682.667c0 46.933 38.4 85.333 85.333 85.333h512zM384 789.333v-213.333l42.667 32 42.667-32v213.333h-85.333zM256 106.667h512v682.667h-213.333v-384l-128 96-128-96v384h-42.667v-682.667z" />
<glyph unicode="&#xe972;" glyph-name="bookmark_border" d="M298.667 832h426.667c46.933 0 85.333-38.4 85.333-85.333v-682.667l-298.667 128-298.667-128v682.667c0 46.933 38.4 85.333 85.333 85.333zM512 285.013l213.333-93.013v554.667h-426.667v-554.667l213.333 93.013z" />
<glyph unicode="&#xe973;" glyph-name="bookmark" d="M725.333 832h-426.667c-46.933 0-85.333-38.4-85.333-85.333v-682.667l298.667 128 298.667-128v682.667c0 46.933-38.4 85.333-85.333 85.333z" />
<glyph unicode="&#xe974;" glyph-name="bookmarks" d="M810.667 917.333c46.933 0 85.333-38.4 85.333-85.333v-682.667l-85.333 42.667v554.667c0 46.933-38.4 85.333-85.333 85.333h-426.667c0 46.933 37.973 85.333 84.907 85.333h427.093zM640 661.333h-426.667v-553.387l213.333 91.733 213.333-91.733v553.387zM213.333 746.667h426.667c46.933 0 85.333-38.4 85.333-85.333v-682.667l-298.667 128-298.667-128v682.667c0 46.933 38.4 85.333 85.333 85.333z" />
<glyph unicode="&#xe975;" glyph-name="border_all" d="M128 832v-768h768v768h-768zM469.333 149.333h-256v256h256v-256zM213.333 490.667v256h256v-256h-256zM810.667 149.333h-256v256h256v-256zM554.667 490.667v256h256v-256h-256z" />
<glyph unicode="&#xe976;" glyph-name="border_bottom" d="M128 832h85.333v-85.333h-85.333v85.333zM298.667 832h85.333v-85.333h-85.333v85.333zM384 490.667h-85.333v-85.333h85.333v85.333zM554.667 320h-85.333v-85.333h85.333v85.333zM554.667 490.667h-85.333v-85.333h85.333v85.333zM554.667 661.333h-85.333v-85.333h85.333v85.333zM640 490.667h85.333v-85.333h-85.333v85.333zM554.667 832h-85.333v-85.333h85.333v85.333zM640 832h85.333v-85.333h-85.333v85.333zM810.667 405.333h85.333v85.333h-85.333v-85.333zM896 234.667h-85.333v85.333h85.333v-85.333zM213.333 661.333h-85.333v-85.333h85.333v85.333zM810.667 746.667v85.333h85.333v-85.333h-85.333zM810.667 576h85.333v85.333h-85.333v-85.333zM128 490.667h85.333v-85.333h-85.333v85.333zM128 64h768v85.333h-768v-85.333zM128 320h85.333v-85.333h-85.333v85.333z" />
<glyph unicode="&#xe977;" glyph-name="border_clear" d="M298.667 746.667h85.333v85.333h-85.333v-85.333zM298.667 405.333h85.333v85.333h-85.333v-85.333zM384 64h-85.333v85.333h85.333v-85.333zM469.333 234.667h85.333v85.333h-85.333v-85.333zM554.667 64h-85.333v85.333h85.333v-85.333zM128 64h85.333v85.333h-85.333v-85.333zM213.333 234.667h-85.333v85.333h85.333v-85.333zM128 405.333h85.333v85.333h-85.333v-85.333zM213.333 576h-85.333v85.333h85.333v-85.333zM128 746.667h85.333v85.333h-85.333v-85.333zM554.667 405.333h-85.333v85.333h85.333v-85.333zM810.667 234.667h85.333v85.333h-85.333v-85.333zM896 405.333h-85.333v85.333h85.333v-85.333zM810.667 64h85.333v85.333h-85.333v-85.333zM896 576h-85.333v85.333h85.333v-85.333zM469.333 576h85.333v85.333h-85.333v-85.333zM810.667 746.667v85.333h85.333v-85.333h-85.333zM469.333 746.667h85.333v85.333h-85.333v-85.333zM725.333 64h-85.333v85.333h85.333v-85.333zM640 405.333h85.333v85.333h-85.333v-85.333zM725.333 746.667h-85.333v85.333h85.333v-85.333z" />
<glyph unicode="&#xe978;" glyph-name="border_color" d="M883.627 787.538c16.64 16.638 16.64 43.516 0 60.154l-99.84 99.83c-7.97 7.989-18.795 12.478-30.080 12.478s-22.11-4.489-30.080-12.478l-83.627-83.618 160-159.983 83.627 83.618zM170.667 394.62l426.667 426.622 160-159.983-426.667-426.621h-160v159.983zM256 319.962h39.253l341.333 341.297-39.253 39.249-341.333-341.297v-39.249zM1024 106.65h-1024v-170.65h1024v170.65z" />
<glyph unicode="&#xe979;" glyph-name="border_horizontal" d="M128 832h85.333v-85.333h-85.333v85.333zM213.333 661.333h-85.333v-85.333h85.333v85.333zM128 64h85.333v85.333h-85.333v-85.333zM213.333 234.667h-85.333v85.333h85.333v-85.333zM298.667 64h85.333v85.333h-85.333v-85.333zM384 832h-85.333v-85.333h85.333v85.333zM640 832h85.333v-85.333h-85.333v85.333zM554.667 661.333h-85.333v-85.333h85.333v85.333zM469.333 832h85.333v-85.333h-85.333v85.333zM810.667 234.667h85.333v85.333h-85.333v-85.333zM554.667 64h-85.333v85.333h85.333v-85.333zM128 405.333h768v85.333h-768v-85.333zM810.667 746.667v85.333h85.333v-85.333h-85.333zM810.667 576h85.333v85.333h-85.333v-85.333zM554.667 234.667h-85.333v85.333h85.333v-85.333zM640 64h85.333v85.333h-85.333v-85.333zM896 64h-85.333v85.333h85.333v-85.333z" />
<glyph unicode="&#xe97a;" glyph-name="border_inner" d="M298.667 832h85.333v-85.333h-85.333v85.333zM128 661.333h85.333v-85.333h-85.333v85.333zM128 64h85.333v85.333h-85.333v-85.333zM298.667 64h85.333v85.333h-85.333v-85.333zM128 234.667h85.333v85.333h-85.333v-85.333zM213.333 832h-85.333v-85.333h85.333v85.333zM640 832h85.333v-85.333h-85.333v85.333zM810.667 576h85.333v85.333h-85.333v-85.333zM810.667 746.667v85.333h85.333v-85.333h-85.333zM640 64h85.333v85.333h-85.333v-85.333zM469.333 832h85.333v-341.333h341.333v-85.333h-341.333v-341.333h-85.333v341.333h-341.333v85.333h341.333v341.333zM810.667 64h85.333v85.333h-85.333v-85.333zM896 234.667h-85.333v85.333h85.333v-85.333z" />
<glyph unicode="&#xe97b;" glyph-name="border_left" d="M213.333 64h-85.333v768h85.333v-768zM554.667 746.667h-85.333v85.333h85.333v-85.333zM469.333 234.667h85.333v85.333h-85.333v-85.333zM469.333 64h85.333v85.333h-85.333v-85.333zM469.333 576h85.333v85.333h-85.333v-85.333zM554.667 405.333h-85.333v85.333h85.333v-85.333zM298.667 64h85.333v85.333h-85.333v-85.333zM384 746.667h-85.333v85.333h85.333v-85.333zM298.667 405.333h85.333v85.333h-85.333v-85.333zM810.667 576h85.333v85.333h-85.333v-85.333zM725.333 64h-85.333v85.333h85.333v-85.333zM810.667 234.667h85.333v85.333h-85.333v-85.333zM810.667 746.667v85.333h85.333v-85.333h-85.333zM810.667 405.333h85.333v85.333h-85.333v-85.333zM896 64h-85.333v85.333h85.333v-85.333zM640 405.333h85.333v85.333h-85.333v-85.333zM725.333 746.667h-85.333v85.333h85.333v-85.333z" />
<glyph unicode="&#xe97c;" glyph-name="border_outer" d="M128 832h768v-768h-768v768zM554.667 661.333v-85.333h-85.333v85.333h85.333zM554.667 490.667v-85.333h-85.333v85.333h85.333zM640 490.667v-85.333h85.333v85.333h-85.333zM213.333 149.333h597.333v597.333h-597.333v-597.333zM554.667 320v-85.333h-85.333v85.333h85.333zM298.667 490.667v-85.333h85.333v85.333h-85.333z" />
<glyph unicode="&#xe97d;" glyph-name="border_right" d="M128 746.667h85.333v85.333h-85.333v-85.333zM298.667 64h85.333v85.333h-85.333v-85.333zM384 746.667h-85.333v85.333h85.333v-85.333zM298.667 405.333h85.333v85.333h-85.333v-85.333zM213.333 64h-85.333v85.333h85.333v-85.333zM469.333 64h85.333v85.333h-85.333v-85.333zM213.333 405.333h-85.333v85.333h85.333v-85.333zM128 234.667h85.333v85.333h-85.333v-85.333zM213.333 576h-85.333v85.333h85.333v-85.333zM469.333 234.667h85.333v85.333h-85.333v-85.333zM725.333 405.333h-85.333v85.333h85.333v-85.333zM810.667 832v-768h85.333v768h-85.333zM725.333 64h-85.333v85.333h85.333v-85.333zM640 746.667h85.333v85.333h-85.333v-85.333zM554.667 405.333h-85.333v85.333h85.333v-85.333zM469.333 746.667h85.333v85.333h-85.333v-85.333zM554.667 576h-85.333v85.333h85.333v-85.333z" />
<glyph unicode="&#xe97e;" glyph-name="border_style" d="M128 832v-768h85.333v682.667h682.667v85.333h-768zM896 405.333h-85.333v85.333h85.333v-85.333zM810.667 234.667h85.333v85.333h-85.333v-85.333zM298.667 64h85.333v85.333h-85.333v-85.333zM725.333 64h-85.333v85.333h85.333v-85.333zM896 64h-85.333v85.333h85.333v-85.333zM554.667 64h-85.333v85.333h85.333v-85.333zM896 576h-85.333v85.333h85.333v-85.333z" />
<glyph unicode="&#xe97f;" glyph-name="border_top" d="M128 832v-85.333h768v85.333h-768zM128 576h85.333v85.333h-85.333v-85.333zM298.667 405.333h85.333v85.333h-85.333v-85.333zM298.667 64h85.333v85.333h-85.333v-85.333zM554.667 405.333h-85.333v85.333h85.333v-85.333zM469.333 64h85.333v85.333h-85.333v-85.333zM213.333 234.667h-85.333v85.333h85.333v-85.333zM128 64h85.333v85.333h-85.333v-85.333zM213.333 405.333h-85.333v85.333h85.333v-85.333zM554.667 234.667h-85.333v85.333h85.333v-85.333zM810.667 576h85.333v85.333h-85.333v-85.333zM896 405.333h-85.333v85.333h85.333v-85.333zM896 234.667h-85.333v85.333h85.333v-85.333zM640 64h85.333v85.333h-85.333v-85.333zM554.667 576h-85.333v85.333h85.333v-85.333zM810.667 64h85.333v85.333h-85.333v-85.333zM725.333 405.333h-85.333v85.333h85.333v-85.333z" />
<glyph unicode="&#xe980;" glyph-name="border_vertical" d="M128 746.667h85.333v85.333h-85.333v-85.333zM128 576h85.333v85.333h-85.333v-85.333zM384 64h-85.333v85.333h85.333v-85.333zM298.667 405.333h85.333v85.333h-85.333v-85.333zM213.333 405.333h-85.333v85.333h85.333v-85.333zM128 64h85.333v85.333h-85.333v-85.333zM213.333 234.667h-85.333v85.333h85.333v-85.333zM298.667 746.667h85.333v85.333h-85.333v-85.333zM896 234.667h-85.333v85.333h85.333v-85.333zM469.333 64h85.333v768h-85.333v-768zM896 64h-85.333v85.333h85.333v-85.333zM810.667 405.333h85.333v85.333h-85.333v-85.333zM810.667 746.667v85.333h85.333v-85.333h-85.333zM810.667 576h85.333v85.333h-85.333v-85.333zM725.333 746.667h-85.333v85.333h85.333v-85.333zM640 64h85.333v85.333h-85.333v-85.333zM725.333 405.333h-85.333v85.333h85.333v-85.333z" />
<glyph unicode="&#xe981;" glyph-name="branding_watermark" d="M896 832h-768c-46.933 0-85.333-38.4-85.333-85.333v-597.333c0-46.933 38.4-85.333 85.333-85.333h768c46.933 0 85.333 38.4 85.333 85.333v597.333c0 46.933-38.4 85.333-85.333 85.333zM896 149.333h-768v597.333h768v-597.333zM853.333 448h-384v-256h384v256z" />
<glyph unicode="&#xe982;" glyph-name="brightness_1" d="M85.333 448c0 235.52 191.147 426.667 426.667 426.667s426.667-191.147 426.667-426.667c0-235.52-191.147-426.667-426.667-426.667s-426.667 191.147-426.667 426.667zM853.333 448c0 188.16-153.173 341.333-341.333 341.333s-341.333-153.173-341.333-341.333c0-188.16 153.173-341.333 341.333-341.333s341.333 153.173 341.333 341.333z" />
<glyph unicode="&#xe983;" glyph-name="brightness_2" d="M192 817.067c62.72 36.267 135.68 57.6 213.333 57.6 235.52 0 426.667-191.147 426.667-426.667s-191.147-426.667-426.667-426.667c-77.653 0-150.613 21.333-213.333 57.6 127.573 73.813 213.333 211.2 213.333 369.067s-85.76 295.253-213.333 369.067zM746.667 448c0 188.16-153.173 341.333-341.333 341.333-14.507 0-29.013-0.853-43.093-2.987 81.493-92.16 128.427-212.48 128.427-338.347s-46.933-246.187-128.427-338.347c14.080-2.133 28.587-2.987 43.093-2.987 188.16 0 341.333 153.173 341.333 341.333z" />
<glyph unicode="&#xe984;" glyph-name="brightness_3" d="M234.667 855.040c40.533 12.8 83.2 19.627 128 19.627 235.52 0 426.667-191.147 426.667-426.667s-191.147-426.667-426.667-426.667c-44.8 0-87.467 6.827-128 19.627 173.227 54.187 298.667 215.893 298.667 407.040s-125.44 352.853-298.667 407.040zM704 448c0 131.413-74.667 245.76-183.467 302.507 62.293-85.333 98.133-190.293 98.133-302.507s-35.84-217.173-98.133-302.507c108.8 56.747 183.467 171.093 183.467 302.507z" />
<glyph unicode="&#xe985;" glyph-name="brightness_4" d="M853.333 589.227v200.107h-200.107l-141.227 141.227-141.227-141.227h-200.107v-200.107l-141.227-141.227 141.227-141.227v-200.107h200.107l141.227-141.227 141.227 141.227h200.107v200.107l141.227 141.227-141.227 141.227zM768 342.187v-150.187h-150.187l-105.813-105.813-105.813 105.813h-150.187v150.187l-105.813 105.813 105.813 105.813v150.187h150.187l105.813 105.813 105.813-105.813h150.187v-150.187l105.813-105.813-105.813-105.813zM435.627 641.707c26.88 12.373 57.173 19.627 88.747 19.627 117.76 0 213.333-95.573 213.333-213.333s-95.573-213.333-213.333-213.333c-31.573 0-61.867 7.253-88.747 19.627 73.387 33.707 124.587 107.947 124.587 193.707s-51.2 160-124.587 193.707z" />
<glyph unicode="&#xe986;" glyph-name="brightness_5" d="M853.333 789.333v-200.107l141.227-141.227-141.227-141.227v-200.107h-200.107l-141.227-141.227-141.227 141.227h-200.107v200.107l-141.227 141.227 141.227 141.227v200.107h200.107l141.227 141.227 141.227-141.227h200.107zM768 192v150.187l105.813 105.813-105.813 105.813v150.187h-150.187l-105.813 105.813-105.813-105.813h-150.187v-150.187l-105.813-105.813 105.813-105.813v-150.187h150.187l105.813-105.813 105.813 105.813h150.187zM512 682.667c-129.28 0-234.667-105.387-234.667-234.667s105.387-234.667 234.667-234.667c129.28 0 234.667 105.387 234.667 234.667s-105.387 234.667-234.667 234.667zM362.667 448c0-82.347 66.987-149.333 149.333-149.333s149.333 66.987 149.333 149.333c0 82.347-66.987 149.333-149.333 149.333s-149.333-66.987-149.333-149.333z" />
<glyph unicode="&#xe987;" glyph-name="brightness_6" d="M853.333 589.227v200.107h-200.107l-141.227 141.227-141.227-141.227h-200.107v-200.107l-141.227-141.227 141.227-141.227v-200.107h200.107l141.227-141.227 141.227 141.227h200.107v200.107l141.227 141.227-141.227 141.227zM768 342.187v-150.187h-150.187l-105.813-105.813-105.813 105.813h-150.187v150.187l-105.813 105.813 105.813 105.813v150.187h150.187l105.813 105.813 105.813-105.813h150.187v-150.187l105.813-105.813-105.813-105.813zM746.667 448c0-129.28-105.387-234.667-234.667-234.667v469.333c129.28 0 234.667-105.387 234.667-234.667z" />
<glyph unicode="&#xe988;" glyph-name="brightness_7" d="M853.333 589.227v200.107h-200.107l-141.227 141.227-141.227-141.227h-200.107v-200.107l-141.227-141.227 141.227-141.227v-200.107h200.107l141.227-141.227 141.227 141.227h200.107v200.107l141.227 141.227-141.227 141.227zM768 342.187v-150.187h-150.187l-105.813-105.813-105.813 105.813h-150.187v150.187l-105.813 105.813 105.813 105.813v150.187h150.187l105.813 105.813 105.813-105.813h150.187v-150.187l105.813-105.813-105.813-105.813zM277.333 448c0 129.28 105.387 234.667 234.667 234.667s234.667-105.387 234.667-234.667c0-129.28-105.387-234.667-234.667-234.667s-234.667 105.387-234.667 234.667zM512 298.667c-82.347 0-149.333 66.987-149.333 149.333s66.987 149.333 149.333 149.333c82.347 0 149.333-66.987 149.333-149.333s-66.987-149.333-149.333-149.333zM426.667 448c0 47.13 38.204 85.333 85.333 85.333s85.333-38.204 85.333-85.333c0-47.13-38.204-85.333-85.333-85.333s-85.333 38.204-85.333 85.333z" />
<glyph unicode="&#xe989;" glyph-name="brightness_auto" d="M853.333 589.227l141.227-141.227-141.227-141.227v-200.107h-200.107l-141.227-141.227-141.227 141.227h-200.107v200.107l-141.227 141.227 141.227 141.227v200.107h200.107l141.227 141.227 141.227-141.227h200.107v-200.107zM332.8 277.333l136.533 384h85.333l136.533-384h-81.067l-29.867 85.333h-136.533l-29.867-85.333h-81.067zM512 576l-49.067-155.733h98.133l-49.067 155.733zM768 192v150.187l105.813 105.813-105.813 105.813v150.187h-150.187l-105.813 105.813-105.813-105.813h-150.187v-150.187l-105.813-105.813 105.813-105.813v-150.187h150.187l105.813-105.813 105.813 105.813h150.187z" />
<glyph unicode="&#xe98a;" glyph-name="brightness_high" d="M853.333 589.227v200.107h-200.107l-141.227 141.227-141.227-141.227h-200.107v-200.107l-141.227-141.227 141.227-141.227v-200.107h200.107l141.227-141.227 141.227 141.227h200.107v200.107l141.227 141.227-141.227 141.227zM768 342.187v-150.187h-150.187l-105.813-105.813-105.813 105.813h-150.187v150.187l-105.813 105.813 105.813 105.813v150.187h150.187l105.813 105.813 105.813-105.813h150.187v-150.187l105.813-105.813-105.813-105.813zM256 448c0 141.227 114.773 256 256 256s256-114.773 256-256c0-141.227-114.773-256-256-256s-256 114.773-256 256zM512 277.333c-94.293 0-170.667 76.373-170.667 170.667s76.373 170.667 170.667 170.667c94.293 0 170.667-76.373 170.667-170.667s-76.373-170.667-170.667-170.667zM405.333 448c0 58.91 47.757 106.667 106.667 106.667s106.667-47.757 106.667-106.667c0-58.91-47.757-106.667-106.667-106.667s-106.667 47.757-106.667 106.667z" />
<glyph unicode="&#xe98b;" glyph-name="brightness_low" d="M853.333 789.333v-200.107l141.227-141.227-141.227-141.227v-200.107h-200.107l-141.227-141.227-141.227 141.227h-200.107v200.107l-141.227 141.227 141.227 141.227v200.107h200.107l141.227 141.227 141.227-141.227h200.107zM768 192v150.187l105.813 105.813-105.813 105.813v150.187h-150.187l-105.813 105.813-105.813-105.813h-150.187v-150.187l-105.813-105.813 105.813-105.813v-150.187h150.187l105.813-105.813 105.813 105.813h150.187zM512 704c-141.227 0-256-114.773-256-256s114.773-256 256-256c141.227 0 256 114.773 256 256s-114.773 256-256 256zM341.333 448c0-94.293 76.373-170.667 170.667-170.667s170.667 76.373 170.667 170.667c0 94.293-76.373 170.667-170.667 170.667s-170.667-76.373-170.667-170.667z" />
<glyph unicode="&#xe98c;" glyph-name="brightness_medium" d="M853.333 589.227v200.107h-200.107l-141.227 141.227-141.227-141.227h-200.107v-200.107l-141.227-141.227 141.227-141.227v-200.107h200.107l141.227-141.227 141.227 141.227h200.107v200.107l141.227 141.227-141.227 141.227zM768 342.187v-150.187h-150.187l-105.813-105.813-105.813 105.813h-150.187v150.187l-105.813 105.813 105.813 105.813v150.187h150.187l105.813 105.813 105.813-105.813h150.187v-150.187l105.813-105.813-105.813-105.813zM512 192v512c141.227 0 256-114.773 256-256s-114.773-256-256-256z" />
<glyph unicode="&#xe98d;" glyph-name="broken_image" d="M810.667 832h-597.333c-46.933 0-85.333-38.4-85.333-85.333v-597.333c0-46.933 38.4-85.333 85.333-85.333h597.333c46.933 0 85.333 38.4 85.333 85.333v597.333c0 46.933-38.4 85.333-85.333 85.333zM810.667 149.333h-597.333v195.413l42.24-42.24 170.667 170.667 170.667-170.667 170.667 170.24 43.093-43.093v-280.32zM767.573 593.92l-170.667-171.093-170.667 170.667-170.667-170.667-42.24 42.667v281.173h597.333v-195.84l-43.093 43.093z" />
<glyph unicode="&#xe98e;" glyph-name="brush" d="M817.869 832c-11.093 0-21.76-4.267-30.293-12.373l-382.294-382.293 117.334-117.333 382.293 382.293c16.64 16.64 16.64 43.52 0 60.16l-57.173 57.173c-8.533 8.533-19.2 12.373-29.867 12.373zM319.948 277.333c23.467 0 42.667-19.2 42.667-42.667 0-46.933-38.4-85.333-85.333-85.333-7.253 0-14.080 0.853-21.333 2.133 13.227 23.467 21.333 51.627 21.333 83.2 0 23.467 19.2 42.667 42.667 42.667zM191.948 234.667c0 70.827 57.173 128 128 128s128.001-57.173 128.001-128c0-94.293-76.374-170.667-170.668-170.667-64.427 0-131.413 33.28-170.667 85.333 35.84 0 85.333 29.44 85.333 85.333z" />
<glyph unicode="&#xe98f;" glyph-name="bubble_chart" d="M682.667 832c129.28 0 234.667-105.387 234.667-234.667s-105.387-234.667-234.667-234.667c-129.28 0-234.667 105.387-234.667 234.667s105.387 234.667 234.667 234.667zM106.667 362.667c0 94.293 76.373 170.667 170.667 170.667s170.667-76.373 170.667-170.667c0-94.293-76.373-170.667-170.667-170.667s-170.667 76.373-170.667 170.667zM192 362.667c0-46.933 38.4-85.333 85.333-85.333s85.333 38.4 85.333 85.333c0 46.933-38.4 85.333-85.333 85.333s-85.333-38.4-85.333-85.333zM619.093 320c70.4 0 128-57.6 128-128s-57.6-128-128-128c-70.4 0-128 57.6-128 128s57.6 128 128 128zM576.427 192c0-23.467 19.2-42.667 42.667-42.667s42.667 19.2 42.667 42.667c0 23.467-19.2 42.667-42.667 42.667s-42.667-19.2-42.667-42.667zM533.333 597.333c0-82.347 66.987-149.333 149.333-149.333s149.333 66.987 149.333 149.333c0 82.347-66.987 149.333-149.333 149.333s-149.333-66.987-149.333-149.333z" />
<glyph unicode="&#xe990;" glyph-name="bug_report" d="M733.44 618.667h119.893v-85.333h-89.173c2.133-14.080 3.84-28.16 3.84-42.667v-42.667h85.333v-85.333h-85.333v-42.667c0-14.507-1.707-28.587-3.84-42.667h89.173v-85.333h-119.893c-44.373-76.373-126.72-128-221.44-128s-177.067 51.627-221.44 128h-119.893v85.333h89.173c-2.133 14.080-3.84 28.16-3.84 42.667v42.667h-85.333v85.333h85.333v42.667c0 14.507 1.707 28.587 3.84 42.667h-89.173v85.333h119.893c19.2 33.28 45.653 61.867 77.227 83.627l-69.12 69.547 60.16 60.16 93.013-92.587c19.2 4.693 39.253 7.253 60.16 7.253s40.96-2.56 60.587-7.253l92.587 92.587 60.16-60.16-69.547-69.547c32-21.76 58.453-50.347 77.653-83.627zM682.667 320v170.667c0 9.387-1.28 20.053-2.987 29.44l-4.267 27.733-16.213 27.733c-12.8 22.613-30.293 41.387-51.627 55.893l-26.027 17.92-29.013 6.827c-13.653 3.413-26.88 5.12-40.533 5.12-13.227 0-26.88-1.707-40.107-5.12l-31.573-7.68-24.32-16.64c-20.907-14.507-38.827-33.707-51.627-55.893l-15.787-27.733-4.267-27.733c-1.707-9.387-2.987-20.053-2.987-29.867v-170.667c0-9.813 1.28-20.48 2.987-30.293l4.267-27.733 15.787-27.307c30.72-52.48 87.040-85.333 147.627-85.333s116.907 32.427 147.627 85.333l15.787 27.733 4.267 27.733c1.707 9.813 2.987 20.48 2.987 29.867zM426.667 362.667h170.667v-85.333h-170.667v85.333zM597.333 533.333h-170.667v-85.333h170.667v85.333z" />
<glyph unicode="&#xe991;" glyph-name="build" d="M579.238 537.192l387.413-387.415c17.067-17.067 17.067-43.947 0-60.16l-98.133-98.133c-16.64-16.64-43.52-16.64-60.16 0l-388.695 388.693c-98.987-37.12-214.613-16.213-293.973 63.147-98.133 97.708-107.093 250.881-27.733 359.255l163.413-163.413 60.587 60.16-163.84 164.267c108.8 79.36 261.547 70.4 359.682-27.733 80.64-81.067 101.12-198.827 61.44-298.667zM435.025 485.137l403.627-403.627 37.547 37.973-403.2 403.2c19.627 25.175 32.427 53.335 37.547 83.628 10.667 59.307-6.827 122.88-52.907 168.96-40.535 40.107-93.868 58.88-146.775 55.893l131.842-131.84-180.908-180.908-131.84 131.841c-2.987-52.907 15.787-106.667 56.32-146.775 44.373-44.373 105.387-61.867 163.413-53.333 30.293 4.267 59.307 15.787 85.335 34.987z" />
<glyph unicode="&#xe992;" glyph-name="burst_mode" d="M42.667 746.667v-597.333h85.333v597.333h-85.333zM213.333 746.667v-597.333h85.333v597.333h-85.333zM426.667 746.667c-23.467 0-42.667-19.2-42.667-42.667v-512c0-23.467 19.2-42.667 42.667-42.667h512c23.467 0 42.667 19.2 42.667 42.667v512c0 23.467-19.2 42.667-42.667 42.667h-512zM896 234.667h-426.667v426.667h426.667v-426.667zM658.347 311.893l-61.013 73.387-85.333-107.52h341.333l-109.653 143.787-85.333-109.653z" />
<glyph unicode="&#xe993;" glyph-name="business_center" d="M853.333 661.333c46.933 0 85.333-38.4 85.333-85.333v-213.333c0-31.147-17.493-58.453-42.667-73.387v-139.947c0-47.36-37.973-85.333-85.333-85.333h-597.333c-47.36 0-85.333 37.973-85.333 85.333v139.52c-25.6 14.933-42.667 41.813-42.667 73.813v213.333c0 46.933 38.4 85.333 85.333 85.333h170.667v85.333l85.333 85.333h170.667l85.333-85.333v-85.333h170.667zM426.667 746.667v-85.333h170.667v85.333h-170.667zM853.333 576h-682.667v-213.333h213.333v128h256v-128h213.333v213.333zM554.667 320v85.333h-85.333v-85.333h85.333zM213.333 149.333h597.333v128h-170.667v-42.667h-256v42.667h-170.667v-128z" />
<glyph unicode="&#xe994;" glyph-name="business" d="M512 661.333h426.667v-597.333h-853.333v768h426.667v-170.667zM170.667 149.333h85.333v85.333h-85.333v-85.333zM256 320h-85.333v85.333h85.333v-85.333zM170.667 490.667h85.333v85.333h-85.333v-85.333zM256 661.333h-85.333v85.333h85.333v-85.333zM341.333 149.333h85.333v85.333h-85.333v-85.333zM426.667 320h-85.333v85.333h85.333v-85.333zM341.333 490.667h85.333v85.333h-85.333v-85.333zM426.667 661.333h-85.333v85.333h85.333v-85.333zM853.333 149.333v426.667h-341.333v-85.333h85.333v-85.333h-85.333v-85.333h85.333v-85.333h-85.333v-85.333h341.333zM768 490.667h-85.333v-85.333h85.333v85.333zM682.667 320h85.333v-85.333h-85.333v85.333z" />
<glyph unicode="&#xe995;" glyph-name="cached" d="M512 704c-141.227 0-256-114.773-256-256h128l-170.667-170.667-170.667 170.667h128c0 188.587 152.747 341.333 341.333 341.333 66.987 0 129.28-19.627 181.76-52.907l-62.293-62.293c-35.413 19.2-76.373 29.867-119.467 29.867zM640 448l170.667 170.667 170.667-170.667h-128c0-188.587-152.747-341.333-341.333-341.333-66.987 0-129.28 19.627-181.76 52.907l62.293 62.293c35.413-19.2 76.373-29.867 119.467-29.867 141.227 0 256 114.773 256 256h-128z" />
<glyph unicode="&#xe996;" glyph-name="cake" d="M597.333 746.667c0 16.213-4.267 31.147-12.373 43.947l-72.96 126.72-72.96-126.72c-8.107-12.8-12.373-27.733-12.373-43.947 0-46.933 38.4-85.333 85.333-85.333 47.36 0 85.333 38.4 85.333 85.333zM554.667 533.333h213.333c70.827 0 128-57.173 128-128v-384c0-23.467-19.2-42.667-42.667-42.667h-682.667c-23.467 0-42.667 19.2-42.667 42.667v384c0 70.827 57.173 128 128 128h213.333v85.333h85.333v-85.333zM213.333 64h597.333v128c-38.4 0.427-75.093 15.787-102.4 43.093l-45.653 45.653-46.080-45.653c-55.467-55.467-152.747-55.893-208.64 0l-45.653 45.653-46.507-45.653c-27.307-27.307-64-42.667-102.4-43.093v-128zM753.067 280.32c15.36-15.787 35.84-23.893 57.6-24.32v149.333c0 23.467-19.2 42.667-42.667 42.667h-512c-23.467 0-42.667-19.2-42.667-42.667v-149.333c21.76 0.427 42.24 8.96 57.173 24.32l91.307 90.88 90.88-90.88c31.573-31.573 86.613-31.573 118.187 0l91.307 90.88 90.88-90.88z" />
<glyph unicode="&#xe997;" glyph-name="calendar_today" d="M853.333 832h-42.667v85.333h-85.333v-85.333h-426.667v85.333h-85.333v-85.333h-42.667c-46.933 0-85.333-38.4-85.333-85.333v-682.667c0-46.933 38.4-85.333 85.333-85.333h682.667c46.933 0 85.333 38.4 85.333 85.333v682.667c0 46.933-38.4 85.333-85.333 85.333zM853.333 64h-682.667v469.333h682.667v-469.333zM170.667 618.667v128h682.667v-128h-682.667z" />
<glyph unicode="&#xe998;" glyph-name="calendar_view_day" d="M896 725.333v-85.333h-768v85.333h768zM896 554.667v-213.333h-768v213.333h768zM810.667 426.667v42.667h-597.333v-42.667h597.333zM896 256v-85.333h-768v85.333h768z" />
<glyph unicode="&#xe999;" glyph-name="call_end" d="M12.373 437.76c130.133 123.307 305.92 199.253 499.627 199.253s369.493-75.947 499.627-199.253c7.68-7.68 12.373-18.347 12.373-30.293s-4.693-22.613-12.373-30.293l-105.813-105.813c-7.68-7.68-18.347-12.373-30.293-12.373-11.52 0-22.187 4.693-29.867 11.947-33.707 31.573-72.107 58.027-113.92 78.933-14.080 6.827-23.893 21.333-23.893 38.4v132.267c-61.44 20.48-127.573 31.147-195.84 31.147s-134.4-10.667-196.267-30.72v-132.267c0-16.64-9.813-31.573-23.893-38.4-41.813-20.907-79.787-47.787-113.493-78.933-7.68-7.68-18.347-11.947-29.867-11.947-11.947 0-22.613 4.693-30.293 12.373l-105.813 105.813c-7.68 7.253-12.373 17.92-12.373 29.867s4.693 22.613 12.373 30.293zM230.4 486.827v-72.533c-27.733-15.787-54.613-33.707-79.787-54.187l-45.653 45.653c38.827 32 81.067 58.88 125.44 81.067zM793.173 486.827l0.427-0.209v-72.751c28.587-16.213 55.467-34.133 80.213-54.187l45.653 45.653c-39.13 32.324-81.225 59.558-125.867 81.284v0.209h-0.427z" />
<glyph unicode="&#xe99a;" glyph-name="call_made" d="M405.333 768v-85.333h281.173l-494.507-494.507 60.16-60.16 494.507 494.507v-281.173h85.333v426.667h-426.667z" />
<glyph unicode="&#xe99b;" glyph-name="call_merge" d="M469.333 616.747h-149.332l191.999 192 192-192h-149.333v-273.493l-255.999-256-60.16 60.16 230.825 230.827v238.507zM785.493 147.413l-60.16-60.16-145.493 145.493 60.16 60.16 145.493-145.493z" />
<glyph unicode="&#xe99c;" glyph-name="call_missed_outgoing" d="M128 609.92l384-384 298.667 298.667v-195.84h85.333v341.333h-341.333v-85.333h195.84l-238.507-238.507-323.84 323.84-60.16-60.16z" />
<glyph unicode="&#xe99d;" glyph-name="call_missed" d="M835.84 670.080l-323.84-323.84-238.507 238.507h195.84v85.333h-341.333v-341.333h85.333v195.84l298.667-298.667 384 384-60.16 60.16z" />
<glyph unicode="&#xe99e;" glyph-name="call_received" d="M832 707.84l-60.16 60.16-494.507-494.507v281.173h-85.333v-426.667h426.667v85.333h-281.173l494.507 494.507z" />
<glyph unicode="&#xe99f;" glyph-name="call_split" d="M170.667 789.333h256l-97.707-97.707 225.707-226.133v-358.827h-85.333v323.84l-200.96 200.533-97.707-97.707v256zM695.040 691.627l-97.707 97.707h256v-256l-97.707 97.707-122.88-122.88-60.587 60.587 122.88 122.88z" />
<glyph unicode="&#xe9a0;" glyph-name="call_to_action" d="M896 832h-768c-46.933 0-85.333-38.4-85.333-85.333v-597.333c0-46.933 38.4-85.333 85.333-85.333h768c46.933 0 85.333 38.4 85.333 85.333v597.333c0 46.933-38.4 85.333-85.333 85.333zM896 149.333h-768v597.333h768v-597.333zM810.667 320h-597.333v-128h597.333v128z" />
<glyph unicode="&#xe9a1;" glyph-name="call" d="M170.667 832h149.333c23.467 0 42.667-19.2 42.667-42.667 0-53.333 8.533-104.533 24.32-152.32 4.693-14.933 1.28-31.573-10.667-43.52l-93.867-93.867c61.44-120.747 160.427-219.307 281.173-281.173l93.867 93.867c8.533 8.107 19.2 12.373 30.293 12.373 4.267 0 8.96-0.427 13.227-2.133 47.787-15.787 99.413-24.32 152.32-24.32 23.467 0 42.667-19.2 42.667-42.667v-148.907c0-23.467-19.2-42.667-42.667-42.667-400.64 0-725.333 324.693-725.333 725.333 0 23.467 19.2 42.667 42.667 42.667zM279.040 746.667c2.56-37.973 8.96-75.093 19.2-110.507l-51.2-51.2c-17.493 51.2-28.587 105.387-32.427 161.707h64.427zM699.733 233.813c36.267-10.24 73.387-16.64 110.933-19.2v-63.573c-56.32 3.84-110.507 14.933-162.133 32l51.2 50.773z" />
<glyph unicode="&#xe9a2;" glyph-name="camera_alt" d="M718.080 746.667h135.253c46.933 0 85.333-38.4 85.333-85.333v-512c0-46.933-38.4-85.333-85.333-85.333h-682.667c-46.933 0-85.333 38.4-85.333 85.333v512c0 46.933 38.4 85.333 85.333 85.333h135.253l78.080 85.333h256l78.080-85.333zM170.667 149.333h682.667v512h-172.8l-78.080 85.333h-180.907l-78.080-85.333h-172.8v-512zM512 618.667c-117.76 0-213.333-95.573-213.333-213.333s95.573-213.333 213.333-213.333c117.76 0 213.333 95.573 213.333 213.333s-95.573 213.333-213.333 213.333zM384 405.333c0-70.4 57.6-128 128-128s128 57.6 128 128c0 70.4-57.6 128-128 128s-128-57.6-128-128z" />
</font>
</defs>
</svg>
