<svg width="24" height="24" viewBox="0 0 24 24" fill="none" xmlns="http://www.w3.org/2000/svg">
<path d="M20.4863 4.80697L20.4336 4.6245L20.2439 4.63404C17.6663 4.75407 14.9352 3.92604 12.1199 2.1788L11.9927 2.09961L11.8655 2.1788C9.05261 3.92355 6.31931 4.75155 3.74617 4.63404L3.55649 4.6245L3.50376 4.80697C2.21504 9.26883 5.26291 17.1524 11.8532 21.7797L11.99 21.8756L12.1267 21.7797C18.7246 17.155 21.7747 9.2684 20.486 4.80697H20.4863ZM11.9955 21.2877C5.85148 16.8957 2.84891 9.3404 3.91948 5.11897C6.50196 5.19331 9.21148 4.36529 11.9955 2.66373C14.7795 4.36529 17.4915 5.19097 20.0741 5.11897C21.1492 9.34293 18.1443 16.8957 11.9955 21.2877Z" fill="white"/>
<path d="M4.96313 5.92807C3.89268 9.63838 6.52793 16.3201 11.9951 20.1601L11.9953 3.80664C9.6025 5.29224 7.25744 6.03388 4.9633 5.92824L4.96313 5.92807Z" fill="white"/>
</svg>
