<?xml version="1.0" encoding="UTF-8"?>
<svg width="32px" height="30px" viewBox="0 0 32 30" version="1.1" xmlns="http://www.w3.org/2000/svg" xmlns:xlink="http://www.w3.org/1999/xlink">
    <title>noun_excel_1194546</title>
    <g id="Page-1" stroke="none" stroke-width="1" fill="none" fill-rule="evenodd">
        <g id="1.3_Sync-Feed-Data_Upload-File-Modal_Uploading-File" transform="translate(-458.000000, -335.000000)" fill="#217346" fill-rule="nonzero">
            <g id="Group" transform="translate(442.000000, 322.000000)">
                <g id="noun_excel_1194546" transform="translate(16.000000, 13.000000)">
                    <path d="M18.1014925,25.6907463 L18.1014925,0.195820896 L16.0429851,0.195820896 C10.7558209,1.15104478 5.48298507,2.03462687 0.176716418,2.95164179 L0.176716418,27.0662687 C5.39701493,27.9880597 10.6841791,28.9098507 15.9379104,29.8650746 L18.0871642,29.8650746 L18.0871642,25.6907463 L18.1014925,25.6907463 Z M10.3259701,20.398806 C9.66742353,18.9906476 9.09015779,17.5458886 8.59701493,16.0716418 C8.11940299,17.4710448 7.46029851,18.7892537 6.92059701,20.16 C6.16597015,20.16 5.41134328,20.1170149 4.65671642,20.0883582 C5.54029851,18.3546269 6.39522388,16.6065672 7.30746269,14.8871642 C6.53373134,13.1104478 5.67880597,11.3719403 4.88119403,9.60955224 L7.1641791,9.48059701 C7.67522388,10.8274627 8.23880597,12.16 8.6638806,13.5402985 C9.14149254,12.0740299 9.7958209,10.6746269 10.3785075,9.28 C11.158607,9.22587065 11.9402985,9.17810945 12.7235821,9.13671642 C11.8065672,11.0216915 10.881592,12.9114428 9.94865672,14.8059701 C10.9038806,16.7164179 11.8591045,18.6507463 12.8143284,20.5802985 C11.9832836,20.5134328 11.1570149,20.4608955 10.3259701,20.398806 Z" id="Shape"></path>
                    <path d="M18.9707463,3.50089552 L18.9707463,5.33014925 L22.6244776,5.33014925 L22.6244776,8.02865672 L18.9707463,8.02865672 L18.9707463,9.50925373 L22.6244776,9.50925373 L22.6244776,12.2077612 L18.9707463,12.2077612 L18.9707463,13.6883582 L22.6244776,13.6883582 L22.6244776,16.3820896 L18.9707463,16.3820896 L18.9707463,17.8626866 L22.6244776,17.8626866 L22.6244776,20.5373134 L18.9707463,20.5373134 L18.9707463,22.1038806 L22.6244776,22.1038806 L22.6244776,24.7164179 L18.9707463,24.7164179 L18.9707463,26.5456716 L31.5892537,26.5456716 L31.5892537,3.50089552 L18.9707463,3.50089552 Z M28.8047761,24.7355224 L23.4937313,24.7355224 L23.4937313,22.1229851 L28.8047761,22.1229851 L28.8047761,24.7355224 Z M28.8047761,20.5564179 L23.4937313,20.5564179 L23.4937313,17.8579104 L28.8047761,17.8579104 L28.8047761,20.5564179 Z M28.8047761,16.3773134 L23.4937313,16.3773134 L23.4937313,13.6835821 L28.8047761,13.6835821 L28.8047761,16.3773134 Z M28.8047761,12.198209 L23.4937313,12.198209 L23.4937313,9.50447761 L28.8047761,9.50447761 L28.8047761,12.198209 Z M28.8047761,8.01910448 L23.4937313,8.01910448 L23.4937313,5.33014925 L28.8047761,5.33014925 L28.8047761,8.01910448 Z" id="Shape"></path>
                </g>
            </g>
        </g>
    </g>
</svg>