<svg xmlns="http://www.w3.org/2000/svg" width="32" height="36" viewBox="0 0 32 36">
    <g fill="#E10000" fill-rule="nonzero">
        <path d="M30.667 14.667h-4v-3.6C26.667 5.2 21.867.4 16 .4S5.333 5.2 5.333 11.067v3.6h-4C.533 14.667 0 15.2 0 16c0 .8.533 1.333 1.333 1.333h28v16H2.667v-12c0-.8-.534-1.333-1.334-1.333S0 20.533 0 21.333v13.334C0 35.467.533 36 1.333 36h29.334c.8 0 1.333-.533 1.333-1.333V16c0-.8-.533-1.333-1.333-1.333zM8 11.067c0-4.4 3.6-8 8-8s8 3.6 8 8v3.6H8v-3.6z"/>
        <path d="M21.333 25.333C21.333 22.4 18.933 20 16 20c-2.933 0-5.333 2.4-5.333 5.333 0 2.934 2.4 5.334 5.333 5.334 2.933 0 5.333-2.4 5.333-5.334zm-8 0c0-1.466 1.2-2.666 2.667-2.666 1.467 0 2.667 1.2 2.667 2.666C18.667 26.8 17.467 28 16 28a2.675 2.675 0 0 1-2.667-2.667z"/>
    </g>
</svg>
