<?xml version="1.0" encoding="UTF-8"?>
<svg width="60px" height="48px" viewBox="0 0 60 48" version="1.1" xmlns="http://www.w3.org/2000/svg" xmlns:xlink="http://www.w3.org/1999/xlink">
    <!-- Generator: Sketch 62 (91390) - https://sketch.com -->
    <title>ic_pan_green</title>
    <desc>Created with Sketch.</desc>
    <g id="Page-1" stroke="none" stroke-width="1" fill="none" fill-rule="evenodd">
        <g id="Artboard" transform="translate(-295.000000, -35.000000)">
            <g id="ic_pan_green" transform="translate(289.000000, 23.000000)">
                <g id="Icon-24px">
                    <polygon id="Shape" points="0 0 72 0 72 72 0 72"></polygon>
                    <path d="M60,12 C63.3,12 66,14.7 66,18 L66,18 L66,54 C66,57.3 63.3,60 60,60 L60,60 L12,60 C8.7,60 6,57.3 6,54 L6,54 L6,18 C6,14.7 8.7,12 12,12 L12,12 Z M60,48 L12,48 L12,52 L60,52 L60,48 Z M19.021978,24 L12,24 L12,42 L15.7087912,42 L15.7087912,35.657967 L18.9601648,35.657967 C21.0947802,35.657967 22.7657967,35.1490385 23.9732143,34.1311813 C25.1806319,33.1133242 25.7843407,31.7225275 25.7843407,29.9587912 C25.7843407,28.7967033 25.5082418,27.7603022 24.956044,26.8495879 C24.4038462,25.9388736 23.6146978,25.2362637 22.5885989,24.7417582 C21.6557817,24.2922078 20.58844,24.0469985 19.3865737,24.0061302 L19.021978,24 Z M36.9478022,24 L33.510989,24 L26.8104396,42 L30.7541209,42 L31.9903846,38.2912088 L38.4931319,38.2912088 L39.7417582,42 L43.6854396,42 L36.9478022,24 Z M49.0755495,24 L45.3667582,24 L45.3667582,42 L49.0755495,42 L49.0755495,30.1565934 L56.2953297,42 L60.0041209,42 L60.0041209,24 L56.3076923,24 L56.3076923,35.8681319 L49.0755495,24 Z M35.2293956,28.5494505 L37.4917582,35.2870879 L32.9917582,35.2870879 L35.2293956,28.5494505 Z M19.1085165,27.0041209 C20.0233516,27.0206044 20.7403846,27.3008242 21.2596154,27.8447802 C21.7788462,28.3887363 22.0384615,29.1016484 22.0384615,29.9835165 C22.0384615,30.8406593 21.7809066,31.5 21.2657967,31.9615385 C20.7506868,32.4230769 20.0027473,32.6538462 19.021978,32.6538462 L15.7087912,32.6538462 L15.7087912,27.0041209 L19.1085165,27.0041209 Z" id="Shape" fill="#43A047"></path>
                </g>
            </g>
        </g>
    </g>
</svg>