<?xml version="1.0" encoding="UTF-8"?>
<svg width="42px" height="66px" viewBox="0 0 42 66" version="1.1" xmlns="http://www.w3.org/2000/svg" xmlns:xlink="http://www.w3.org/1999/xlink">
    <!-- Generator: Sketch 62 (91390) - https://sketch.com -->
    <title>ic_phone_android_green</title>
    <desc>Created with Sketch.</desc>
    <g id="Page-1" stroke="none" stroke-width="1" fill="none" fill-rule="evenodd">
        <g id="Artboard" transform="translate(-28.000000, -26.000000)">
            <g id="ic_phone_android_green" transform="translate(13.000000, 23.000000)">
                <g id="Icon-24px">
                    <path d="M48,3 L24,3 C19.02,3 15,7.02 15,12 L15,60 C15,64.98 19.02,69 24,69 L48,69 C52.98,69 57,64.98 57,60 L57,12 C57,7.02 52.98,3 48,3 L48,3 Z M42,63 L30,63 L30,60 L42,60 L42,63 L42,63 Z M51.75,54 L20.25,54 L20.25,12 L51.75,12 L51.75,54 L51.75,54 Z" id="Shape" fill="#43A047"></path>
                    <polygon id="Shape" points="0 0 72 0 72 72 0 72"></polygon>
                </g>
            </g>
        </g>
    </g>
</svg>