<svg width="24" height="24" viewBox="0 0 24 24" fill="none" xmlns="http://www.w3.org/2000/svg">
<path d="M10.175 14.575C9.95833 14.575 9.77917 14.5042 9.6375 14.3625C9.49583 14.2208 9.425 14.0417 9.425 13.825V10.2C9.425 9.98333 9.49583 9.80417 9.6375 9.6625C9.77917 9.52083 9.95833 9.45 10.175 9.45H13.8C14.0167 9.45 14.1958 9.52083 14.3375 9.6625C14.4792 9.80417 14.55 9.98333 14.55 10.2V13.825C14.55 14.0417 14.4792 14.2208 14.3375 14.3625C14.1958 14.5042 14.0167 14.575 13.8 14.575H10.175ZM9.75 21C9.53333 21 9.35417 20.9292 9.2125 20.7875C9.07083 20.6458 9 20.4667 9 20.25V19H6.5C6.1 19 5.75 18.85 5.45 18.55C5.15 18.25 5 17.9 5 17.5V15H3.75C3.53333 15 3.35417 14.9292 3.2125 14.7875C3.07083 14.6458 3 14.4667 3 14.25C3 14.0333 3.07083 13.8542 3.2125 13.7125C3.35417 13.5708 3.53333 13.5 3.75 13.5H5V10.4H3.75C3.53333 10.4 3.35417 10.3292 3.2125 10.1875C3.07083 10.0458 3 9.86667 3 9.65C3 9.43333 3.07083 9.25417 3.2125 9.1125C3.35417 8.97083 3.53333 8.9 3.75 8.9H5V6.4C5 6 5.15 5.65 5.45 5.35C5.75 5.05 6.1 4.9 6.5 4.9H9V3.75C9 3.53333 9.07083 3.35417 9.2125 3.2125C9.35417 3.07083 9.53333 3 9.75 3C9.96667 3 10.1458 3.07083 10.2875 3.2125C10.4292 3.35417 10.5 3.53333 10.5 3.75V4.9H13.6V3.75C13.6 3.53333 13.6708 3.35417 13.8125 3.2125C13.9542 3.07083 14.1333 3 14.35 3C14.5667 3 14.7458 3.07083 14.8875 3.2125C15.0292 3.35417 15.1 3.53333 15.1 3.75V4.9H17.6C18 4.9 18.35 5.05 18.65 5.35C18.95 5.65 19.1 6 19.1 6.4V8.9H20.25C20.4667 8.9 20.6458 8.97083 20.7875 9.1125C20.9292 9.25417 21 9.43333 21 9.65C21 9.86667 20.9292 10.0458 20.7875 10.1875C20.6458 10.3292 20.4667 10.4 20.25 10.4H19.1V13.5H20.25C20.4667 13.5 20.6458 13.5708 20.7875 13.7125C20.9292 13.8542 21 14.0333 21 14.25C21 14.4667 20.9292 14.6458 20.7875 14.7875C20.6458 14.9292 20.4667 15 20.25 15H19.1V17.5C19.1 17.9 18.95 18.25 18.65 18.55C18.35 18.85 18 19 17.6 19H15.1V20.25C15.1 20.4667 15.0292 20.6458 14.8875 20.7875C14.7458 20.9292 14.5667 21 14.35 21C14.1333 21 13.9542 20.9292 13.8125 20.7875C13.6708 20.6458 13.6 20.4667 13.6 20.25V19H10.5V20.25C10.5 20.4667 10.4292 20.6458 10.2875 20.7875C10.1458 20.9292 9.96667 21 9.75 21ZM6.5 17.5H17.6V6.4H6.5V17.5ZM10.925 13.075H13.05V10.95H10.925V13.075Z" fill="#D9D9D9"/>
</svg>
