<svg width="20" height="20" viewBox="0 0 20 20" fill="none" xmlns="http://www.w3.org/2000/svg">
<path d="M8.47917 12.1458C8.29861 12.1458 8.14931 12.0868 8.03125 11.9688C7.91319 11.8507 7.85417 11.7014 7.85417 11.5208V8.5C7.85417 8.31944 7.91319 8.17014 8.03125 8.05208C8.14931 7.93403 8.29861 7.875 8.47917 7.875H11.5C11.6806 7.875 11.8299 7.93403 11.9479 8.05208C12.066 8.17014 12.125 8.31944 12.125 8.5V11.5208C12.125 11.7014 12.066 11.8507 11.9479 11.9688C11.8299 12.0868 11.6806 12.1458 11.5 12.1458H8.47917ZM8.125 17.5C7.94444 17.5 7.79514 17.441 7.67708 17.3229C7.55903 17.2049 7.5 17.0556 7.5 16.875V15.8333H5.41667C5.08333 15.8333 4.79167 15.7083 4.54167 15.4583C4.29167 15.2083 4.16667 14.9167 4.16667 14.5833V12.5H3.125C2.94444 12.5 2.79514 12.441 2.67708 12.3229C2.55903 12.2049 2.5 12.0556 2.5 11.875C2.5 11.6944 2.55903 11.5451 2.67708 11.4271C2.79514 11.309 2.94444 11.25 3.125 11.25H4.16667V8.66667H3.125C2.94444 8.66667 2.79514 8.60764 2.67708 8.48958C2.55903 8.37153 2.5 8.22222 2.5 8.04167C2.5 7.86111 2.55903 7.71181 2.67708 7.59375C2.79514 7.47569 2.94444 7.41667 3.125 7.41667H4.16667V5.33333C4.16667 5 4.29167 4.70833 4.54167 4.45833C4.79167 4.20833 5.08333 4.08333 5.41667 4.08333H7.5V3.125C7.5 2.94444 7.55903 2.79514 7.67708 2.67708C7.79514 2.55903 7.94444 2.5 8.125 2.5C8.30556 2.5 8.45486 2.55903 8.57292 2.67708C8.69097 2.79514 8.75 2.94444 8.75 3.125V4.08333H11.3333V3.125C11.3333 2.94444 11.3924 2.79514 11.5104 2.67708C11.6285 2.55903 11.7778 2.5 11.9583 2.5C12.1389 2.5 12.2882 2.55903 12.4062 2.67708C12.5243 2.79514 12.5833 2.94444 12.5833 3.125V4.08333H14.6667C15 4.08333 15.2917 4.20833 15.5417 4.45833C15.7917 4.70833 15.9167 5 15.9167 5.33333V7.41667H16.875C17.0556 7.41667 17.2049 7.47569 17.3229 7.59375C17.441 7.71181 17.5 7.86111 17.5 8.04167C17.5 8.22222 17.441 8.37153 17.3229 8.48958C17.2049 8.60764 17.0556 8.66667 16.875 8.66667H15.9167V11.25H16.875C17.0556 11.25 17.2049 11.309 17.3229 11.4271C17.441 11.5451 17.5 11.6944 17.5 11.875C17.5 12.0556 17.441 12.2049 17.3229 12.3229C17.2049 12.441 17.0556 12.5 16.875 12.5H15.9167V14.5833C15.9167 14.9167 15.7917 15.2083 15.5417 15.4583C15.2917 15.7083 15 15.8333 14.6667 15.8333H12.5833V16.875C12.5833 17.0556 12.5243 17.2049 12.4062 17.3229C12.2882 17.441 12.1389 17.5 11.9583 17.5C11.7778 17.5 11.6285 17.441 11.5104 17.3229C11.3924 17.2049 11.3333 17.0556 11.3333 16.875V15.8333H8.75V16.875C8.75 17.0556 8.69097 17.2049 8.57292 17.3229C8.45486 17.441 8.30556 17.5 8.125 17.5ZM5.41667 14.5833H14.6667V5.33333H5.41667V14.5833ZM9.10417 10.8958H10.875V9.125H9.10417V10.8958Z" fill="#D9D9D9"/>
</svg>
