<svg xmlns="http://www.w3.org/2000/svg" xmlns:xlink="http://www.w3.org/1999/xlink" width="59" height="12" viewBox="0 0 59 12">
    <defs>
        <path id="a" d="M0 .049h8.33V11.76H0z"/>
        <path id="c" d="M.04.049h7.864V11.76H.04z"/>
        <path id="e" d="M.04.075h11.926V12H.04z"/>
    </defs>
    <g fill="none" fill-rule="evenodd">
        <g transform="translate(0 .24)">
            <mask id="b" fill="#fff">
                <use xlink:href="#a"/>
            </mask>
            <path fill="#E10000" d="M5.637 8.605c0 .298-.107.55-.32.754-.213.206-.502.308-.867.308h-.989V2.096h.989c.365 0 .654.102.867.307.213.206.32.457.32.755v5.447zM7.432.972A3.22 3.22 0 0 0 6.283.295C5.822.131 5.277.05 4.648.05H0l.769 1.06v9.59L0 11.76h4.648c.629 0 1.174-.085 1.635-.254.462-.17.845-.4 1.149-.693.304-.292.53-.628.677-1.007.147-.38.22-.78.22-1.2V3.157c0-.421-.073-.818-.22-1.193a2.723 2.723 0 0 0-.677-.993z" mask="url(#b)"/>
        </g>
        <path fill="#E10000" d="M14.568 4.773c0 .62-.222.959-.839.984h-1.2v-3.59h1.07c.3 0 .983.048.969.927v1.68zm1.521 2.066c.213-.103.41-.24.594-.402.185-.163.613-.63.609-1.544V2.76c0-.247-.023-.515-.069-.804a1.977 1.977 0 0 0-.335-.819c-.177-.257-.446-.47-.806-.64-.36-.17-.855-.256-1.484-.256H9.84V12h2.688V7.92h1.584c.324 0 .67.168.668.632V12h2.74V8.678c0-.564-.163-1.632-1.43-1.84zM18.72 2.932v6.357c-.019 2.117 1.376 2.697 2.613 2.711h3.627V9.813h-3.097c-.546 0-.486-.548-.486-.548V7.189h3.179V5.026h-3.179V3.002s-.036-.595.491-.599h3.092V.24h-3.459c-2.468 0-2.78 1.694-2.78 2.692"/>
        <g transform="translate(26.4 .24)">
            <mask id="d" fill="#fff">
                <use xlink:href="#c"/>
            </mask>
            <path fill="#E10000" d="M5.15 5.54H2.744V1.971h1.228c.88 0 1.164.384 1.178 1.13V5.54zM4.244.048H.041V11.76h2.703V7.694H5.15v4.066h2.754V3.407C7.904.873 6.19.049 4.244.049z" mask="url(#d)"/>
        </g>
        <g transform="translate(35.76)">
            <mask id="f" fill="#fff">
                <use xlink:href="#e"/>
            </mask>
            <path fill="#E10000" d="M8.55.076C7.473.08 6.566.284 5.913.6a2.771 2.771 0 0 0-.753-.346c-.29-.087-2.114-.426-5.12.15V12h2.683V2.55c1.22-.147 1.541.02 1.66.092.446.262.45.802.45 1.023V12h2.357V3.389c0-.185-.015-.386-.045-.601.121-.051.233-.096.466-.148.233-.051.774-.176 1.21.045.207.105.46.329.458.92V12h2.688V3.42c0-.885-.053-1.826-.764-2.488-.467-.436-1.1-.86-2.651-.856" mask="url(#f)"/>
        </g>
        <path fill="#E10000" d="M49.44 2.732h1.188V12h2.652V.24h-3.077zM55.483.24l-.763 2.492h1.188V12h2.652V.24z"/>
    </g>
</svg>
