<svg width="24" height="24" viewBox="0 0 24 24" fill="none" xmlns="http://www.w3.org/2000/svg">
<path d="M12.3479 11.1359C10.4658 11.1359 8.93726 10.8336 7.76236 10.2291C6.58745 9.62452 6 8.94582 6 8.19297C6 7.42871 6.5846 6.74715 7.7538 6.14829C8.923 5.54943 10.4544 5.25 12.3479 5.25C14.23 5.25 15.7586 5.54943 16.9335 6.14829C18.1084 6.74715 18.6958 7.42871 18.6958 8.19297C18.6958 8.94582 18.1112 9.62452 16.942 10.2291C15.7728 10.8336 14.2414 11.1359 12.3479 11.1359ZM12.3479 14.9344C10.6369 14.9344 9.15114 14.6663 7.89068 14.1302C6.63023 13.5941 6 12.9439 6 12.1797V10.0751C6 10.4857 6.17966 10.8593 6.53897 11.1958C6.89829 11.5323 7.37738 11.8232 7.97624 12.0684C8.57509 12.3137 9.2538 12.5048 10.0124 12.6416C10.7709 12.7785 11.5494 12.847 12.3479 12.847C13.1464 12.847 13.9249 12.7814 14.6835 12.6502C15.442 12.519 16.1207 12.3308 16.7196 12.0856C17.3184 11.8403 17.7975 11.5466 18.1568 11.2044C18.5162 10.8622 18.6958 10.4857 18.6958 10.0751V12.1797C18.6958 12.9439 18.0684 13.5941 16.8137 14.1302C15.5589 14.6663 14.0703 14.9344 12.3479 14.9344ZM12.3479 18.75C10.6369 18.75 9.15114 18.4819 7.89068 17.9458C6.63023 17.4097 6 16.7595 6 15.9952V13.8907C6 14.3013 6.17966 14.6749 6.53897 15.0114C6.89829 15.3479 7.37738 15.6388 7.97624 15.884C8.57509 16.1293 9.2538 16.3175 10.0124 16.4487C10.7709 16.5798 11.5494 16.6454 12.3479 16.6454C13.1464 16.6454 13.9249 16.5798 14.6835 16.4487C15.442 16.3175 16.1207 16.1321 16.7196 15.8926C17.3184 15.653 17.7975 15.365 18.1568 15.0285C18.5162 14.692 18.6958 14.3127 18.6958 13.8907V15.9952C18.6958 16.7595 18.0684 17.4097 16.8137 17.9458C15.5589 18.4819 14.0703 18.75 12.3479 18.75Z" fill="#0060E5"/>
</svg>
