<svg width="20" height="20" viewBox="0 0 20 20" fill="none" xmlns="http://www.w3.org/2000/svg">
<path d="M11.2516 17.9168H8.72898C8.59961 17.9168 8.47995 17.8735 8.36999 17.7867C8.26003 17.7 8.19858 17.5832 8.18564 17.4364L7.87516 15.4147C7.70699 15.3613 7.48059 15.2513 7.19599 15.0844C6.91138 14.9176 6.62678 14.7341 6.34217 14.534L4.55692 15.3947C4.41462 15.4614 4.27555 15.4681 4.13972 15.4147C4.00388 15.3613 3.90362 15.2679 3.83894 15.1345L2.57762 12.8325C2.5 12.6991 2.4806 12.5623 2.5194 12.4222C2.55821 12.2821 2.63583 12.172 2.75226 12.0919L4.42109 10.8309C4.39521 10.7108 4.37904 10.5773 4.37257 10.4305C4.36611 10.2837 4.36287 10.1436 4.36287 10.0102C4.36287 9.89007 4.36611 9.75329 4.37257 9.59983C4.37904 9.44636 4.39521 9.30291 4.42109 9.16946L2.75226 7.92842C2.63583 7.83501 2.55821 7.71824 2.5194 7.57812C2.4806 7.438 2.5 7.30122 2.57762 7.16778L3.81953 4.86584C3.91009 4.73239 4.02005 4.64232 4.14942 4.59561C4.27878 4.54891 4.41462 4.55891 4.55692 4.62564L6.36158 5.48636C6.55563 5.31288 6.79172 5.14608 7.06986 4.98594C7.34799 4.82581 7.61643 4.69903 7.87516 4.60562L8.18564 2.5639C8.19858 2.43046 8.26003 2.31703 8.36999 2.22361C8.47995 2.1302 8.60608 2.0835 8.74838 2.0835H11.2516C11.381 2.0835 11.5006 2.1302 11.6106 2.22361C11.7206 2.31703 11.7885 2.43046 11.8144 2.5639L12.1248 4.5856C12.3706 4.67902 12.6326 4.80579 12.9107 4.96592C13.1889 5.12606 13.425 5.29954 13.619 5.48636L15.4431 4.62564C15.5595 4.55891 15.6889 4.54891 15.8312 4.59561C15.9735 4.64232 16.0834 4.73239 16.1611 4.86584L17.4224 7.14776C17.5 7.28121 17.5194 7.42132 17.4806 7.56811C17.4418 7.7149 17.3642 7.82833 17.2477 7.9084L15.5595 9.14945C15.5724 9.28289 15.5854 9.42301 15.5983 9.5698C15.6113 9.71659 15.6177 9.86338 15.6177 10.0102C15.6177 10.1436 15.6113 10.2837 15.5983 10.4305C15.5854 10.5773 15.5724 10.7174 15.5595 10.8509L17.2477 12.0919C17.3512 12.172 17.4224 12.2854 17.4612 12.4322C17.5 12.579 17.4871 12.7124 17.4224 12.8325L16.1611 15.1345C16.0834 15.2813 15.9767 15.3747 15.8409 15.4147C15.705 15.4548 15.5724 15.4414 15.4431 15.3747L13.619 14.514C13.425 14.6874 13.1986 14.8576 12.9398 15.0244C12.6811 15.1912 12.4094 15.3213 12.1248 15.4147L11.8144 17.4364C11.7885 17.5832 11.7206 17.7 11.6106 17.7867C11.5006 17.8735 11.381 17.9168 11.2516 17.9168ZM9.97089 12.5523C10.6565 12.5523 11.2419 12.3054 11.727 11.8117C12.2122 11.3179 12.4547 10.7174 12.4547 10.0102C12.4547 9.30291 12.2122 8.69907 11.727 8.19865C11.2419 7.69822 10.6565 7.44801 9.97089 7.44801C9.28525 7.44801 8.7031 7.69822 8.22445 8.19865C7.7458 8.69907 7.50647 9.30291 7.50647 10.0102C7.50647 10.7174 7.7458 11.3179 8.22445 11.8117C8.7031 12.3054 9.28525 12.5523 9.97089 12.5523ZM9.97089 11.4114C9.59573 11.4114 9.27555 11.2746 9.01035 11.001C8.74515 10.7274 8.61255 10.3972 8.61255 10.0102C8.61255 9.62318 8.74515 9.2929 9.01035 9.01934C9.27555 8.74577 9.59573 8.60899 9.97089 8.60899C10.3461 8.60899 10.6662 8.74577 10.9314 9.01934C11.1966 9.2929 11.3292 9.62318 11.3292 10.0102C11.3292 10.3972 11.1966 10.7274 10.9314 11.001C10.6662 11.2746 10.3461 11.4114 9.97089 11.4114ZM9.13648 16.7559H10.8247L11.1158 14.514C11.5427 14.4072 11.9405 14.2437 12.3092 14.0236C12.6779 13.8034 13.0175 13.5331 13.3279 13.2129L15.3849 14.1336L16.1611 12.7124L14.3176 11.3313C14.3693 11.1044 14.4114 10.8842 14.4437 10.6707C14.4761 10.4572 14.4922 10.237 14.4922 10.0102C14.4922 9.78331 14.4793 9.56313 14.4534 9.34962C14.4276 9.1361 14.3823 8.91592 14.3176 8.68906L16.1611 7.28788L15.4043 5.86668L13.3279 6.78746C13.0304 6.45384 12.6973 6.17027 12.3286 5.93674C11.9599 5.70321 11.5556 5.55308 11.1158 5.48636L10.8441 3.24447H9.13648L8.88422 5.50638C8.43144 5.59979 8.02393 5.75325 7.66171 5.96677C7.29948 6.18028 6.96313 6.45384 6.65265 6.78746L4.59573 5.86668L3.81953 7.28788L5.6436 8.66904C5.59185 8.8959 5.54981 9.11942 5.51746 9.33961C5.48512 9.55979 5.46895 9.77664 5.46895 9.99015C5.46895 10.217 5.48512 10.4405 5.51746 10.6607C5.54981 10.8809 5.59185 11.1044 5.6436 11.3313L3.81953 12.7124L4.59573 14.1336L6.65265 13.2129C6.96313 13.5465 7.30595 13.82 7.68111 14.0336C8.05627 14.2471 8.45731 14.4072 8.88422 14.514L9.13648 16.7559Z" fill="#D9D9D9"/>
</svg>
