<svg width="16" height="16" viewBox="0 0 16 16" fill="none" xmlns="http://www.w3.org/2000/svg">
<path d="M6.03556 10.0599C5.85501 10.0599 5.7057 10.0009 5.58765 9.88281C5.46959 9.76476 5.41056 9.61545 5.41056 9.4349V6.41406C5.41056 6.23351 5.46959 6.0842 5.58765 5.96615C5.7057 5.84809 5.85501 5.78906 6.03556 5.78906H9.0564C9.23695 5.78906 9.38626 5.84809 9.50431 5.96615C9.62237 6.0842 9.6814 6.23351 9.6814 6.41406V9.4349C9.6814 9.61545 9.62237 9.76476 9.50431 9.88281C9.38626 10.0009 9.23695 10.0599 9.0564 10.0599H6.03556ZM5.6814 15.4141C5.50084 15.4141 5.35153 15.355 5.23348 15.237C5.11542 15.1189 5.0564 14.9696 5.0564 14.7891V13.7474H2.97306C2.63973 13.7474 2.34806 13.6224 2.09806 13.3724C1.84806 13.1224 1.72306 12.8307 1.72306 12.4974V10.4141H0.681396C0.500841 10.4141 0.351535 10.355 0.23348 10.237C0.115424 10.1189 0.0563965 9.96962 0.0563965 9.78906C0.0563965 9.60851 0.115424 9.4592 0.23348 9.34115C0.351535 9.22309 0.500841 9.16406 0.681396 9.16406H1.72306V6.58073H0.681396C0.500841 6.58073 0.351535 6.5217 0.23348 6.40365C0.115424 6.28559 0.0563965 6.13628 0.0563965 5.95573C0.0563965 5.77517 0.115424 5.62587 0.23348 5.50781C0.351535 5.38976 0.500841 5.33073 0.681396 5.33073H1.72306V3.2474C1.72306 2.91406 1.84806 2.6224 2.09806 2.3724C2.34806 2.1224 2.63973 1.9974 2.97306 1.9974H5.0564V1.03906C5.0564 0.858507 5.11542 0.709201 5.23348 0.591146C5.35153 0.47309 5.50084 0.414062 5.6814 0.414062C5.86195 0.414062 6.01126 0.47309 6.12931 0.591146C6.24737 0.709201 6.3064 0.858507 6.3064 1.03906V1.9974H8.88973V1.03906C8.88973 0.858507 8.94876 0.709201 9.06681 0.591146C9.18487 0.47309 9.33417 0.414062 9.51473 0.414062C9.69529 0.414062 9.84459 0.47309 9.96265 0.591146C10.0807 0.709201 10.1397 0.858507 10.1397 1.03906V1.9974H12.2231C12.5564 1.9974 12.8481 2.1224 13.0981 2.3724C13.3481 2.6224 13.4731 2.91406 13.4731 3.2474V5.33073H14.4314C14.612 5.33073 14.7613 5.38976 14.8793 5.50781C14.9974 5.62587 15.0564 5.77517 15.0564 5.95573C15.0564 6.13628 14.9974 6.28559 14.8793 6.40365C14.7613 6.5217 14.612 6.58073 14.4314 6.58073H13.4731V9.16406H14.4314C14.612 9.16406 14.7613 9.22309 14.8793 9.34115C14.9974 9.4592 15.0564 9.60851 15.0564 9.78906C15.0564 9.96962 14.9974 10.1189 14.8793 10.237C14.7613 10.355 14.612 10.4141 14.4314 10.4141H13.4731V12.4974C13.4731 12.8307 13.3481 13.1224 13.0981 13.3724C12.8481 13.6224 12.5564 13.7474 12.2231 13.7474H10.1397V14.7891C10.1397 14.9696 10.0807 15.1189 9.96265 15.237C9.84459 15.355 9.69529 15.4141 9.51473 15.4141C9.33417 15.4141 9.18487 15.355 9.06681 15.237C8.94876 15.1189 8.88973 14.9696 8.88973 14.7891V13.7474H6.3064V14.7891C6.3064 14.9696 6.24737 15.1189 6.12931 15.237C6.01126 15.355 5.86195 15.4141 5.6814 15.4141ZM2.97306 12.4974H12.2231V3.2474H2.97306V12.4974ZM6.66056 8.8099H8.4314V7.03906H6.66056V8.8099Z" fill="#8F8F8F"/>
</svg>
