<svg width="20" height="20" viewBox="0 0 20 20" fill="none" xmlns="http://www.w3.org/2000/svg">
<g id="Frame 427324990">
<g id="Group 427324893">
<path id="Union" fill-rule="evenodd" clip-rule="evenodd" d="M10.2759 0C8.28277 0 6.55173 1.13103 5.68966 2.78621C3.6138 3.0069 2.00001 4.76552 2.00001 6.89655C2.00001 8.94438 3.49298 10.6481 5.44829 10.9771L5.44829 14.5697C4.25847 14.8759 3.37932 15.956 3.37932 17.2414C3.37932 18.7649 4.6144 20 6.13794 20C7.66148 20 8.89656 18.7649 8.89656 17.2414C8.89656 15.956 8.01741 14.8759 6.8276 14.5697L6.8276 11.0345H10.2759L10.2759 17.931L10.9655 17.931H13.1214C13.4276 19.1208 14.5077 20 15.7931 20C17.3167 20 18.5517 18.7649 18.5517 17.2414C18.5517 15.7178 17.3167 14.4828 15.7931 14.4828C14.5077 14.4828 13.4276 15.3619 13.1214 16.5517H11.6552V11.0345H15.1035C17.0069 11.0345 18.5517 9.48965 18.5517 7.58621C18.5517 5.76552 17.1379 4.28965 15.3448 4.16552C14.8759 1.78621 12.7862 0 10.2759 0ZM11.6552 9.65517H10.2759L6.8276 9.65517H6.13794L6.13629 9.65517C4.61291 9.65429 3.37932 8.42014 3.37932 6.89655C3.37932 5.48276 4.43449 4.30345 5.83449 4.15862L6.57242 4.08276L6.91725 3.42759C7.57242 2.16552 8.85518 1.37931 10.2759 1.37931C12.0828 1.37931 13.6414 2.66207 13.9931 4.43448L14.2 5.46897L15.2552 5.54483C16.331 5.6138 17.1724 6.51724 17.1724 7.58621C17.1724 8.72414 16.2414 9.65517 15.1035 9.65517L11.6552 9.65517ZM6.13794 15.8621C5.37617 15.8621 4.75863 16.4796 4.75863 17.2414C4.75863 18.0032 5.37617 18.6207 6.13794 18.6207C6.89971 18.6207 7.51725 18.0032 7.51725 17.2414C7.51725 16.4796 6.89971 15.8621 6.13794 15.8621ZM14.4138 17.2414C14.4138 16.4796 15.0313 15.8621 15.7931 15.8621C16.5549 15.8621 17.1724 16.4796 17.1724 17.2414C17.1724 18.0032 16.5549 18.6207 15.7931 18.6207C15.0313 18.6207 14.4138 18.0032 14.4138 17.2414Z" fill="#DADADA"/>
</g>
</g>
</svg>
