<svg width="66" height="72" viewBox="0 0 66 72" fill="none" xmlns="http://www.w3.org/2000/svg">
<g clip-path="url(#clip0_2622_83469)">
<path d="M58.9138 11.5208L56.7207 26.2838L51.0486 64.4709C50.9597 65.0713 50.7534 65.6482 50.4416 66.1687C50.1298 66.6892 49.7186 67.1432 49.2314 67.5046C48.7443 67.866 48.1908 68.1278 47.6025 68.2751C47.0142 68.4223 46.4028 68.4521 45.803 68.3627L37.0149 67.0518L5.22756 62.3215L4.00296 62.1392C2.79172 61.959 1.7016 61.3046 0.972393 60.32C0.243188 59.3354 -0.0653651 58.1012 0.114616 56.8889L5.22756 22.4641L7.86358 4.72243L7.97977 3.93813C8.16117 2.72691 8.81555 1.6373 9.79913 0.908682C10.7827 0.180068 12.0151 -0.127953 13.2254 0.0522895L41.6526 4.28105L49.3249 5.42282L55.0228 6.27056C55.6228 6.35945 56.1994 6.56578 56.7197 6.87777C57.2399 7.18976 57.6937 7.6013 58.055 8.08886C58.4164 8.57643 58.6782 9.13047 58.8255 9.71934C58.9729 10.3082 59.0029 10.9204 58.9138 11.5208Z" fill="#29303C"/>
<path opacity="0.1" d="M56.7217 12.8227V26.284L51.0496 64.4711C50.9061 65.4497 50.4512 66.3559 49.7524 67.0553H37.0159L5.22852 62.325V8.90184C5.228 8.29491 5.34705 7.69383 5.57887 7.133C5.81069 6.57217 6.15071 6.06259 6.5795 5.63343C7.00828 5.20426 7.51741 4.86393 8.07774 4.63191C8.63808 4.39989 9.23862 4.28073 9.84502 4.28125H48.1891L49.3299 5.42302L56.7217 12.8227Z" fill="black"/>
<path d="M55.2614 11.3618V60.9737C55.2614 61.5806 55.142 62.1815 54.9099 62.7421C54.6779 63.3028 54.3378 63.8122 53.909 64.2412C53.4803 64.6703 52.9713 65.0106 52.4111 65.2428C51.8509 65.475 51.2505 65.5944 50.6442 65.5943H8.38474C7.77844 65.5944 7.17806 65.475 6.61788 65.2428C6.0577 65.0106 5.5487 64.6703 5.11995 64.2412C4.6912 63.8122 4.35109 63.3028 4.11905 62.7421C3.88701 62.1815 3.76758 61.5806 3.76758 60.9737V7.4409C3.76758 6.83406 3.88701 6.23316 4.11905 5.67252C4.35109 5.11188 4.6912 4.60248 5.11995 4.17341C5.5487 3.74435 6.0577 3.40401 6.61788 3.17185C7.17806 2.93968 7.77844 2.82023 8.38474 2.82031H46.7268L55.2614 11.3618Z" fill="#474E61"/>
<rect x="11.1719" y="13.7871" width="35.617" height="3.44681" rx="1.7234" fill="#29303C"/>
<rect x="11.1719" y="21.0645" width="11.1064" height="3.44681" rx="1.7234" fill="#29303C"/>
<path opacity="0.1" d="M55.2612 11.3608V12.5356H52.5169C51.9106 12.5357 51.3103 12.4162 50.7501 12.184C50.19 11.9519 49.681 11.6115 49.2523 11.1824C48.8236 10.7534 48.4836 10.244 48.2516 9.68333C48.0197 9.12269 47.9003 8.52181 47.9004 7.915V3.99414L55.2612 11.3608Z" fill="black"/>
<path d="M64.3105 68.8857L62.062 71.1362L48.674 57.7363L46.0492 55.1092L45.0332 54.0923L47.2811 51.8418L48.297 52.8587L50.9225 55.4858L64.3105 68.8857Z" fill="#29303C"/>
<g opacity="0.2">
<path d="M48.297 52.8593L46.0488 55.1094L48.6737 57.7365L50.9218 55.4864L48.297 52.8593Z" fill="black"/>
</g>
<path d="M62.2871 72.4383L50.3078 60.4491C50.0982 60.2386 49.9805 59.9535 49.9805 59.6562C49.9805 59.359 50.0982 59.0739 50.3078 58.8633L52.0513 57.1183C52.1552 57.014 52.2786 56.9312 52.4146 56.8746C52.5505 56.8181 52.6963 56.7891 52.8435 56.7891C52.9907 56.7891 53.1364 56.8181 53.2724 56.8746C53.4083 56.9312 53.5318 57.014 53.6357 57.1183L65.6149 69.1075C65.8246 69.3181 65.9423 69.6032 65.9423 69.9004C65.9423 70.1977 65.8246 70.4828 65.6149 70.6933L63.8715 72.4383C63.7676 72.5427 63.6441 72.6255 63.5082 72.682C63.3722 72.7385 63.2265 72.7676 63.0793 72.7676C62.9321 72.7676 62.7863 72.7385 62.6504 72.682C62.5144 72.6255 62.391 72.5427 62.2871 72.4383Z" fill="#29303C"/>
<path d="M50.5316 54.9213L48.1075 57.3469C47.9071 57.5474 47.6353 57.66 47.3519 57.66C47.0686 57.66 46.7968 57.5474 46.5964 57.3469L46.3568 57.1071L45.4827 56.2316C45.2824 56.0311 45.1699 55.7592 45.1699 55.4757C45.1699 55.1922 45.2824 54.9203 45.4827 54.7198L47.9062 52.2935C48.1065 52.0931 48.3781 51.9805 48.6614 51.9805C48.9446 51.9805 49.2163 52.0931 49.4166 52.2935L50.3408 53.2186L50.5296 53.4069C50.6292 53.5062 50.7082 53.6241 50.7621 53.754C50.8161 53.8838 50.844 54.023 50.8442 54.1637C50.8444 54.3043 50.8168 54.4436 50.7632 54.5736C50.7096 54.7036 50.6309 54.8218 50.5316 54.9213Z" fill="#29303C"/>
<g opacity="0.2">
<path d="M49.4146 52.2935C49.2143 52.0931 48.9427 51.9805 48.6594 51.9805C48.3762 51.9805 48.1045 52.0931 47.9042 52.2935L45.4808 54.7198C45.2805 54.9203 45.168 55.1922 45.168 55.4757C45.168 55.7592 45.2805 56.0311 45.4808 56.2316L46.3548 57.1071C47.8823 56.0326 49.228 54.7203 50.3409 53.2199L49.4146 52.2935Z" fill="black"/>
</g>
<path d="M48.0315 30.1646C45.8989 28.0198 43.2366 26.4788 40.3155 25.6986C38.8623 25.3125 37.365 25.1177 35.8614 25.1191C31.2968 25.1191 26.9191 26.9341 23.6914 30.1646C20.4637 33.3952 18.6504 37.7767 18.6504 42.3454C18.6492 43.8505 18.8438 45.3493 19.2294 46.8041C19.947 49.4775 21.2973 51.9387 23.166 53.9795C25.0347 56.0202 27.3669 57.5807 29.9653 58.5288C32.5638 59.477 35.3522 59.785 38.0947 59.4268C40.8372 59.0685 43.4532 58.0546 45.7216 56.4708C46.049 56.2409 46.3692 55.9986 46.6821 55.744C47.1528 55.3618 47.6034 54.9556 48.0321 54.5269C48.3565 54.2027 48.6646 53.8681 48.9564 53.5232C49.2178 53.2171 49.4673 52.9041 49.705 52.5843C52.1524 49.265 53.3293 45.1772 53.0219 41.0634C52.7144 36.9496 50.9431 33.0825 48.0295 30.1646H48.0315ZM35.8614 55.6726C33.5627 55.6716 31.3034 55.0752 29.3031 53.9415C27.3029 52.8077 25.6298 51.1752 24.4466 49.2026L24.4407 49.1927C24.4057 49.1332 24.37 49.0738 24.335 49.0136C24.3093 48.9694 24.2842 48.9251 24.2591 48.8815C24.2221 48.8154 24.1865 48.7493 24.1508 48.6833L24.0908 48.5723C23.935 48.2793 23.7906 47.9802 23.6577 47.675C23.6359 47.6254 23.6141 47.5759 23.5917 47.5263C23.5692 47.4768 23.5501 47.4265 23.5257 47.3763C23.4847 47.2765 23.4451 47.1748 23.4069 47.0737C23.3917 47.036 23.3771 46.9971 23.3633 46.9581C23.3534 46.9323 23.3428 46.9059 23.3349 46.8794C23.321 46.8424 23.3078 46.8054 23.2946 46.7678C23.2378 46.6085 23.1844 46.4473 23.1342 46.2854C23.1197 46.2385 23.1058 46.1923 23.092 46.146C23.0781 46.0998 23.0609 46.0403 23.0464 45.9881C23.0319 45.9359 23.0193 45.8929 23.0061 45.844C22.9949 45.8064 22.985 45.7681 22.9751 45.7297C22.9579 45.6637 22.9408 45.5976 22.9243 45.5315C22.8939 45.4093 22.8662 45.287 22.8398 45.1635C22.8299 45.1186 22.8206 45.0736 22.8114 45.028C22.7883 44.9157 22.7665 44.8034 22.7454 44.6897C22.7394 44.654 22.7335 44.6197 22.7269 44.584C22.6959 44.4043 22.6701 44.2232 22.6463 44.0402C22.6397 43.9854 22.6325 43.9299 22.6265 43.8744C22.6206 43.8189 22.6133 43.7627 22.6081 43.7059C22.6028 43.6491 22.5949 43.5737 22.5896 43.5077C22.5823 43.431 22.577 43.3544 22.5717 43.2771C22.5671 43.211 22.5632 43.1449 22.5592 43.0788C22.5552 43.0128 22.5513 42.9321 22.5493 42.8581C22.5493 42.8099 22.5453 42.761 22.5447 42.7121C22.544 42.6632 22.5447 42.6229 22.5414 42.58C22.5414 42.502 22.5414 42.424 22.5414 42.3454C22.5414 34.9966 28.5152 29.0175 35.8575 29.0175C35.9354 29.0175 36.0133 29.0175 36.0912 29.0175C36.1361 29.0175 36.1803 29.0175 36.2232 29.0175C36.2661 29.0175 36.3209 29.0175 36.3691 29.0222C36.443 29.0222 36.5163 29.0281 36.5896 29.0321L36.7876 29.0446C36.8649 29.0499 36.9415 29.0552 37.018 29.0625C37.0946 29.0697 37.1501 29.0737 37.2161 29.081C37.2821 29.0882 37.3277 29.0922 37.3838 29.0995L37.5501 29.1193C37.7323 29.1424 37.9132 29.1688 38.0928 29.1999L38.1984 29.2184C38.3119 29.2389 38.4242 29.26 38.5364 29.2845L38.6684 29.3129C38.7919 29.3393 38.914 29.3671 39.0368 29.3975L39.2349 29.4483C39.2731 29.4583 39.3114 29.4682 39.3491 29.4794C39.3973 29.4926 39.4448 29.5052 39.493 29.5197C39.5412 29.5342 39.5979 29.5488 39.6508 29.5653L39.79 29.6076C39.9524 29.6578 40.1129 29.7113 40.2726 29.7681C40.3096 29.7805 40.3466 29.7937 40.3835 29.8078C40.4099 29.8164 40.4363 29.8269 40.4628 29.8369L40.5776 29.8798C40.6793 29.9181 40.7803 29.9584 40.88 29.9994C40.9301 30.0199 40.9803 30.0404 41.0298 30.0622C41.0793 30.084 41.1289 30.1045 41.1784 30.1283C41.4834 30.2604 41.7822 30.4049 42.0749 30.5617L42.1858 30.6218C42.2518 30.6575 42.3178 30.6932 42.3805 30.7302L42.5125 30.8062L42.6921 30.9119L42.7014 30.9172C44.6721 32.1016 46.3031 33.7762 47.4358 35.7781C48.5685 37.7801 49.1644 40.0414 49.1656 42.3421C49.1762 49.6942 43.2037 55.6726 35.8614 55.6726Z" fill="#29303C"/>
<path opacity="0.2" d="M45.7755 33.218L45.7663 33.2127C45.7062 33.1763 45.6468 33.142 45.5867 33.107C45.5425 33.0805 45.4983 33.0561 45.4547 33.031C45.3887 32.994 45.326 32.9583 45.26 32.9226C45.2236 32.9015 45.186 32.8823 45.149 32.8625C44.8564 32.7065 44.5575 32.5621 44.2526 32.429C44.203 32.4066 44.1535 32.3854 44.104 32.363C44.0545 32.3405 44.0043 32.32 43.9542 32.3002C43.8545 32.2592 43.7561 32.2189 43.6518 32.1806C43.6142 32.1654 43.5752 32.1515 43.5369 32.1376C43.5105 32.1277 43.4841 32.1172 43.4577 32.1086C43.4207 32.094 43.3838 32.0808 43.3468 32.0689C43.187 32.0121 43.0266 31.9586 42.8642 31.9084L42.7249 31.8661C42.6721 31.8496 42.62 31.835 42.5672 31.8205C42.5144 31.8059 42.4714 31.7934 42.4232 31.7802C42.3856 31.7689 42.3473 31.759 42.309 31.7491C42.243 31.7313 42.177 31.7141 42.111 31.6982C41.9882 31.6679 41.8661 31.6401 41.7426 31.6137C41.6977 31.6038 41.6528 31.5932 41.6106 31.5853C41.4984 31.5615 41.3861 31.5403 41.2726 31.5192C41.2369 31.5126 41.2026 31.506 41.167 31.5007C40.9874 31.4696 40.8065 31.4432 40.6243 31.4201L40.458 31.4003C40.4018 31.393 40.3464 31.387 40.2903 31.3818C40.2342 31.3765 40.1582 31.3685 40.0922 31.3633C40.0156 31.356 39.9391 31.35 39.8618 31.3454C39.7958 31.3408 39.7298 31.3362 39.6638 31.3329C39.5978 31.3296 39.5172 31.3249 39.4433 31.3229C39.3951 31.3229 39.3462 31.319 39.2974 31.3183C39.2485 31.3177 39.2083 31.3183 39.1654 31.3183C39.0875 31.3183 39.0096 31.3183 38.9317 31.3183C31.5894 31.3183 25.6156 37.2974 25.6156 44.6462C25.6156 44.7248 25.6156 44.8028 25.6156 44.8808C25.6156 44.9257 25.6156 44.97 25.6189 45.0129C25.6222 45.0559 25.6189 45.1107 25.6235 45.1589C25.6235 45.2329 25.6294 45.3063 25.6334 45.3796C25.6374 45.453 25.6413 45.5118 25.6459 45.5778C25.6506 45.6551 25.6565 45.7318 25.6638 45.8084C25.669 45.8745 25.675 45.9406 25.6822 46.0067C25.6895 46.0727 25.6935 46.119 25.7007 46.1752C25.708 46.2313 25.7133 46.2855 25.7205 46.341C25.7443 46.524 25.77 46.7051 25.8011 46.8848C25.8064 46.9205 25.813 46.9548 25.8196 46.9905C25.84 47.1042 25.8618 47.2165 25.8856 47.3288C25.8942 47.3744 25.9041 47.4193 25.914 47.4643C25.9404 47.5878 25.9681 47.7101 25.9985 47.8323C26.0143 47.8984 26.0315 47.9645 26.0493 48.0305C26.0592 48.0688 26.0691 48.1072 26.0803 48.1448C26.0935 48.1931 26.1067 48.2406 26.1206 48.2889C26.1345 48.3371 26.1496 48.3939 26.1661 48.4468C26.1826 48.4997 26.1939 48.5393 26.2084 48.5862C26.2586 48.7481 26.312 48.9093 26.3688 49.0686C26.3807 49.1062 26.3939 49.1432 26.4091 49.1802C26.417 49.2066 26.4276 49.2331 26.4375 49.2588C26.4513 49.2978 26.4652 49.3368 26.481 49.3745C26.5187 49.4756 26.5589 49.5773 26.5999 49.6771C26.6197 49.7273 26.6408 49.7775 26.6659 49.8271C26.691 49.8766 26.7075 49.9262 26.7319 49.9758C26.8639 50.281 27.0083 50.5801 27.165 50.873C27.1848 50.91 27.2046 50.9477 27.225 50.984C27.2607 51.0501 27.2963 51.1162 27.3333 51.1823C27.3584 51.2272 27.3828 51.2715 27.4092 51.3144C27.4442 51.3745 27.4785 51.434 27.5149 51.4935L27.5208 51.5034C25.6438 51.049 23.8726 50.2344 22.3055 49.1049C21.92 47.6501 21.7254 46.1513 21.7266 44.6462C21.7266 42.384 22.1718 40.1439 23.0367 38.0538C23.9017 35.9638 25.1695 34.0648 26.7678 32.4652C28.3661 30.8655 30.2635 29.5967 32.3517 28.731C34.4399 27.8653 36.678 27.4198 38.9383 27.4199C40.4418 27.4185 41.9391 27.6133 43.3924 27.9994C44.516 29.5685 45.3253 31.3407 45.7755 33.218Z" fill="#29303C"/>
<path opacity="0.2" d="M48.3199 32.9354C48.3282 36.1712 51.0126 43.3583 49.0859 45.9567C48.8779 46.2388 47.021 51.0495 46.788 51.3184C46.5305 51.6219 39.4132 56.779 39.1284 57.0631C38.751 57.4395 31.5001 55.1958 31.0859 55.5312C30.8112 55.7552 29.4096 55.0822 26.1071 52.8503C23.5734 54.6306 27.288 51.3252 24.1922 51.3184C23.1555 51.3191 24.7206 48.2606 23.7053 48.0508C22.764 46.1911 22.2748 44.1352 22.2774 42.0505C22.2774 34.7017 28.2511 28.7227 35.5934 28.7227C37.6761 28.7204 39.7299 29.2103 41.5877 30.1525C41.7978 31.1687 48.3202 31.8977 48.3199 32.9354Z" fill="#1E242D"/>
<path d="M55.2611 11.3618H51.3431C50.7368 11.3618 50.1364 11.2424 49.5763 11.0102C49.0162 10.778 48.5072 10.4377 48.0785 10.0086C47.6498 9.57953 47.3098 9.07013 47.0778 8.50949C46.8458 7.94886 46.7265 7.34798 46.7266 6.74117V2.82031L55.2611 11.3618Z" fill="#57ABFF"/>
<path d="M30.0007 47.6521V48.8393C30.0007 49.3116 30.1861 49.7645 30.516 50.0985C30.8461 50.4324 31.2936 50.62 31.7603 50.62H39.9722C40.439 50.62 40.8865 50.4324 41.2166 50.0985C41.5465 49.7645 41.7319 49.3116 41.7319 48.8393V47.862C41.7518 46.3315 41.2002 44.8497 40.1873 43.7131C39.1743 42.5763 37.7748 41.8683 36.2684 41.7305C35.1961 41.6572 34.1245 41.8833 33.1702 42.3838C32.2162 42.8844 31.4159 43.6403 30.8571 44.5693C30.2982 45.4984 30.002 46.5645 30.0007 47.6521ZM35.8663 41.1229C34.9329 41.1229 34.0377 40.7477 33.3777 40.0797C32.7177 39.4118 32.3469 38.506 32.3469 37.5614C32.3469 36.6169 32.7177 35.711 33.3777 35.0431C34.0377 34.3752 34.9329 34 35.8663 34C36.7997 34 37.6948 34.3752 38.3548 35.0431C39.0148 35.711 39.3857 36.6169 39.3857 37.5614C39.3846 38.5057 39.0135 39.4109 38.3537 40.0785C37.6939 40.7463 36.7994 41.1218 35.8663 41.1229Z" fill="#C6AEEF"/>
</g>
<defs>
<clipPath id="clip0_2622_83469">
<rect width="65.8723" height="72" fill="white" transform="translate(0.0644531)"/>
</clipPath>
</defs>
</svg>
