<svg width="24" height="24" viewBox="0 0 24 24" fill="none" xmlns="http://www.w3.org/2000/svg">
<path d="M4 21C3.16667 21 2.45833 20.7083 1.875 20.125C1.29167 19.5417 1 18.8333 1 18C1 17.1667 1.29167 16.4583 1.875 15.875C2.45833 15.2917 3.16667 15 4 15C4.18333 15 4.36667 15.0167 4.55 15.05C4.73333 15.0833 4.91667 15.1333 5.1 15.2L9.1 9.725C8.76667 9.35833 8.5 8.94583 8.3 8.4875C8.1 8.02917 8 7.53333 8 7C8 5.9 8.39167 4.95833 9.175 4.175C9.95833 3.39167 10.9 3 12 3C13.1 3 14.0417 3.39167 14.825 4.175C15.6083 4.95833 16 5.9 16 7C16 7.53333 15.9 8.02917 15.7 8.4875C15.5 8.94583 15.2333 9.35833 14.9 9.725L18.9 15.225C19.0833 15.1417 19.2625 15.0833 19.4375 15.05C19.6125 15.0167 19.8 15 20 15C20.8333 15 21.5417 15.2917 22.125 15.875C22.7083 16.4583 23 17.1667 23 18C23 18.8333 22.7083 19.5417 22.125 20.125C21.5417 20.7083 20.8333 21 20 21C19.1667 21 18.4583 20.7083 17.875 20.125C17.2917 19.5417 17 18.8333 17 18C17 17.6333 17.0625 17.2917 17.1875 16.975C17.3125 16.6583 17.4833 16.3667 17.7 16.1L13.7 10.625C13.55 10.7083 13.3958 10.7708 13.2375 10.8125C13.0792 10.8542 12.9167 10.8917 12.75 10.925V15.1C13.4 15.2667 13.9375 15.6167 14.3625 16.15C14.7875 16.6833 15 17.3 15 18C15 18.8333 14.7083 19.5417 14.125 20.125C13.5417 20.7083 12.8333 21 12 21C11.1667 21 10.4583 20.7083 9.875 20.125C9.29167 19.5417 9 18.8333 9 18C9 17.3 9.2125 16.6833 9.6375 16.15C10.0625 15.6167 10.6 15.2667 11.25 15.1V10.925C11.0833 10.8917 10.9208 10.8542 10.7625 10.8125C10.6042 10.7708 10.45 10.7083 10.3 10.625L6.3 16.1C6.51667 16.3667 6.6875 16.6583 6.8125 16.975C6.9375 17.2917 7 17.6333 7 18C7 18.8333 6.70833 19.5417 6.125 20.125C5.54167 20.7083 4.83333 21 4 21ZM4 19.5C4.43333 19.5 4.79167 19.3542 5.075 19.0625C5.35833 18.7708 5.5 18.4167 5.5 18C5.5 17.5667 5.35833 17.2083 5.075 16.925C4.79167 16.6417 4.43333 16.5 4 16.5C3.58333 16.5 3.22917 16.6417 2.9375 16.925C2.64583 17.2083 2.5 17.5667 2.5 18C2.5 18.4167 2.64583 18.7708 2.9375 19.0625C3.22917 19.3542 3.58333 19.5 4 19.5ZM12 19.5C12.4333 19.5 12.7917 19.3542 13.075 19.0625C13.3583 18.7708 13.5 18.4167 13.5 18C13.5 17.5667 13.3583 17.2083 13.075 16.925C12.7917 16.6417 12.4333 16.5 12 16.5C11.5833 16.5 11.2292 16.6417 10.9375 16.925C10.6458 17.2083 10.5 17.5667 10.5 18C10.5 18.4167 10.6458 18.7708 10.9375 19.0625C11.2292 19.3542 11.5833 19.5 12 19.5ZM20 19.5C20.4333 19.5 20.7917 19.3542 21.075 19.0625C21.3583 18.7708 21.5 18.4167 21.5 18C21.5 17.5667 21.3583 17.2083 21.075 16.925C20.7917 16.6417 20.4333 16.5 20 16.5C19.5833 16.5 19.2292 16.6417 18.9375 16.925C18.6458 17.2083 18.5 17.5667 18.5 18C18.5 18.4167 18.6458 18.7708 18.9375 19.0625C19.2292 19.3542 19.5833 19.5 20 19.5ZM12 9.5C12.7 9.5 13.2917 9.25833 13.775 8.775C14.2583 8.29167 14.5 7.7 14.5 7C14.5 6.3 14.2583 5.70833 13.775 5.225C13.2917 4.74167 12.7 4.5 12 4.5C11.3 4.5 10.7083 4.74167 10.225 5.225C9.74167 5.70833 9.5 6.3 9.5 7C9.5 7.7 9.74167 8.29167 10.225 8.775C10.7083 9.25833 11.3 9.5 12 9.5Z" fill="white"/>
</svg>
