<svg width="16" height="16" viewBox="0 0 16 16" fill="none" xmlns="http://www.w3.org/2000/svg">
<path d="M4.10185 7.31826L7.41388 9.24337C7.57562 9.33712 7.67579 9.51063 7.67579 9.69814V13.5484C7.67579 13.7359 7.57562 13.9094 7.41388 14.004L4.10185 15.9291C3.93847 16.0236 3.73731 16.0236 3.57394 15.9291L0.261907 14.004C0.100166 13.9094 0 13.7359 0 13.5484V9.69814C0 9.51064 0.100164 9.33714 0.261907 9.24337L3.57394 7.31826C3.73732 7.22369 3.93847 7.22369 4.10185 7.31826ZM12.4261 7.31826L15.7381 9.24337C15.8998 9.33712 16 9.51063 16 9.69814V13.5484C16 13.7359 15.8998 13.9094 15.7381 14.004L12.4261 15.9291C12.2627 16.0236 12.0615 16.0236 11.8982 15.9291L8.58612 14.004C8.42438 13.9094 8.32421 13.7359 8.32421 13.5484V9.69814C8.32421 9.51064 8.42438 9.33714 8.58612 9.24337L11.8982 7.31826C12.0615 7.22369 12.2627 7.22369 12.4261 7.31826ZM3.83744 8.38156L1.05086 10.0016V13.2449L3.83744 14.8649L6.62486 13.2449V10.0016L3.83744 8.38156ZM12.1617 8.38156L9.37508 10.0016V13.2449L12.1617 14.8649L14.9491 13.2449V10.0016L12.1617 8.38156ZM4.06402 8.91279L6.00901 10.0427C6.26106 10.3067 6.26106 10.3067 6.17321 10.6619C6.10507 10.7581 6.10507 10.7581 6.00901 10.8264L4.06402 11.9563C3.83742 12.0377 3.83742 12.0377 3.61164 11.9563L1.66665 10.8264C1.41378 10.5624 1.41378 10.5624 1.50245 10.2072C1.57059 10.111 1.57059 10.111 1.66665 10.0427L3.61164 8.91279C3.83742 8.83138 3.83742 8.83138 4.06402 8.91279ZM12.3882 8.91279L14.3332 10.0427C14.5861 10.3067 14.5861 10.3067 14.4974 10.6619C14.4293 10.7581 14.4293 10.7581 14.3332 10.8264L12.3882 11.9563C12.1625 12.0377 12.1625 12.0377 11.9359 11.9563L9.99087 10.8264C9.73882 10.5624 9.73882 10.5624 9.82666 10.2072C9.89481 10.111 9.89481 10.111 9.99087 10.0427L11.9359 8.91279C12.1625 8.83138 12.1625 8.83138 12.3882 8.91279ZM3.83723 9.82313L2.78551 10.4349L3.83723 11.0459L4.88895 10.4349L3.83723 9.82313ZM12.1614 9.82313L11.1097 10.4349L12.1614 11.0459L13.214 10.4349L12.1614 9.82313ZM8.26322 0.0709279L11.5761 1.99604C11.7378 2.09061 11.8372 2.26412 11.8372 2.45163V6.30186C11.8372 6.48935 11.7378 6.66286 11.5761 6.75663L8.26322 8.68174C8.10066 8.77631 7.89868 8.77631 7.73613 8.68174L4.42326 6.75663C4.26152 6.66288 4.16217 6.48937 4.16217 6.30186V2.45163C4.16217 2.26414 4.26151 2.09063 4.42326 1.99604L7.73613 0.0709279C7.89869 -0.0236426 8.10067 -0.0236426 8.26322 0.0709279ZM7.99967 1.13505L5.21226 2.75508V5.99837L7.99967 7.61758L10.7863 5.99837V2.75508L7.99967 1.13505ZM8.22545 1.66546L10.1704 2.79537C10.4233 3.06017 10.4233 3.06017 10.3346 3.4146C10.2673 3.51164 10.2673 3.51164 10.1704 3.57907L8.22545 4.7098C7.99967 4.79121 7.99967 4.79121 7.7739 4.7098L5.8289 3.57907C5.57604 3.3151 5.57604 3.3151 5.6647 2.95984C5.73202 2.86363 5.73202 2.86363 5.8289 2.79537L7.7739 1.66546C7.99967 1.58405 7.99967 1.58405 8.22545 1.66546ZM7.99967 2.57662L6.94795 3.18761L7.99967 3.79861L9.0514 3.18761L7.99967 2.57662Z" fill="#828592"/>
</svg>
