<svg width="20" height="20" viewBox="0 0 20 20" fill="none" xmlns="http://www.w3.org/2000/svg">
<g clip-path="url(#clip0_1469_10177)">
<path d="M9.6875 11.2522C10.3951 11.2522 10.9688 10.6916 10.9688 9.99997C10.9688 9.30838 10.3951 8.74774 9.6875 8.74774C8.97989 8.74774 8.40625 9.30838 8.40625 9.99997C8.40625 10.6916 8.97989 11.2522 9.6875 11.2522Z" fill="#D9D9D9"/>
<path d="M9.6875 12.5655C13.4845 12.5655 16.5625 11.4169 16.5625 9.99999C16.5625 8.58308 13.4845 7.43445 9.6875 7.43445C5.89054 7.43445 2.8125 8.58308 2.8125 9.99999C2.8125 11.4169 5.89054 12.5655 9.6875 12.5655Z" stroke="#D9D9D9"/>
<path d="M7.41418 11.2828C9.31266 14.4965 11.8695 16.5275 13.125 15.8191C14.3805 15.1106 13.8593 11.931 11.9608 8.7172C10.0623 5.50342 7.50552 3.47245 6.25 4.18091C4.99448 4.88936 5.5157 8.06897 7.41418 11.2828Z" stroke="#D9D9D9"/>
<path d="M7.41418 8.71721C5.5157 11.931 4.99448 15.1106 6.25 15.8191C7.50552 16.5275 10.0623 14.4965 11.9608 11.2828C13.8593 8.06897 14.3805 4.88937 13.125 4.18091C11.8695 3.47246 9.31266 5.50343 7.41418 8.71721Z" stroke="#D9D9D9"/>
</g>
<defs>
<clipPath id="clip0_1469_10177">
<rect width="14.375" height="12.5" fill="white" transform="translate(2.5 3.75)"/>
</clipPath>
</defs>
</svg>
