<svg width="20" height="20" viewBox="0 0 20 20" fill="none" xmlns="http://www.w3.org/2000/svg">
<path d="M4.16667 17.0833C3.63514 17.0833 3.25734 16.8461 3.03327 16.3718C2.80919 15.8974 2.86328 15.4562 3.19554 15.0481L7.91669 9.31092V4.16667H6.9231C6.74602 4.16667 6.59758 4.10674 6.47779 3.9869C6.358 3.86706 6.2981 3.71856 6.2981 3.5414C6.2981 3.36424 6.358 3.21584 6.47779 3.09619C6.59758 2.97652 6.74602 2.91669 6.9231 2.91669H13.0769C13.254 2.91669 13.4024 2.97661 13.5222 3.09646C13.642 3.21631 13.7019 3.36481 13.7019 3.54196C13.7019 3.71912 13.642 3.86753 13.5222 3.98719C13.4024 4.10684 13.254 4.16667 13.0769 4.16667H12.0833V9.31092L16.8045 15.0481C17.1367 15.4562 17.1908 15.8974 16.9667 16.3718C16.7427 16.8461 16.3649 17.0833 15.8333 17.0833H4.16667ZM4.16667 15.8333H15.8333L10.8333 9.75V4.16667H9.16667V9.75L4.16667 15.8333Z" fill="#D9D9D9"/>
</svg>
