<svg width="24" height="24" viewBox="0 0 24 24" fill="none" xmlns="http://www.w3.org/2000/svg">
<g clip-path="url(#clip0_1185_91278)">
<path d="M6.46287 14.0271L6.46292 14.0272C7.87289 14.7321 9.86023 15.15 12 15.15C14.1398 15.15 16.1271 14.7321 17.5371 14.0272L17.5371 14.0271C18.0811 13.7549 18.4776 13.4767 18.7405 13.2207C18.996 12.972 19.15 12.7201 19.15 12.5V10.329V10.0599L18.9211 10.2014C17.301 11.2029 14.8075 11.85 12 11.85C9.19256 11.85 6.69896 11.2019 5.07882 10.2014L4.85 10.0601V10.329V12.5C4.85 12.7201 5.00398 12.972 5.2595 13.2207C5.52241 13.4767 5.91887 13.7549 6.46287 14.0271ZM19.15 15.329V15.0599L18.9211 15.2014C17.301 16.2029 14.8075 16.85 12 16.85C9.19256 16.85 6.69896 16.2019 5.07882 15.2014L4.85 15.0601V15.329V17.5C4.85 17.7201 5.00398 17.972 5.2595 18.2207C5.52241 18.4767 5.91887 18.7549 6.46287 19.0271L6.46292 19.0272C7.87289 19.7321 9.86023 20.15 12 20.15C14.1398 20.15 16.1271 19.7321 17.5371 19.0272L17.5371 19.0271C18.0811 18.7549 18.4776 18.4767 18.7405 18.2207C18.996 17.972 19.15 17.7201 19.15 17.5V15.329ZM17.5371 9.02716L17.5371 9.02714C18.0811 8.75489 18.4776 8.47665 18.7405 8.22074C18.996 7.97202 19.15 7.72011 19.15 7.5C19.15 7.27989 18.996 7.02798 18.7405 6.77926C18.4776 6.52335 18.0811 6.24511 17.5371 5.97286L17.5371 5.97284C16.1271 5.26785 14.1398 4.85 12 4.85C9.86023 4.85 7.87289 5.26785 6.46292 5.97284L6.46287 5.97286C5.91887 6.24511 5.52241 6.52335 5.2595 6.77926C5.00398 7.02798 4.85 7.27989 4.85 7.5C4.85 7.72011 5.00398 7.97202 5.2595 8.22074C5.52241 8.47665 5.91887 8.75489 6.46287 9.02714L6.46292 9.02716C7.87289 9.73215 9.86023 10.15 12 10.15C14.1398 10.15 16.1271 9.73215 17.5371 9.02716ZM3.15 17.5V7.5C3.15 6.34493 4.09051 5.2587 5.70333 4.45229C7.30717 3.65037 9.53324 3.15 12 3.15C14.4668 3.15 16.6928 3.65037 18.2967 4.45229C19.9095 5.2587 20.85 6.34493 20.85 7.5V17.5C20.85 18.6551 19.9095 19.7413 18.2967 20.5477C16.6928 21.3496 14.4668 21.85 12 21.85C9.53324 21.85 7.30717 21.3496 5.70333 20.5477C4.09051 19.7413 3.15 18.6551 3.15 17.5Z" fill="#D9D9D9" stroke="#121212" stroke-width="0.3"/>
</g>
<defs>
<clipPath id="clip0_1185_91278">
<rect width="24" height="24" fill="white"/>
</clipPath>
</defs>
</svg>
