<svg width="24" height="24" viewBox="0 0 24 24" fill="none" xmlns="http://www.w3.org/2000/svg">
<path d="M4.9249 21.2992L2.8999 9.12422H21.0999L19.0749 21.2992H4.9249ZM6.3499 19.5742H17.6499L19.0499 10.8242H4.9749L6.3499 19.5742ZM9.9999 14.8492H13.9999C14.2499 14.8492 14.4541 14.7617 14.6124 14.5867C14.7707 14.4117 14.8499 14.2159 14.8499 13.9992C14.8499 13.7492 14.7707 13.5451 14.6124 13.3867C14.4541 13.2284 14.2499 13.1492 13.9999 13.1492H9.9999C9.76657 13.1492 9.56657 13.2284 9.3999 13.3867C9.23324 13.5451 9.1499 13.7492 9.1499 13.9992C9.1499 14.2159 9.23324 14.4117 9.3999 14.5867C9.56657 14.7617 9.76657 14.8492 9.9999 14.8492ZM5.9999 7.62422C5.76657 7.62422 5.56657 7.53672 5.3999 7.36172C5.23324 7.18672 5.1499 6.98255 5.1499 6.74922C5.1499 6.51589 5.23324 6.31589 5.3999 6.14922C5.56657 5.98255 5.76657 5.89922 5.9999 5.89922H17.9999C18.2499 5.89922 18.4541 5.98255 18.6124 6.14922C18.7707 6.31589 18.8499 6.51589 18.8499 6.74922C18.8499 6.98255 18.7707 7.18672 18.6124 7.36172C18.4541 7.53672 18.2499 7.62422 17.9999 7.62422H5.9999ZM7.9999 4.39922C7.76657 4.39922 7.56657 4.31589 7.3999 4.14922C7.23324 3.98255 7.1499 3.78255 7.1499 3.54922C7.1499 3.31589 7.23324 3.11589 7.3999 2.94922C7.56657 2.78255 7.76657 2.69922 7.9999 2.69922H15.9999C16.2499 2.69922 16.4541 2.78255 16.6124 2.94922C16.7707 3.11589 16.8499 3.31589 16.8499 3.54922C16.8499 3.78255 16.7707 3.98255 16.6124 4.14922C16.4541 4.31589 16.2499 4.39922 15.9999 4.39922H7.9999ZM6.3499 19.5742H17.6499H6.3499Z" fill="#0F9535"/>
</svg>
