<svg width="20" height="20" viewBox="0 0 20 20" fill="none" xmlns="http://www.w3.org/2000/svg">
<path d="M18 7.14583L16.9583 6.66667L18 6.1875L18.4792 5.14583L18.9583 6.1875L20 6.66667L18.9583 7.14583L18.4792 8.1875L18 7.14583ZM15.1042 3L13.5625 2.27083L15.1042 1.54167L15.8333 0L16.5625 1.54167L18.1042 2.27083L16.5625 3L15.8333 4.54167L15.1042 3ZM7.5 18.3333C7.02778 18.3333 6.62847 18.1701 6.30208 17.8438C5.97569 17.5174 5.8125 17.1181 5.8125 16.6458H9.1875C9.1875 17.1181 9.02431 17.5174 8.69792 17.8438C8.37153 18.1701 7.97222 18.3333 7.5 18.3333ZM4.75 15.3542C4.56944 15.3542 4.42014 15.2951 4.30208 15.1771C4.18403 15.059 4.125 14.9097 4.125 14.7292C4.125 14.5486 4.18403 14.3993 4.30208 14.2813C4.42014 14.1632 4.56944 14.1042 4.75 14.1042H10.25C10.4306 14.1042 10.5799 14.1632 10.6979 14.2813C10.816 14.3993 10.875 14.5486 10.875 14.7292C10.875 14.9097 10.816 15.059 10.6979 15.1771C10.5799 15.2951 10.4306 15.3542 10.25 15.3542H4.75ZM4.22917 12.8333C3.3125 12.2361 2.58681 11.4896 2.05208 10.5938C1.51736 9.69792 1.25 8.6875 1.25 7.5625C1.25 5.86806 1.86806 4.40278 3.10417 3.16667C4.34028 1.93056 5.80556 1.3125 7.5 1.3125C9.19444 1.3125 10.6597 1.93056 11.8958 3.16667C13.1319 4.40278 13.75 5.86806 13.75 7.5625C13.75 8.6875 13.4861 9.69792 12.9583 10.5938C12.4306 11.4896 11.7014 12.2361 10.7708 12.8333H4.22917ZM4.6875 11.5833H10.3333C11 11.1389 11.5278 10.5625 11.9167 9.85417C12.3056 9.14583 12.5 8.38194 12.5 7.5625C12.5 6.1875 12.0104 5.01042 11.0312 4.03125C10.0521 3.05208 8.875 2.5625 7.5 2.5625C6.125 2.5625 4.94792 3.05208 3.96875 4.03125C2.98958 5.01042 2.5 6.1875 2.5 7.5625C2.5 8.38194 2.69444 9.14583 3.08333 9.85417C3.47222 10.5625 4.00694 11.1389 4.6875 11.5833Z" fill="#D9D9D9"/>
</svg>
