<svg width="20" height="20" viewBox="0 0 20 20" fill="none" xmlns="http://www.w3.org/2000/svg">
<path fill-rule="evenodd" clip-rule="evenodd" d="M1.66675 9.99999C1.66675 5.39999 5.40008 1.66666 10.0001 1.66666C14.6001 1.66666 18.3334 5.39999 18.3334 9.99999C18.3334 14.6 14.6001 18.3333 10.0001 18.3333C5.40008 18.3333 1.66675 14.6 1.66675 9.99999ZM10.8334 13.3333V15H9.16675V13.3333H10.8334ZM10.0001 16.6667C6.32508 16.6667 3.33341 13.675 3.33341 9.99999C3.33341 6.32499 6.32508 3.33332 10.0001 3.33332C13.6751 3.33332 16.6667 6.32499 16.6667 9.99999C16.6667 13.675 13.6751 16.6667 10.0001 16.6667ZM6.66675 8.33332C6.66675 6.49166 8.15841 4.99999 10.0001 4.99999C11.8417 4.99999 13.3334 6.49166 13.3334 8.33332C13.3334 9.40242 12.6751 9.97776 12.034 10.5379C11.4259 11.0694 10.8334 11.5872 10.8334 12.5H9.16675C9.16675 10.9823 9.95185 10.3805 10.6421 9.85139C11.1836 9.43633 11.6667 9.066 11.6667 8.33332C11.6667 7.41666 10.9167 6.66666 10.0001 6.66666C9.08341 6.66666 8.33341 7.41666 8.33341 8.33332H6.66675Z" fill="#8F8F8F"/>
</svg>
