<svg width="66" height="73" viewBox="0 0 66 73" fill="none" xmlns="http://www.w3.org/2000/svg">
<g clip-path="url(#clip0_2040_14170)">
<path d="M58.9138 12.0213L56.7207 26.7843L51.0486 64.9714C50.9597 65.5717 50.7534 66.1487 50.4416 66.6692C50.1298 67.1897 49.7186 67.6437 49.2314 68.0051C48.7443 68.3665 48.1908 68.6283 47.6025 68.7756C47.0142 68.9228 46.4028 68.9526 45.803 68.8632L37.0149 67.5523L5.22756 62.822L4.00296 62.6396C2.79172 62.4595 1.7016 61.8051 0.972393 60.8205C0.243188 59.8359 -0.0653651 58.6017 0.114616 57.3894L5.22756 22.9646L7.86358 5.22292L7.97977 4.43862C8.16117 3.22739 8.81555 2.13778 9.79913 1.40917C10.7827 0.680557 12.0151 0.372535 13.2254 0.552778L41.6526 4.78154L49.3249 5.92331L55.0228 6.77104C55.6228 6.85993 56.1994 7.06627 56.7197 7.37826C57.2399 7.69025 57.6937 8.10179 58.055 8.58935C58.4164 9.07692 58.6782 9.63096 58.8255 10.2198C58.9729 10.8087 59.0029 11.4209 58.9138 12.0213Z" fill="#29303C"/>
<path opacity="0.1" d="M56.7217 13.3232V26.7845L51.0496 64.9716C50.9061 65.9502 50.4512 66.8564 49.7524 67.5558H37.0159L5.22852 62.8255V9.40232C5.228 8.79539 5.34705 8.19432 5.57887 7.63349C5.81069 7.07266 6.15071 6.56308 6.5795 6.13391C7.00828 5.70475 7.51741 5.36442 8.07774 5.1324C8.63808 4.90038 9.23862 4.78122 9.84502 4.78174H48.1891L49.3299 5.92351L56.7217 13.3232Z" fill="black"/>
<path d="M55.2614 11.8613V61.4733C55.2614 62.0801 55.142 62.681 54.9099 63.2416C54.6779 63.8023 54.3378 64.3117 53.909 64.7407C53.4803 65.1698 52.9713 65.5101 52.4111 65.7423C51.8509 65.9745 51.2505 66.0939 50.6442 66.0938H8.38474C7.77844 66.0939 7.17806 65.9745 6.61788 65.7423C6.0577 65.5101 5.5487 65.1698 5.11995 64.7407C4.6912 64.3117 4.35109 63.8023 4.11905 63.2416C3.88701 62.681 3.76758 62.0801 3.76758 61.4733V7.94041C3.76758 7.33357 3.88701 6.73267 4.11905 6.17203C4.35109 5.6114 4.6912 5.102 5.11995 4.67293C5.5487 4.24386 6.0577 3.90352 6.61788 3.67136C7.17806 3.43919 7.77844 3.31974 8.38474 3.31982H46.7268L55.2614 11.8613Z" fill="#474E61"/>
<path d="M15.7656 28.4575V53.7341" stroke="#29303C" stroke-linecap="round" stroke-dasharray="2 2"/>
<path opacity="0.1" d="M55.2612 11.8613V13.0361H52.5169C51.9106 13.0362 51.3103 12.9167 50.7501 12.6845C50.19 12.4524 49.681 12.112 49.2523 11.6829C48.8236 11.2539 48.4836 10.7444 48.2516 10.1838C48.0197 9.62318 47.9003 9.0223 47.9004 8.41549V4.49463L55.2612 11.8613Z" fill="black"/>
<path d="M64.3105 69.3867L62.062 71.6372L48.674 58.2373L46.0492 55.6102L45.0332 54.5933L47.2811 52.3428L48.297 53.3597L50.9225 55.9868L64.3105 69.3867Z" fill="#29303C"/>
<g opacity="0.2">
<path d="M48.297 53.3597L46.0488 55.6099L48.6737 58.237L50.9218 55.9869L48.297 53.3597Z" fill="black"/>
</g>
<path d="M62.2871 72.9383L50.3078 60.9491C50.0982 60.7386 49.9805 60.4535 49.9805 60.1562C49.9805 59.859 50.0982 59.5739 50.3078 59.3633L52.0513 57.6183C52.1552 57.514 52.2786 57.4312 52.4146 57.3746C52.5505 57.3181 52.6963 57.2891 52.8435 57.2891C52.9907 57.2891 53.1364 57.3181 53.2724 57.3746C53.4083 57.4312 53.5318 57.514 53.6357 57.6183L65.6149 69.6075C65.8246 69.8181 65.9423 70.1032 65.9423 70.4004C65.9423 70.6977 65.8246 70.9828 65.6149 71.1933L63.8715 72.9383C63.7676 73.0427 63.6441 73.1255 63.5082 73.182C63.3722 73.2385 63.2265 73.2676 63.0793 73.2676C62.9321 73.2676 62.7863 73.2385 62.6504 73.182C62.5144 73.1255 62.391 73.0427 62.2871 72.9383Z" fill="#29303C"/>
<path d="M50.5316 55.4218L48.1075 57.8474C47.9071 58.0479 47.6353 58.1605 47.3519 58.1605C47.0686 58.1605 46.7968 58.0479 46.5964 57.8474L46.3568 57.6075L45.4827 56.7321C45.2824 56.5316 45.1699 56.2597 45.1699 55.9762C45.1699 55.6927 45.2824 55.4208 45.4827 55.2203L47.9062 52.794C48.1065 52.5936 48.3781 52.481 48.6614 52.481C48.9446 52.481 49.2163 52.5936 49.4166 52.794L50.3408 53.7191L50.5296 53.9074C50.6292 54.0067 50.7082 54.1246 50.7621 54.2544C50.8161 54.3843 50.844 54.5235 50.8442 54.6642C50.8444 54.8048 50.8168 54.9441 50.7632 55.0741C50.7096 55.2041 50.6309 55.3223 50.5316 55.4218Z" fill="#29303C"/>
<g opacity="0.2">
<path d="M49.4146 52.794C49.2143 52.5936 48.9427 52.481 48.6594 52.481C48.3762 52.481 48.1045 52.5936 47.9042 52.794L45.4808 55.2203C45.2805 55.4208 45.168 55.6927 45.168 55.9762C45.168 56.2597 45.2805 56.5316 45.4808 56.7321L46.3548 57.6075C47.8823 56.5331 49.228 55.2208 50.3409 53.7204L49.4146 52.794Z" fill="black"/>
</g>
<path d="M48.0315 30.6651C45.8989 28.5203 43.2366 26.9793 40.3155 26.1991C38.8623 25.813 37.365 25.6182 35.8614 25.6196C31.2968 25.6196 26.9191 27.4345 23.6914 30.6651C20.4637 33.8956 18.6504 38.2772 18.6504 42.8459C18.6492 44.351 18.8438 45.8498 19.2294 47.3046C19.947 49.978 21.2973 52.4391 23.166 54.4799C25.0347 56.5207 27.3669 58.0812 29.9653 59.0293C32.5638 59.9775 35.3522 60.2855 38.0947 59.9272C40.8372 59.569 43.4532 58.5551 45.7216 56.9713C46.049 56.7414 46.3692 56.4991 46.6821 56.2445C47.1528 55.8623 47.6034 55.4561 48.0321 55.0274C48.3565 54.7032 48.6646 54.3686 48.9564 54.0237C49.2178 53.7176 49.4673 53.4046 49.705 53.0848C52.1524 49.7655 53.3293 45.6777 53.0219 41.5639C52.7144 37.4501 50.9431 33.583 48.0295 30.6651H48.0315ZM35.8614 56.1731C33.5627 56.1721 31.3034 55.5757 29.3031 54.442C27.3029 53.3082 25.6298 51.6757 24.4466 49.7031L24.4407 49.6932C24.4057 49.6337 24.37 49.5743 24.335 49.5141C24.3093 49.4699 24.2842 49.4256 24.2591 49.382C24.2221 49.3159 24.1865 49.2498 24.1508 49.1838L24.0908 49.0728C23.935 48.7798 23.7906 48.4807 23.6577 48.1755C23.6359 48.1259 23.6141 48.0764 23.5917 48.0268C23.5692 47.9772 23.5501 47.927 23.5257 47.8768C23.4847 47.777 23.4451 47.6753 23.4069 47.5742C23.3917 47.5365 23.3771 47.4975 23.3633 47.4586C23.3534 47.4328 23.3428 47.4064 23.3349 47.3799C23.321 47.3429 23.3078 47.3059 23.2946 47.2683C23.2378 47.109 23.1844 46.9478 23.1342 46.7859C23.1197 46.739 23.1058 46.6928 23.092 46.6465C23.0781 46.6002 23.0609 46.5408 23.0464 46.4886C23.0319 46.4364 23.0193 46.3934 23.0061 46.3445C22.9949 46.3069 22.985 46.2686 22.9751 46.2302C22.9579 46.1642 22.9408 46.0981 22.9243 46.032C22.8939 45.9098 22.8662 45.7875 22.8398 45.664C22.8299 45.619 22.8206 45.5741 22.8114 45.5285C22.7883 45.4162 22.7665 45.3039 22.7454 45.1902C22.7394 45.1545 22.7335 45.1202 22.7269 45.0845C22.6959 44.9048 22.6701 44.7237 22.6463 44.5407C22.6397 44.4859 22.6325 44.4304 22.6265 44.3749C22.6206 44.3194 22.6133 44.2632 22.6081 44.2064C22.6028 44.1495 22.5949 44.0742 22.5896 44.0081C22.5823 43.9315 22.577 43.8549 22.5717 43.7775C22.5671 43.7115 22.5632 43.6454 22.5592 43.5793C22.5552 43.5132 22.5513 43.4326 22.5493 43.3586C22.5493 43.3104 22.5453 43.2615 22.5447 43.2126C22.544 43.1637 22.5447 43.1234 22.5414 43.0805C22.5414 43.0025 22.5414 42.9245 22.5414 42.8459C22.5414 35.4971 28.5152 29.518 35.8575 29.518C35.9354 29.518 36.0133 29.518 36.0912 29.518C36.1361 29.518 36.1803 29.518 36.2232 29.518C36.2661 29.518 36.3209 29.518 36.3691 29.5226C36.443 29.5226 36.5163 29.5286 36.5896 29.5326L36.7876 29.5451C36.8649 29.5504 36.9415 29.5557 37.018 29.563C37.0946 29.5702 37.1501 29.5742 37.2161 29.5815C37.2821 29.5887 37.3277 29.5927 37.3838 29.6L37.5501 29.6198C37.7323 29.6429 37.9132 29.6693 38.0928 29.7004L38.1984 29.7189C38.3119 29.7394 38.4242 29.7605 38.5364 29.785L38.6684 29.8134C38.7919 29.8398 38.914 29.8676 39.0368 29.898L39.2349 29.9488C39.2731 29.9587 39.3114 29.9687 39.3491 29.9799C39.3973 29.9931 39.4448 30.0057 39.493 30.0202C39.5412 30.0347 39.5979 30.0493 39.6508 30.0658L39.79 30.1081C39.9524 30.1583 40.1129 30.2118 40.2726 30.2686C40.3096 30.281 40.3466 30.2942 40.3835 30.3083C40.4099 30.3169 40.4363 30.3274 40.4628 30.3373L40.5776 30.3803C40.6793 30.4186 40.7803 30.4589 40.88 30.4999C40.9301 30.5204 40.9803 30.5409 41.0298 30.5627C41.0793 30.5845 41.1289 30.605 41.1784 30.6287C41.4834 30.7609 41.7822 30.9054 42.0749 31.0622L42.1858 31.1223C42.2518 31.158 42.3178 31.1937 42.3805 31.2307L42.5125 31.3067L42.6921 31.4124L42.7014 31.4177C44.6721 32.6021 46.3031 34.2766 47.4358 36.2786C48.5685 38.2806 49.1644 40.5419 49.1656 42.8426C49.1762 50.1947 43.2037 56.1731 35.8614 56.1731Z" fill="#29303C"/>
<path opacity="0.2" d="M45.7755 33.7189L45.7663 33.7137C45.7062 33.6773 45.6468 33.643 45.5867 33.6079C45.5425 33.5815 45.4983 33.5571 45.4547 33.5319C45.3887 33.4949 45.326 33.4593 45.26 33.4236C45.2236 33.4024 45.186 33.3833 45.149 33.3635C44.8564 33.2075 44.5575 33.063 44.2526 32.93C44.203 32.9075 44.1535 32.8864 44.104 32.8639C44.0545 32.8415 44.0043 32.821 43.9542 32.8012C43.8545 32.7602 43.7561 32.7199 43.6518 32.6816C43.6142 32.6664 43.5752 32.6525 43.5369 32.6386C43.5105 32.6287 43.4841 32.6181 43.4577 32.6095C43.4207 32.595 43.3838 32.5818 43.3468 32.5699C43.187 32.5131 43.0266 32.4596 42.8642 32.4093L42.7249 32.3671C42.6721 32.3505 42.62 32.336 42.5672 32.3215C42.5144 32.3069 42.4714 32.2944 42.4232 32.2812C42.3856 32.2699 42.3473 32.26 42.309 32.2501C42.243 32.2323 42.177 32.2151 42.111 32.1992C41.9882 32.1688 41.8661 32.1411 41.7426 32.1146C41.6977 32.1047 41.6528 32.0942 41.6106 32.0862C41.4984 32.0624 41.3861 32.0413 41.2726 32.0202C41.2369 32.0136 41.2026 32.0069 41.167 32.0017C40.9874 31.9706 40.8065 31.9442 40.6243 31.9211L40.458 31.9012C40.4018 31.894 40.3464 31.888 40.2903 31.8827C40.2342 31.8774 40.1582 31.8695 40.0922 31.8642C40.0156 31.857 39.9391 31.851 39.8618 31.8464C39.7958 31.8418 39.7298 31.8371 39.6638 31.8338C39.5978 31.8305 39.5172 31.8259 39.4433 31.8239C39.3951 31.8239 39.3462 31.82 39.2974 31.8193C39.2485 31.8186 39.2083 31.8193 39.1654 31.8193C39.0875 31.8193 39.0096 31.8193 38.9317 31.8193C31.5894 31.8193 25.6156 37.7984 25.6156 45.1472C25.6156 45.2258 25.6156 45.3038 25.6156 45.3817C25.6156 45.4267 25.6156 45.4709 25.6189 45.5139C25.6222 45.5568 25.6189 45.6117 25.6235 45.6599C25.6235 45.7339 25.6294 45.8073 25.6334 45.8806C25.6374 45.9539 25.6413 46.0127 25.6459 46.0788C25.6506 46.1561 25.6565 46.2328 25.6638 46.3094C25.669 46.3755 25.675 46.4416 25.6822 46.5076C25.6895 46.5737 25.6935 46.62 25.7007 46.6761C25.708 46.7323 25.7133 46.7865 25.7205 46.842C25.7443 47.025 25.77 47.2061 25.8011 47.3858C25.8064 47.4215 25.813 47.4558 25.8196 47.4915C25.84 47.6051 25.8618 47.7175 25.8856 47.8298C25.8942 47.8754 25.9041 47.9203 25.914 47.9652C25.9404 48.0888 25.9681 48.211 25.9985 48.3333C26.0143 48.3994 26.0315 48.4654 26.0493 48.5315C26.0592 48.5698 26.0691 48.6081 26.0803 48.6458C26.0935 48.694 26.1067 48.7416 26.1206 48.7899C26.1345 48.8381 26.1496 48.8949 26.1661 48.9478C26.1826 49.0006 26.1939 49.0403 26.2084 49.0872C26.2586 49.2491 26.312 49.4103 26.3688 49.5695C26.3807 49.6072 26.3939 49.6442 26.4091 49.6812C26.417 49.7076 26.4276 49.7341 26.4375 49.7598C26.4513 49.7988 26.4652 49.8378 26.481 49.8755C26.5187 49.9765 26.5589 50.0783 26.5999 50.1781C26.6197 50.2283 26.6408 50.2785 26.6659 50.3281C26.691 50.3776 26.7075 50.4272 26.7319 50.4767C26.8639 50.782 27.0083 51.0811 27.165 51.374C27.1848 51.411 27.2046 51.4487 27.225 51.485C27.2607 51.5511 27.2963 51.6172 27.3333 51.6832C27.3584 51.7282 27.3828 51.7724 27.4092 51.8154C27.4442 51.8755 27.4785 51.935 27.5149 51.9945L27.5208 52.0044C25.6438 51.5499 23.8726 50.7354 22.3055 49.6059C21.92 48.1511 21.7254 46.6523 21.7266 45.1472C21.7266 42.8849 22.1718 40.6448 23.0367 38.5548C23.9017 36.4648 25.1695 34.5657 26.7678 32.9661C28.3661 31.3665 30.2635 30.0976 32.3517 29.232C34.4399 28.3663 36.678 27.9208 38.9383 27.9209C40.4418 27.9194 41.9391 28.1142 43.3924 28.5004C44.516 30.0695 45.3253 31.8417 45.7755 33.7189Z" fill="#29303C"/>
<path opacity="0.2" d="M48.3199 33.4364C48.3282 36.6722 51.0126 43.8593 49.0859 46.4577C48.8779 46.7398 47.021 51.5505 46.788 51.8194C46.5305 52.1229 39.4132 57.2799 39.1284 57.5641C38.751 57.9405 31.5001 55.6968 31.0859 56.0321C30.8112 56.2561 29.4096 55.5832 26.1071 53.3513C23.5734 55.1316 27.288 51.8262 24.1922 51.8194C23.1555 51.8201 24.7206 48.7616 23.7053 48.5517C22.764 46.692 22.2748 44.6362 22.2774 42.5515C22.2774 35.2027 28.2511 29.2236 35.5934 29.2236C37.6761 29.2214 39.7299 29.7113 41.5877 30.6535C41.7978 31.6697 48.3202 32.3987 48.3199 33.4364Z" fill="#1E242D"/>
<path d="M41.1543 49.3688C40.9668 49.369 40.7811 49.3322 40.6079 49.2604C40.4347 49.1886 40.2773 49.0833 40.1449 48.9505L30.5263 39.3235C30.266 39.054 30.1219 38.6929 30.125 38.3181C30.1282 37.9433 30.2783 37.5847 30.5431 37.3196C30.8078 37.0546 31.166 36.9042 31.5405 36.9009C31.915 36.8977 32.2758 37.0418 32.5451 37.3022L42.1636 46.93C42.3633 47.1297 42.4993 47.3843 42.5544 47.6615C42.6095 47.9386 42.5812 48.2259 42.4732 48.4869C42.3651 48.748 42.1821 48.9711 41.9474 49.1281C41.7126 49.2851 41.4366 49.3688 41.1543 49.3688Z" fill="#C6AEEF"/>
<path d="M31.535 49.3688C31.2527 49.3688 30.9767 49.2851 30.7419 49.1281C30.5071 48.9711 30.3241 48.748 30.2161 48.4869C30.108 48.2259 30.0798 47.9386 30.1349 47.6615C30.19 47.3843 30.3259 47.1297 30.5256 46.93L40.1441 37.3022C40.4135 37.0418 40.7742 36.8977 41.1487 36.9009C41.5232 36.9042 41.8814 37.0546 42.1462 37.3196C42.411 37.5847 42.5611 37.9433 42.5642 38.3181C42.5673 38.6929 42.4232 39.054 42.1629 39.3235L32.5444 48.9505C32.4119 49.0833 32.2546 49.1886 32.0814 49.2604C31.9082 49.3322 31.7225 49.369 31.535 49.3688Z" fill="#C6AEEF"/>
<path d="M55.2611 11.8613H51.3431C50.7368 11.8614 50.1364 11.7419 49.5763 11.5097C49.0162 11.2775 48.5072 10.9372 48.0785 10.5081C47.6498 10.079 47.3098 9.56964 47.0778 9.00901C46.8458 8.44837 46.7265 7.84749 46.7266 7.24068V3.31982L55.2611 11.8613Z" fill="#57ABFF"/>
<rect x="11.1699" y="14.2871" width="35.617" height="3.44681" rx="1.7234" fill="#29303C"/>
<rect x="11.1699" y="21.564" width="11.1064" height="3.44681" rx="1.7234" fill="#29303C"/>
<rect x="11.1699" y="56.7979" width="9.95745" height="3.44681" rx="1.7234" fill="#29303C"/>
</g>
<defs>
<clipPath id="clip0_2040_14170">
<rect width="65.8723" height="72" fill="white" transform="translate(0.0644531 0.5)"/>
</clipPath>
</defs>
</svg>
