<svg width="24" height="24" viewBox="0 0 24 24" fill="none" xmlns="http://www.w3.org/2000/svg">
<path fill-rule="evenodd" clip-rule="evenodd" d="M10.9749 2.0498V4.0698C9.5149 4.2498 8.1849 4.8298 7.0749 5.6898L5.6549 4.2598C7.1349 3.0498 8.9649 2.2498 10.9749 2.0498ZM13.0249 9.7898L9.9749 7.4998V16.4998L13.0249 14.2098L15.9749 11.9998L13.0249 9.7898ZM5.6649 7.0998L4.2349 5.6798C3.0249 7.1598 2.2249 8.98981 2.0249 10.9998H4.0449C4.2249 9.5398 4.8049 8.2098 5.6649 7.0998ZM2.0249 12.9998H4.0449C4.2249 14.4598 4.8049 15.7898 5.6649 16.8898L4.2349 18.3198C3.0249 16.8398 2.2249 15.0098 2.0249 12.9998ZM5.6549 19.7398C7.1349 20.9498 8.9749 21.7498 10.9749 21.9498V19.9298C9.5149 19.7498 8.1849 19.1698 7.0749 18.3098L5.6549 19.7398ZM13.0249 21.9498C18.0549 21.4198 21.9749 17.1598 21.9749 11.9998C21.9749 6.8398 18.0549 2.5798 13.0249 2.0498V4.0698C16.9449 4.5898 19.9749 7.9498 19.9749 11.9998C19.9749 16.0498 16.9449 19.4098 13.0249 19.9298V21.9498Z" fill="#FF075A"/>
</svg>
