<svg width="20" height="20" viewBox="0 0 20 20" fill="none" xmlns="http://www.w3.org/2000/svg">
<path d="M7.0835 11.1872H11.8752V9.99967H7.0835V11.1872ZM7.0835 9.39551H15.3543V8.18717H7.0835V9.39551ZM7.0835 7.60384H15.3543V6.39551H7.0835V7.60384ZM5.37516 15.833C5.05572 15.833 4.77447 15.7115 4.53141 15.4684C4.28836 15.2254 4.16683 14.9441 4.16683 14.6247V2.95801C4.16683 2.65245 4.28836 2.37815 4.53141 2.13509C4.77447 1.89204 5.05572 1.77051 5.37516 1.77051H17.0418C17.3474 1.77051 17.6217 1.89204 17.8647 2.13509C18.1078 2.37815 18.2293 2.65245 18.2293 2.95801V14.6247C18.2293 14.9441 18.1078 15.2254 17.8647 15.4684C17.6217 15.7115 17.3474 15.833 17.0418 15.833H5.37516ZM5.37516 14.6247H17.0418V2.95801H5.37516V14.6247ZM2.97933 18.2288C2.65989 18.2288 2.37863 18.1073 2.13558 17.8643C1.89252 17.6212 1.771 17.34 1.771 17.0205V4.16634H2.97933V17.0205H15.8335V18.2288H2.97933ZM5.37516 2.95801V14.6247V2.95801Z" fill="#D9D9D9"/>
</svg>
