<svg width="20" height="20" viewBox="0 0 16 16" fill="none" xmlns="http://www.w3.org/2000/svg">
<path fill-rule="evenodd" clip-rule="evenodd" d="M1.33398 7.99992C1.33398 4.31992 4.31398 1.33325 7.99398 1.33325C11.6807 1.33325 14.6673 4.31992 14.6673 7.99992C14.6673 11.6799 11.6807 14.6666 7.99398 14.6666C4.31398 14.6666 1.33398 11.6799 1.33398 7.99992ZM2.66732 7.99992C2.66732 10.9466 5.05398 13.3333 8.00065 13.3333C10.9473 13.3333 13.334 10.9466 13.334 7.99992C13.334 5.05325 10.9473 2.66659 8.00065 2.66659C5.05398 2.66659 2.66732 5.05325 2.66732 7.99992Z" fill="#797979"/>
<path d="M8.33398 4.66675H7.33398V8.66675L10.834 10.7667L11.334 9.94675L8.33398 8.16675V4.66675Z" fill="#797979"/>
</svg>
