<svg width="18" height="18" viewBox="0 0 18 18" fill="none" xmlns="http://www.w3.org/2000/svg">
<path fill-rule="evenodd" clip-rule="evenodd" d="M8.99199 0.666504C4.39199 0.666504 0.666992 4.39984 0.666992 8.99984C0.666992 13.5998 4.39199 17.3332 8.99199 17.3332C13.6003 17.3332 17.3337 13.5998 17.3337 8.99984C17.3337 4.39984 13.6003 0.666504 8.99199 0.666504ZM9.83366 9.83317V4.83317H8.16699V9.83317H9.83366ZM9.83366 13.1665V11.4998H8.16699V13.1665H9.83366ZM2.33366 8.99984C2.33366 12.6832 5.31699 15.6665 9.00033 15.6665C12.6837 15.6665 15.667 12.6832 15.667 8.99984C15.667 5.3165 12.6837 2.33317 9.00033 2.33317C5.31699 2.33317 2.33366 5.3165 2.33366 8.99984Z" fill="#F8AFC8"/>
</svg>
