<svg width="360" height="153" viewBox="0 0 360 153" fill="none" xmlns="http://www.w3.org/2000/svg">
<g clip-path="url(#clip0)">
<path d="M350.025 22.3243C346.356 19.0123 342.046 16.4917 337.363 14.9192C331.542 13.0151 325.444 12.1049 319.322 12.2264H268L276.516 23.7828V128.643L268 140.2H319.322C325.454 140.353 331.565 139.403 337.363 137.395C342.073 135.772 346.387 133.172 350.025 129.765C353.281 126.677 355.84 122.928 357.533 118.77C359.146 114.581 359.981 110.132 359.998 105.643V46.1103C360.047 41.6511 359.209 37.2268 357.533 33.0953C355.835 29.005 353.274 25.3307 350.025 22.3243ZM330.191 105.8C330.208 107.358 329.897 108.902 329.28 110.333C328.662 111.763 327.751 113.047 326.605 114.102C324.252 116.346 321.002 117.468 316.968 117.468H305.987V34.6661H316.968C321.002 34.6661 324.252 35.7881 326.605 38.032C327.751 39.0871 328.662 40.3714 329.28 41.8017C329.897 43.2321 330.208 44.7764 330.191 46.3347V105.8Z" fill="#E10000"/>
<path d="M98.0038 139.216V49.4426C98.0038 48.0151 97.8958 46.6424 97.6798 45.3246C97.4639 43.897 96.9779 42.6891 96.2219 41.7008C95.574 40.6026 94.548 39.779 93.1441 39.2299C91.8482 38.571 90.0663 38.2416 87.7985 38.2416C85.9626 38.2416 83.8027 38.5161 81.3189 39.0652C78.835 39.6143 76.9452 40.1634 75.6492 40.7124C75.9732 43.0185 76.1352 45.1599 76.1352 47.1366V139.216H51.0268V49.4426C51.0268 48.0151 50.9188 46.6424 50.7028 45.3246C50.4868 43.897 50.0009 42.6891 49.2449 41.7008C48.5969 40.6026 47.571 39.779 46.1671 39.2299C44.8712 38.571 43.0893 38.2416 40.8214 38.2416C38.9855 38.2416 36.8257 38.571 34.3418 39.2299C31.966 39.779 30.1841 40.3281 28.9962 40.8772V129.216L37.5 139.216H0V23.9109C1.94388 22.7029 4.53571 21.4401 7.77551 20.1223C11.0153 18.6947 14.6331 17.4318 18.6288 16.3337C22.6246 15.1257 26.7823 14.1374 31.102 13.3687C35.4218 12.6 39.6335 12.2157 43.7372 12.2157C47.841 12.2157 51.4048 12.7098 54.4286 13.6982C57.5604 14.5767 60.2602 15.7846 62.5281 17.322C66.9558 15.8944 71.5995 14.7414 76.4592 13.8629C81.4269 12.8746 86.1786 12.3804 90.7143 12.3804C97.4099 12.3804 103.079 13.0393 107.723 14.357C112.367 15.6748 116.093 17.7613 118.901 20.6164C121.816 23.4716 123.868 27.0955 125.056 31.488C126.352 35.8806 127 41.2066 127 47.466V139.216H98.0038Z" fill="#E10000"/>
<path d="M126 138.716V127.216L135 138.716H126Z" fill="#E10000"/>
<path fill-rule="evenodd" clip-rule="evenodd" d="M136.026 139.216H125.5V125.765L136.026 139.216ZM133.974 138.216L126.5 128.666V138.216H133.974Z" fill="#E10000"/>
<path d="M171.082 98.1858L180.486 91.9907L146.745 82.6393C146.745 82.6393 149.754 108.989 157.496 123.205C168.206 142.875 202.02 153.216 202.02 153.216C202.02 153.216 234.445 143.045 245.008 123.205C254.998 104.443 258.594 79.5667 258.594 79.5667L173.879 56.1133L175.696 40.3525C175.886 38.7037 176.882 37.2566 178.354 36.4901L188.048 31.4426C197.976 26.2736 209.778 26.1647 219.799 31.1497L231.128 36.7849C232.301 37.3681 233.113 38.4882 233.304 39.7836L235.018 51.4226L223 58.2158L258.594 66.938V25.8042L203.849 1.62904L146.745 27.2475V69.8246L233.02 93.8106C233.02 93.8106 227.245 106.916 222.356 113.39C220.261 116.165 216.999 118.307 213.642 119.92C205.596 123.787 196 123.687 188.258 119.244C185.604 117.722 183.024 115.792 181.085 113.39C177.087 108.439 171.082 98.1858 171.082 98.1858Z" fill="#E10000"/>
<path fill-rule="evenodd" clip-rule="evenodd" d="M202.131 150.116L202.521 147.98L202.926 150.114L202.529 150.175L202.131 150.116ZM146.747 82.6396L144.362 82.8617L144 79.6884L184.076 91.3962L173.884 99.7867C174.164 100.969 174.572 102.571 175.096 104.314C176.898 108.04 179.975 111.868 181.683 113.984C184.435 117.392 187.832 120.125 193.258 122.01C195.899 122.927 198.354 123.608 200.149 124.058C201.046 124.283 201.52 123.979 202.02 124.089C202.604 124.217 202.599 123.653 202.714 124.239C202.754 124.443 202.792 124.6 202.821 124.595C203.256 124.525 203.893 124.415 204.679 124.259C206.255 123.945 208.412 123.448 210.74 122.716C215.52 121.213 218.62 117.943 221.161 114.579C223.336 111.697 227.142 107.256 228.536 102.31C229.217 99.8933 229.749 97.6717 230.111 96.0535C230.17 95.7895 230.224 95.5418 230.274 95.3121L144.35 71.4236V30.4556C144.35 27.6347 145.828 25.0263 148.271 23.6166C154.066 20.2736 165.113 14.0552 173.309 10.3781C181.165 6.85365 191.829 2.9911 197.91 0.85965C201.014 -0.228394 204.373 -0.285538 207.512 0.699249C213.943 2.71732 225.396 6.46448 233.055 9.84659C240.825 13.278 251.321 19.013 256.979 22.1797C259.474 23.5761 260.994 26.215 260.994 29.0744V69.8238L222.5 58.2158L233 49.7158L233.146 39.8428C233.168 38.2927 232.294 36.8691 230.9 36.1891L227.418 34.4896L218.4 30.5769L208.467 26.5573C204.785 25.067 200.642 25.2114 197.072 26.9546L189.655 30.5769L178.482 36.1953C177.132 36.8745 176.279 38.2571 176.279 39.7689V54.513L261.236 78.0335L260.974 79.8473L258.597 79.5671C260.974 79.8473 260.974 79.8473 260.974 79.8473L260.971 79.8698L260.962 79.9281C260.955 79.9788 260.943 80.0529 260.929 80.1494C260.899 80.3424 260.854 80.6253 260.794 80.9905C260.674 81.7208 260.492 82.7806 260.242 84.1092C259.743 86.7655 258.973 90.5008 257.888 94.8285C255.724 103.459 252.279 114.549 247.171 124.144C241.523 134.751 230.274 139.716 220.774 145.013C216.284 147.516 211.545 148.195 208.302 148.988C206.678 149.386 205.348 149.665 204.418 149.845C203.953 149.936 203.587 150.002 203.334 150.046C203.208 150.068 203.109 150.084 203.041 150.095L202.96 150.108L202.937 150.112L202.927 150.113C202.927 150.113 202.926 150.114 202.521 147.98C202.131 150.116 202.13 150.116 202.13 150.116L202.12 150.114L202.096 150.11L202.011 150.097C201.939 150.086 201.834 150.069 201.699 150.047C201.43 150.002 201.04 149.935 200.543 149.843C199.55 149.658 197.734 149.391 196 148.988C192.536 148.184 187.897 147.761 183 145.216C172.897 139.965 162.5 133.716 155.346 124.161C151.321 116.768 148.587 106.376 146.862 97.9867C145.994 93.7616 145.369 89.9874 144.963 87.2689C144.759 85.909 144.609 84.8117 144.511 84.0524C144.461 83.6726 144.424 83.3773 144.4 83.1757C144.391 83.1064 144.384 83.0482 144.379 83.0014L144.372 82.9449L144.365 82.8844L144.363 82.8683L144.363 82.8638L144.362 82.8617C144.362 82.8617 144.362 82.8617 146.747 82.6396ZM255.927 81.0924L171.484 57.7143V34.512L203.832 21.2704L237.418 34.4896V53.0408L228.5 56.0988L256.199 64.0529V27.1557L203.86 4.04308L176.502 16.3163L149.145 28.5896V68.2263L235.739 92.3011L235.386 94.1746L233.022 93.8109C235.386 94.1746 235.386 94.1746 235.386 94.1746L235.386 94.1762L235.383 94.1898L235.376 94.2286C235.372 94.2451 235.368 94.2653 235.364 94.289C235.359 94.3137 235.354 94.3422 235.347 94.3746C235.322 94.5014 235.286 94.6863 235.237 94.9228C235.141 95.3958 234.998 96.0756 234.811 96.9104C234.438 98.5784 233.889 100.873 233.183 103.378C231.803 108.273 229.724 114.359 227.011 117.951C223.558 122.526 217.292 125.241 212.316 126.805C209.766 127.606 207.42 128.147 205.712 128.487C204.856 128.657 204.155 128.778 203.664 128.858C203.418 128.897 203.224 128.926 203.089 128.946C203.022 128.956 202.969 128.963 202.931 128.969L202.886 128.975L202.873 128.976L202.867 128.977C202.867 128.977 202.866 128.977 202.521 126.835C202.016 128.951 202.015 128.951 202.015 128.951L202.013 128.951L201.995 128.947L201.948 128.938C201.908 128.93 201.85 128.918 201.776 128.903C201.628 128.872 201.413 128.827 201.141 128.767C200.596 128.648 199.817 128.469 198.865 128.23C196.964 127.753 194.357 127.031 191.536 126.051C186.039 124.142 179.182 121.073 175.541 116.564C173.252 113.73 171.563 109.092 170.468 105.448C169.904 103.571 169.47 101.858 169.176 100.613C169.029 99.9905 168.917 99.4832 168.841 99.1295C168.803 98.9526 168.775 98.8141 168.755 98.7185C168.745 98.6708 168.738 98.6337 168.732 98.6081L168.726 98.5781L168.724 98.5671C168.724 98.5671 168.724 98.5656 171.084 98.1862L168.724 98.5671L168.332 96.5751L175.541 91.9907L149.556 85.6064C149.604 85.9446 149.657 86.306 149.714 86.6889C150.114 89.3552 150.726 93.0569 151.577 97.1963C153.292 105.536 155.934 115.427 159.649 122.25C164.614 131.367 175.195 137.297 184.949 140.971C189.776 142.788 194.285 144.011 197.59 144.778C199.24 145.161 200.583 145.43 201.509 145.601C201.936 145.681 202.275 145.739 202.512 145.779C202.728 145.741 203.031 145.686 203.409 145.613C204.266 145.446 205.514 145.184 207.048 144.809C210.12 144.058 214.321 142.855 218.835 141.053C227.937 137.419 237.934 131.5 242.849 122.268C247.731 113.099 251.08 102.37 253.211 93.8722C254.274 89.6355 255.027 85.9792 255.515 83.385C255.684 82.486 255.821 81.7151 255.927 81.0924ZM202.521 126.835L202.015 128.951L202.438 129.033L202.866 128.977L202.521 126.835Z" fill="#E10000"/>
<mask id="mask0" mask-type="alpha" maskUnits="userSpaceOnUse" x="144" y="0" width="118" height="154">
<path d="M171.082 98.1858L180.486 91.9907L146.745 82.6393C146.745 82.6393 149.754 108.989 157.496 123.205C168.206 142.875 202.02 153.216 202.02 153.216C202.02 153.216 234.445 143.045 245.008 123.205C254.998 104.443 258.594 79.5667 258.594 79.5667L173.879 56.1133L175.696 40.3525C175.886 38.7037 176.882 37.2566 178.354 36.4901L188.048 31.4426C197.976 26.2736 209.778 26.1647 219.799 31.1497L231.128 36.7849C232.301 37.3681 233.113 38.4882 233.304 39.7836L235.018 51.4226L223 58.2158L258.594 66.938V25.8042L203.849 1.62904L146.745 27.2475V69.8246L233.02 93.8106C233.02 93.8106 227.245 106.916 222.356 113.39C220.261 116.165 216.999 118.307 213.642 119.92C205.596 123.787 196 123.687 188.258 119.244C185.604 117.722 183.024 115.792 181.085 113.39C177.087 108.439 171.082 98.1858 171.082 98.1858Z" fill="#E10000"/>
<path fill-rule="evenodd" clip-rule="evenodd" d="M202.131 150.116L202.521 147.98L202.926 150.114L202.529 150.175L202.131 150.116ZM146.747 82.6396L144.362 82.8617L144 79.6884L184.076 91.3962L173.884 99.7867C174.164 100.969 174.572 102.571 175.096 104.314C176.898 108.04 179.975 111.868 181.683 113.984C184.435 117.392 187.832 120.125 193.258 122.01C195.899 122.927 198.354 123.608 200.149 124.058C201.046 124.283 201.52 123.979 202.02 124.089C202.604 124.217 202.599 123.653 202.714 124.239C202.754 124.443 202.792 124.6 202.821 124.595C203.256 124.525 203.893 124.415 204.679 124.259C206.255 123.945 208.412 123.448 210.74 122.716C215.52 121.213 218.62 117.943 221.161 114.579C223.336 111.697 227.142 107.256 228.536 102.31C229.217 99.8933 229.749 97.6717 230.111 96.0535C230.17 95.7895 230.224 95.5418 230.274 95.3121L144.35 71.4236V30.4556C144.35 27.6347 145.828 25.0263 148.271 23.6166C154.066 20.2736 165.113 14.0552 173.309 10.3781C181.165 6.85365 191.829 2.9911 197.91 0.85965C201.014 -0.228394 204.373 -0.285538 207.512 0.699249C213.943 2.71732 225.396 6.46448 233.055 9.84659C240.825 13.278 251.321 19.013 256.979 22.1797C259.474 23.5761 260.994 26.215 260.994 29.0744V69.8238L222.5 58.2158L233 49.7158L233.146 39.8428C233.168 38.2927 232.294 36.8691 230.9 36.1891L227.418 34.4896L218.4 30.5769L208.467 26.5573C204.785 25.067 200.642 25.2114 197.072 26.9546L189.655 30.5769L178.482 36.1953C177.132 36.8745 176.279 38.2571 176.279 39.7689V54.513L261.236 78.0335L260.974 79.8473L258.597 79.5671C260.974 79.8473 260.974 79.8473 260.974 79.8473L260.971 79.8698L260.962 79.9281C260.955 79.9788 260.943 80.0529 260.929 80.1494C260.899 80.3424 260.854 80.6253 260.794 80.9905C260.674 81.7208 260.492 82.7806 260.242 84.1092C259.743 86.7655 258.973 90.5008 257.888 94.8285C255.724 103.459 252.279 114.549 247.171 124.144C241.523 134.751 230.274 139.716 220.774 145.013C216.284 147.516 211.545 148.195 208.302 148.988C206.678 149.386 205.348 149.665 204.418 149.845C203.953 149.936 203.587 150.002 203.334 150.046C203.208 150.068 203.109 150.084 203.041 150.095L202.96 150.108L202.937 150.112L202.927 150.113C202.927 150.113 202.926 150.114 202.521 147.98C202.131 150.116 202.13 150.116 202.13 150.116L202.12 150.114L202.096 150.11L202.011 150.097C201.939 150.086 201.834 150.069 201.699 150.047C201.43 150.002 201.04 149.935 200.543 149.843C199.55 149.658 197.734 149.391 196 148.988C192.536 148.184 187.897 147.761 183 145.216C172.897 139.965 162.5 133.716 155.346 124.161C151.321 116.768 148.587 106.376 146.862 97.9867C145.994 93.7616 145.369 89.9874 144.963 87.2689C144.759 85.909 144.609 84.8117 144.511 84.0524C144.461 83.6726 144.424 83.3773 144.4 83.1757C144.391 83.1064 144.384 83.0482 144.379 83.0014L144.372 82.9449L144.365 82.8844L144.363 82.8683L144.363 82.8638L144.362 82.8617C144.362 82.8617 144.362 82.8617 146.747 82.6396ZM255.927 81.0924L171.484 57.7143V34.512L203.832 21.2704L237.418 34.4896V53.0408L228.5 56.0988L256.199 64.0529V27.1557L203.86 4.04308L176.502 16.3163L149.145 28.5896V68.2263L235.739 92.3011L235.386 94.1746L233.022 93.8109C235.386 94.1746 235.386 94.1746 235.386 94.1746L235.386 94.1762L235.383 94.1898L235.376 94.2286C235.372 94.2451 235.368 94.2653 235.364 94.289C235.359 94.3137 235.354 94.3422 235.347 94.3746C235.322 94.5014 235.286 94.6863 235.237 94.9228C235.141 95.3958 234.998 96.0756 234.811 96.9104C234.438 98.5784 233.889 100.873 233.183 103.378C231.803 108.273 229.724 114.359 227.011 117.951C223.558 122.526 217.292 125.241 212.316 126.805C209.766 127.606 207.42 128.147 205.712 128.487C204.856 128.657 204.155 128.778 203.664 128.858C203.418 128.897 203.224 128.926 203.089 128.946C203.022 128.956 202.969 128.963 202.931 128.969L202.886 128.975L202.873 128.976L202.867 128.977C202.867 128.977 202.866 128.977 202.521 126.835C202.016 128.951 202.015 128.951 202.015 128.951L202.013 128.951L201.995 128.947L201.948 128.938C201.908 128.93 201.85 128.918 201.776 128.903C201.628 128.872 201.413 128.827 201.141 128.767C200.596 128.648 199.817 128.469 198.865 128.23C196.964 127.753 194.357 127.031 191.536 126.051C186.039 124.142 179.182 121.073 175.541 116.564C173.252 113.73 171.563 109.092 170.468 105.448C169.904 103.571 169.47 101.858 169.176 100.613C169.029 99.9905 168.917 99.4832 168.841 99.1295C168.803 98.9526 168.775 98.8141 168.755 98.7185C168.745 98.6708 168.738 98.6337 168.732 98.6081L168.726 98.5781L168.724 98.5671C168.724 98.5671 168.724 98.5656 171.084 98.1862L168.724 98.5671L168.332 96.5751L175.541 91.9907L149.556 85.6064C149.604 85.9446 149.657 86.306 149.714 86.6889C150.114 89.3552 150.726 93.0569 151.577 97.1963C153.292 105.536 155.934 115.427 159.649 122.25C164.614 131.367 175.195 137.297 184.949 140.971C189.776 142.788 194.285 144.011 197.59 144.778C199.24 145.161 200.583 145.43 201.509 145.601C201.936 145.681 202.275 145.739 202.512 145.779C202.728 145.741 203.031 145.686 203.409 145.613C204.266 145.446 205.514 145.184 207.048 144.809C210.12 144.058 214.321 142.855 218.835 141.053C227.937 137.419 237.934 131.5 242.849 122.268C247.731 113.099 251.08 102.37 253.211 93.8722C254.274 89.6355 255.027 85.9792 255.515 83.385C255.684 82.486 255.821 81.7151 255.927 81.0924ZM202.521 126.835L202.015 128.951L202.438 129.033L202.866 128.977L202.521 126.835Z" fill="#E10000"/>
</mask>
<g mask="url(#mask0)">
<path d="M131 -14.7843H202.785L201.646 152.804H131V-14.7843Z" fill="#B60303"/>
</g>
</g>
<defs>
<clipPath id="clip0">
<rect width="360" height="153" fill="white"/>
</clipPath>
</defs>
</svg>
