<svg width="24" height="24" viewBox="0 0 24 24" fill="none" xmlns="http://www.w3.org/2000/svg">
<path d="M0 4C0 1.79086 1.79086 0 4 0H20C22.2091 0 24 1.79086 24 4V20C24 22.2091 22.2091 24 20 24H4C1.79086 24 0 22.2091 0 20V4Z" fill="#0057AF"/>
<path fill-rule="evenodd" clip-rule="evenodd" d="M6.66667 6H9C9.36667 6 9.66667 6.3 9.66667 6.66667C9.66667 7.5 9.8 8.3 10.0467 9.04667C10.12 9.28 10.0667 9.54 9.88 9.72667L8.41333 11.1933C9.37333 13.08 10.92 14.62 12.8067 15.5867L14.2733 14.12C14.4067 13.9933 14.5733 13.9267 14.7467 13.9267C14.8133 13.9267 14.8867 13.9333 14.9533 13.96C15.7 14.2067 16.5067 14.34 17.3333 14.34C17.7 14.34 18 14.64 18 15.0067V17.3333C18 17.7 17.7 18 17.3333 18C11.0733 18 6 12.9267 6 6.66667C6 6.3 6.3 6 6.66667 6ZM8.36 7.33333C8.4 7.92667 8.5 8.50667 8.66 9.06L7.86 9.86C7.58667 9.06 7.41333 8.21333 7.35333 7.33333H8.36ZM14.9333 15.3467C15.5 15.5067 16.08 15.6067 16.6667 15.6467V16.64C15.7867 16.58 14.94 16.4067 14.1333 16.14L14.9333 15.3467Z" fill="white"/>
</svg>
