<?xml version="1.0" encoding="UTF-8"?>
<svg width="20px" height="22px" viewBox="0 0 20 22" version="1.1" xmlns="http://www.w3.org/2000/svg" xmlns:xlink="http://www.w3.org/1999/xlink">
    <title>stopwatch</title>
    <g id="Rounds---Dark-mode-updated" stroke="none" stroke-width="1" fill="none" fill-rule="evenodd">
        <g id="11_Rounds_Live_In-progress_Detail-page-" transform="translate(-716.000000, -135.000000)" fill="#C1C1C1">
            <g id="Group-9-Copy" transform="translate(648.000000, 135.000000)">
                <g id="stopwatch" transform="translate(68.000000, 0.000000)">
                    <path d="M15.7559322,2.07076271 L18.0570339,3.98970339 C18.2154661,4.12186441 18.4079237,4.18635593 18.599322,4.18635593 C18.8420763,4.18635593 19.0830085,4.08262712 19.2506356,3.88165254 C19.5503814,3.52220339 19.5019915,2.98779661 19.1425,2.68805085 L16.8413983,0.769067797 C16.4820339,0.469322034 15.9475847,0.517669492 15.6477966,0.877161017 C15.3480508,1.23661017 15.3964407,1.77097458 15.7559322,2.07076271 Z" id="Path"></path>
                    <path d="M17.0710593,4.62385593 C15.3835169,2.93631356 13.1988983,1.92686441 10.8474576,1.73080508 L10.8474576,0.847457627 C10.8474576,0.37940678 10.4680508,0 10,0 C9.53194915,0 9.15254237,0.37940678 9.15254237,0.847457627 L9.15254237,1.73080508 C6.80110169,1.92686441 4.61648305,2.93627119 2.92894068,4.62381356 C1.04016949,6.51258475 0,9.02381356 0,11.6949153 C0,14.3660169 1.04016949,16.8772458 2.92894068,18.7659746 C4.81766949,20.6547458 7.32889831,21.6949153 10,21.6949153 C12.1505932,21.6949153 14.1999153,21.0225 15.9264407,19.7502542 C16.3032627,19.4726271 16.3836017,18.9421186 16.1059746,18.5652966 C15.8283051,18.1884322 15.2977542,18.1081356 14.9209746,18.3857627 C13.487839,19.441822 11.7861864,20 10,20 C5.42055085,20 1.69491525,16.2743644 1.69491525,11.6949153 C1.69491525,7.1154661 5.42055085,3.38983051 10,3.38983051 C14.5794492,3.38983051 18.3050847,7.1154661 18.3050847,11.6949153 C18.3050847,13.0936441 17.9511017,14.4761864 17.2813136,15.6930508 C17.0556356,16.1030932 17.2050847,16.6184322 17.6151271,16.8441102 C18.0250424,17.0697034 18.5404661,16.9203814 18.7661864,16.5102966 C19.5733475,15.0437288 20,13.3786017 20,11.6949153 C20,9.02381356 18.9598305,6.51258475 17.0710593,4.62385593 Z" id="Path"></path>
                    <path d="M14.1285593,6.59326271 C13.7648305,6.29889831 13.2311864,6.35504237 12.9366949,6.71889831 L10.2646186,10.0208051 C10.1783475,10.0072034 10.09,10 10,10 C9.06542373,10 8.30508475,10.760339 8.30508475,11.6949153 C8.30508475,12.6294915 9.06542373,13.3898305 10,13.3898305 C10.9345763,13.3898305 11.6949153,12.6294915 11.6949153,11.6949153 C11.6949153,11.4808475 11.6546186,11.2761017 11.5818644,11.0873729 L14.2541949,7.78512712 C14.5486441,7.42127119 14.4924153,6.88762712 14.1285593,6.59326271 Z" id="Path"></path>
                </g>
            </g>
        </g>
    </g>
</svg>