<svg width="16" height="16" viewBox="0 0 16 16" fill="none" xmlns="http://www.w3.org/2000/svg">
<g clip-path="url(#clip0_2756_497)">
<path fill-rule="evenodd" clip-rule="evenodd" d="M16 9.67137L8 8.67517L0 9.67137L8 16L16 9.67137Z" fill="#FCBF92"/>
<path fill-rule="evenodd" clip-rule="evenodd" d="M0 9.67137L8 12.0892V16L0 11.9466V9.67137Z" fill="#9D5025"/>
<path fill-rule="evenodd" clip-rule="evenodd" d="M16 9.67137L8 12.0892V16L16 11.9466V9.67137Z" fill="#F58534"/>
<path fill-rule="evenodd" clip-rule="evenodd" d="M1.033 6.23357H0V8.53257L1.033 8.72277L2.1812 7.49137L1.033 6.23357Z" fill="#9D5025"/>
<path fill-rule="evenodd" clip-rule="evenodd" d="M2.18134 8.62757L1.033 8.72277V6.23357H2.18134V8.62757Z" fill="#F58534"/>
<path fill-rule="evenodd" clip-rule="evenodd" d="M2.95537 3.36638L1.59537 3.62558V8.84158L2.95537 9.12678L4.20017 6.23338L2.95537 3.36638Z" fill="#9D5025"/>
<path fill-rule="evenodd" clip-rule="evenodd" d="M4.20015 8.98418L2.95537 9.12678V3.36638L4.20015 3.50898V8.98418Z" fill="#F58534"/>
<path fill-rule="evenodd" clip-rule="evenodd" d="M5.60713 4.5266L3.72953 4.7168V9.291L5.60713 9.6714L7.60013 7.087L5.60713 4.5266Z" fill="#9D5025"/>
<path fill-rule="evenodd" clip-rule="evenodd" d="M6.87275 9.4574L5.60713 9.6714V4.5266L6.87275 4.6216V9.4574Z" fill="#F58534"/>
<path fill-rule="evenodd" clip-rule="evenodd" d="M7.99988 0.378031L6.73408 0.782231V9.88543L7.99988 10.1444L9.26568 5.26123L7.99988 0.378031Z" fill="#9D5025"/>
<path fill-rule="evenodd" clip-rule="evenodd" d="M9.17185 9.45737L10.393 9.67137L12.2706 6.23357L10.393 2.81957L9.17185 3.00977V9.45737Z" fill="#9D5025"/>
<path fill-rule="evenodd" clip-rule="evenodd" d="M12.2706 6.23357L10.393 2.81957L9.17185 3.00977" fill="#9D5025"/>
<path fill-rule="evenodd" clip-rule="evenodd" d="M11.7764 8.9844L13.0446 9.127L14.4046 4.7882L13.0446 0.473195L11.7764 0.782195V8.9844Z" fill="#9D5025"/>
<path fill-rule="evenodd" clip-rule="evenodd" d="M13.8187 8.6276L14.9669 8.7226L15.9999 4.4316L14.9669 0L13.8187 0.2852V8.6276Z" fill="#9D5025"/>
<path fill-rule="evenodd" clip-rule="evenodd" d="M7.99988 0.378031L9.2658 0.7822V9.8854L7.99988 10.1444V0.378031ZM12.2706 3.2L10.393 2.81957V9.67137L12.2706 9.291V3.2ZM14.4048 1.02L13.0446 0.473195V9.127L14.4048 8.8416V1.02ZM16 0.5206L14.9669 0V8.7226L16 8.5326V0.5206Z" fill="#F58534"/>
</g>
<defs>
<clipPath id="clip0_2756_497">
<rect width="16" height="16" fill="white"/>
</clipPath>
</defs>
</svg>
